<?xml version="1.0" encoding="UTF-8"?>
<svg id="Layer_1" data-name="Layer 1" xmlns="http://www.w3.org/2000/svg" viewBox="0 0 459.93 116.55">
  <defs>
    <style>
      .cls-1, .cls-2, .cls-3, .cls-4 {
        fill-rule: evenodd;
      }

      .cls-1, .cls-5 {
        fill: #1b4584;
      }

      .cls-2 {
        fill: #6c449a;
      }

      .cls-6, .cls-3 {
        fill: #057eb6;
      }

      .cls-4 {
        fill: #328d43;
      }
    </style>
  </defs>
  <path class="cls-4" d="m21.46,49.62s-.02.08-.03.13c.01.2-.04.55-.11.7-.02.05-.02.18-.04.23-.04.13-.08.27-.13.43-.14.4-.25.75-.45,1.11,0,.03-.02.06-.03.09-.01.01-.02.03-.04.04,0,.02,0,.04,0,.06-.11.18-.23.38-.33.53-.03.05,0,.07-.03.11-.02.03-.07.06-.08.07-.03.03-.06.09-.07.12-.02.03-.06.05-.08.07-.05.07-.09.16-.15.2,0,0-.05.02-.05.02-.1.14-.19.23-.3.36-.07.08-.23.15-.25.25-.01,0,0,0-.03,0v.02s-.34.32-.35.34c0,0,0,0-.01,0v-.02h0c-.04.1-.22.19-.24.27,0,0,0-.02,0-.02-.01.01-.02.02-.04.01,0,.02,0,.03-.01.05-.04.05-.28.22-.33.22,0,0,0,0,0,0-.39.36-.82.54-1.35.79-.06.03-.31.09-.31.09-.03.04-.12.04-.16.06-.12.06-.24.11-.34.19-.06.04-.16.03-.24.06.02,0-.14.05-.17.05-.01,0-.27.01-.29.02-.03,0-.16.06-.18.05,0-.01,0,0-.02,0,0,0-.25.03-.32.06-.09.04-.21.05-.31.07-.02,0-.07-.03-.09-.02-.06.02-.15.03-.2.02-.09-.02-.18-.03-.28-.01,0,0,0,0,0-.01-.12,0-.34,0-.42-.03-.07,0-.14,0-.2.01-.15-.04-.49-.05-.63-.09-.09-.03-.25-.02-.32-.07-.02,0-.01,0-.03.01-.03-.03-.15-.04-.18-.06-.02-.01-.04-.03-.06-.04-.02,0-.07,0-.1,0-.17-.07-.36-.13-.53-.23,0,0-.09-.04-.11-.03,0-.01,0,0,0-.02,0,0-.02,0-.03,0,0,0-.01,0,0-.01-.19,0-.4-.15-.63-.23-.23-.08-.43-.21-.65-.33-.09-.05-.17-.15-.26-.2-.27-.16-.49-.31-.7-.5-.14-.14-.26-.24-.37-.37-.03-.03-.13-.13-.13-.15-.04,0-.1-.11-.14-.14-.12-.09-.22-.23-.33-.4-.03-.03-.06-.07-.09-.1-.01-.03-.03-.07-.04-.1-.06-.08-.13-.15-.18-.23-.03-.04-.04-.12-.07-.17-.04-.06-.1-.11-.14-.16-.08-.11-.15-.22-.22-.34-.12-.19-.19-.5-.3-.72-.05-.1-.12-.2-.16-.31-.06-.15-.09-.34-.14-.49-.05-.14-.04-.29-.08-.41,0-.06,0-.11,0-.17-.05-.19-.02-.39-.05-.55,0-.09-.02-.18-.02-.27,0-.05,0-.09,0-.14-.03-.11-.05-.25-.03-.36.02-.11.03-.22.05-.33.01-.08,0-.22.01-.3,0-.04.03-.09.02-.14-.04-.18.04-.34.08-.52,0-.04,0-.09,0-.13.06-.15.06-.3.12-.47.02-.06.06-.12.08-.18.08-.23.15-.44.26-.63,0-.01.11-.34.12-.38.04-.09.11-.16.16-.23.03-.08.07-.16.1-.25.09-.16.2-.33.3-.46.02-.03.01-.07.03-.1.04-.06.09-.1.12-.16.01-.02.01-.05.03-.08.03-.05.11-.09.14-.14.18-.26.37-.51.57-.74.11-.12.24-.19.35-.31.08-.08.15-.15.23-.23-.01,0,0-.01,0-.02.07-.08.1-.18.2-.24.11-.06.19-.14.29-.2.09-.06.19-.1.27-.16.04-.03.17-.06.16-.11.05,0,.22-.09.24-.13,0,0,0,0,0,.01.05-.04.2-.1.21-.16,0,0,.01.01.02.02.08-.03.16-.05.22-.1,0-.02.29-.11.33-.15,0,.02.14-.04.14-.06.03,0,.18,0,.2-.05.03-.01.11,0,.2-.02.19-.06.42-.11.61-.14,0,0,0-.02,0-.02.02,0,.04.02.07,0,.02-.01.01,0,0-.02.01,0,0,0,0,.01.03,0,.16-.02.2-.04.02,0,.04,0,.06,0,.03,0,.05-.03.09-.03,0,0,0,0,0,.01.09-.03.21,0,.29-.02.12-.03.29-.04.43-.07.11-.02.23.03.32-.02.05.04.42.04.46.02.03,0,.01.01.03.03.01,0,.02,0,.04,0,.1.01.21.03.31.04.02,0,.27,0,.33,0,.36.08.71.14,1.04.26.06.02.17.02.21.04.1.05.21.1.3.14.04.02.09,0,.13.05.02,0,.02,0,.03-.01.05.06.22.09.31.13.07.03.2.09.26.14.02.01.02.04.04.05.02.01.05.03.07.04,0,0,.02,0,.02,0,.1.11.34.19.48.28.09.06.21.14.29.21.02.02.04.05.07.07.1.06.18.16.28.23.09.06.18.13.27.2.09.07.19.21.28.31.08.09.2.15.26.25.03.04.05.1.08.13.17.16.39.43.53.66.04.07.06.13.1.19.02.02.06.06.07.07.02.03.03.13.07.16.01,0,.03,0,.04,0v.04s.04.05.06.07c.01.03.02.07.03.1.16.16.2.45.34.64,0,.03.02.07.02.1,0,0,.02,0,.02,0,0,0,.02.08.02.09,0,0,.02,0,.02,0,0,.02,0,.03,0,.05.01.02.04.03.05.06.02.05,0,.09.04.13.01.06.02.12.04.18.04.06.08.15.11.22.06.16.07.33.12.46-.02.06.02.16.03.24v.1c.03.16.05.36.08.51,0,.11,0,.23,0,.34.03.09.02.33.03.46.01.09.02.26,0,.4,0,.05.02.15,0,.19h0Zm5.37,2.49c-.13-.18-.24-.23-.41-.38-.07-.06-.11-.16-.17-.21-.05-.05-.1-.09-.15-.14-.04-.03-.1-.05-.13-.09-.05-.08-.1-.16-.17-.22-.06-.04-.11-.07-.17-.11-.13-.11-.26-.24-.39-.34-.08-.06-.15-.09-.22-.17,0-.01,0,0,0-.01-.04,0-.1-.08-.11-.11-.01-.04.03-.2.03-.27,0-.09-.01-.19.01-.29.03-.1.01-.26.03-.38,0-.04.01-.08.02-.12,0-.06-.03-.13,0-.2.03-.1,0-.27.02-.35.03-.1.03-.38.01-.49-.02-.1-.04-.44-.06-.46-.06-.12-.09-.49-.08-.6.08-.05.16-.16.21-.22.01,0,.02,0,.04,0,.05-.04.09-.11.12-.15h.03c.07-.06.13-.12.2-.19.1-.09.18-.2.28-.29.16-.14.34-.29.48-.47.08-.1.22-.21.33-.28.02-.01.06-.02.08-.05.03-.04.01-.11,0-.14,0,0,0,0,.01,0,0,0-.01-.02-.02-.02,0-.03,0-.03.03-.04.04-.09-.12-.49-.16-.57-.04-.09-.02-.22-.06-.31,0,0-.01-.02-.02-.02-.01-.04-.02-.09-.03-.13,0-.08-.1-.29-.15-.38-.05-.09-.06-.19-.11-.29-.05-.11-.13-.23-.19-.33-.04-.08-.04-.18-.09-.25-.05-.08-.13-.15-.18-.23-.09-.14-.16-.27-.25-.4-.03-.05-.1-.05-.13-.1-.03,0-.03-.03-.03-.07-.1-.07-.27-.04-.35-.06,0,0,0,0,0,.01-.1.02-.25,0-.38.01-.06,0-.26,0-.26,0-.02.02-.48.06-.62.07-.12,0-.19-.03-.28,0-.14.02-.45.09-.53.06-.04.02-.18.01-.2,0-.02-.01-.05-.04-.06-.07,0,0,0,0,0-.01-.1-.09-.12-.18-.21-.29-.05-.06-.12-.1-.17-.16-.09-.1-.16-.19-.25-.29-.02-.03-.04-.07-.06-.1-.12-.11-.24-.25-.34-.38-.1-.13-.32-.26-.46-.38-.06-.05-.11-.13-.18-.18-.09-.06-.17-.11-.23-.19,0,.01-.08-.05-.09-.06-.09-.08-.19-.16-.28-.24-.04-.03,0-.4,0-.44v-.2c0-.17,0-.34,0-.51.02-.25-.01-.56,0-.82.02-.21.06-.43.01-.64-.07-.01-.13-.08-.19-.11-.08-.04-.14-.04-.21-.08-.11-.05-.21-.13-.33-.18-.15-.07-.24-.08-.4-.15-.02.01-.24-.08-.28-.11-.03.03-.35-.13-.38-.14-.08-.06-.43-.11-.46-.18,0,0-.02,0-.03.01-.05-.04-.21-.09-.24-.08,0,0,0,0,0,0-.04-.04-.39-.09-.41-.14-.04,0-.15.01-.2.04-.18.09-.3.27-.46.39-.3.22-.58.54-.79.83-.1.09-.19.19-.29.28-.03.02-.07.03-.09.05-.08.08-.18.18-.27.25-.06.05-.22-.01-.33,0-.04,0-.25-.02-.31-.06,0,0-.21,0-.28,0-.02,0-.22-.03-.22-.03-.06.04-.28,0-.36,0,0,0-.19.01-.19.01-.04,0-.07-.02-.11-.02-.14.02-.29,0-.43.06-.03-.01-.25,0-.3.02-.04.01-.06.03-.1.05-.07,0-.13,0-.2,0-.19.05-.38.05-.5.05-.02,0-.02-.01-.03-.04,0,0-.01,0-.02.01,0-.01-.22-.19-.26-.25,0-.01-.07-.11-.09-.1,0,.01,0,0,0,0-.06-.08-.14-.15-.2-.23,0,0-.07-.05-.07-.06,0-.06-.2-.18-.26-.26-.02-.04-.03-.06-.05-.1-.03-.02-.05-.04-.08-.06-.04-.03-.08-.09-.12-.13-.03-.04-.06-.07-.08-.11-.08-.06-.19-.17-.24-.24-.02,0-.04-.01-.06-.02-.04-.03-.05-.06-.1-.08,0-.03-.01-.07-.02-.1-.02-.01-.04-.02-.07-.04-.08,0-.13.05-.19.07-.08.03-.14,0-.25.04-.06.02-.12.06-.19.08-.03-.01-.32.09-.36.11-.02,0-.04.04-.07.04-.07,0-.17.05-.25.1,0,0,0,0,0,0-.07,0-.18.07-.23.11-.03.03-.21.06-.27.08-.08.03-.17.09-.23.14-.01-.01-.23.1-.25.11-.03,0-.07.01-.1.02-.14.12-.35.17-.49.29,0,0-.11.03-.13.06-.01,0-.02,0-.04-.01,0,.02,0,.01,0,.03-.02.02-.03.03-.05.05.01.05.02.23-.01.27.02.02.01.13,0,.16,0,.03,0,.07,0,.1.01.03.04.28.04.34,0,.04,0,.08,0,.12.01.09.03.18.04.26.02.1-.01.21,0,.3,0,.04,0,.09,0,.13.02.07.05.23.05.29,0,.18.07.61-.01.76-.02.04-.08.05-.12.08-.07.05-.13.12-.21.18-.13.09-.27.23-.36.35-.01.02-.02.05-.03.07-.06.04-.16.08-.19.11v.02s-.06.03-.08.06c-.01.01-.01.04-.02.05-.04.05-.1.08-.13.14,0,0-.02,0-.03,0v.02s-.04.06-.08.07c0,0,0,0,0,.01-.03,0-.1.1-.13.13-.05.04-.08.11-.13.18-.07.09-.23.15-.24.27,0,0-.01,0-.02,0-.05.06-.31.42-.32.49,0,0,0,0-.01,0,0,.01,0,0,0,.02-.15.14-.29.03-.5.07-.1.02-.28.05-.37.04-.08,0-.16,0-.25-.01-.1.02-.18,0-.25,0-.17.01-.33,0-.44,0-.17-.03-.29.01-.41,0-.05,0-.19-.02-.22-.01-.08.03-.2,0-.26.04-.14.1-.18.35-.27.5-.19.31-.33.64-.48.99-.06.13-.06.25-.12.4-.04.11-.1.22-.14.32,0,.02,0,.07,0,.08-.06.09-.12.33-.15.45v.11c-.04.09-.15.22-.15.33.07.07.13.17.2.24.21.2.41.38.64.55.03.02.05.07.08.1.02.03.07.03.09.05.06.06.1.13.18.18.07.04.12.11.19.15.02.02.05.01.07.03-.01,0,0,.01,0,.02.05.05.1.13.16.17.04.03.1.05.15.08.04.03.06.09.1.11.05.03.13.06.15.1.02.02-.01.16-.02.21-.03.12-.04.31-.07.47-.01.07.01.17,0,.21.01.01,0,.02.03.02-.02.09-.01.17-.04.24,0,0,.01,0,.02.01,0,.03,0,.08-.01.12,0,.05,0,.04.03.07-.01.02,0,.02-.03.03.02.06,0,.15.02.21,0,0-.01,0-.02.01,0,.1.02.43.07.51-.03.04.03.38.04.43,0,0-.02,0-.03,0,0,.01.01.02.02.04,0,0,0,0-.01,0,0,.08.01.13.04.2-.02.06,0,.22.01.29-.02,0-.24.25-.24.28-.02.02-.09.05-.08.09,0,0-.08.05-.09.05-.04.04-.06.09-.1.12-.04.03-.1.06-.13.1-.09.11-.16.24-.27.32-.11.08-.24.17-.32.28,0,0,0,0,0,0-.04,0-.22.23-.27.27-.09.09-.27.23-.32.34-.02.05.05.33.07.38h0s.05.2.07.26c-.01.03.05.17.07.19,0,.01,0,.02,0,.03,0,.03.04.22.05.25.03.1.12.21.09.29,0,0,.02,0,.03,0,.02.05.03.12.08.13,0,0-.01,0-.02,0,0,.01,0,.02,0,.04.02,0,0,0,.02,0,0,0,.11.25.11.27,0,0,0,0-.01,0,.01.03.06.06.07.07.03.07.05.17.1.25.02.04.06.06.08.11.02,0,0,0,.02,0h0c.01.06.04.09.07.13,0,0,.04.14.05.15.08.14.17.29.25.43.02.04.1.2.13.22.07.04.16,0,.24.02.14.04.38,0,.51-.01.04,0,.13.03.18.01l.03-.03s.15,0,.19-.02c.06-.01.2,0,.24,0,.1.02.27-.02.38-.03.06,0,.07.01.11-.02.05.03.09.01.15.02,0,0,0-.02.01-.02.05.05.11,0,.19,0,.14.03.31-.02.46,0,.08.13.18.24.27.35.05.08.1.15.14.23.06.07.12.13.19.2.09.11.18.24.28.34.01,0,0,0,.01,0,.04.06.1.09.15.13.05.04.07.12.13.15.12.08.23.19.35.26.02.03.04.05.06.08.11.08.2.17.3.26.12.1.29.17.38.29-.04.12-.03.52,0,.62-.02.04-.03.13-.02.18.01.06.04.2.04.25,0,.03,0,.16,0,.16,0,.04.01.09.02.13-.03.11,0,.26-.03.38-.05.29-.01.54-.03.81.03.05.07.04.12.07.03.02.05.05.08.07.05.04.12.07.17.1.03.02.07.01.09.03.1.08.27.12.4.18.02,0,.06,0,.07.01.2.15.5.2.71.32h0s.03.02.03.02c0,0,.04-.01.04-.01.01,0,0,.03.02.03.1.07.2.03.27.11.02,0,0,0,.02-.01.05.05.13.09.2.06,0,.02,0,.01-.02.02h0s.02,0,.04,0c.01.01,0,0,0,.02.09.05.21.09.31.13.01,0,.09,0,.09,0,.14.07.5.17.68.1,0-.01,0-.07,0-.07.02,0,.04,0,.06-.01.04-.03.05-.08.1-.12.09-.07.16-.18.24-.26.06-.06.13-.1.2-.15.12-.08.23-.25.33-.36.03-.03.06-.03.09-.05.02-.02.03-.04.05-.07.05-.04.11-.07.15-.12.11-.12.2-.24.29-.37.07-.1.25-.22.3-.33.06-.04.25,0,.34.03.03,0,.06,0,.07,0,.02,0,.07.04.09.03.28-.04.63.04.93.03.02,0,.01,0,.02-.01.01.01.51.01.62,0,.09-.02.17.04.25-.02.25.05.54-.08.86-.08.06.1.18.17.25.27.11.16.25.32.41.43.02.03.05.06.07.09.09.1.19.19.27.3.02.02.12.11.14.12.01,0,.03,0,.04,0,0,0,0,.01,0,.02.04.05.13.15.18.2.06.06.16.1.2.17.05.07.13.16.2.2.06.04.12-.03.17-.03.03,0,.05-.02.07-.03.11-.04.23-.05.33-.09,0,0,0,0,0-.02,0,0,0,.01.01.02.05-.04.16-.07.22-.07,0,0,0-.02,0-.02.04,0,.17,0,.2-.07.02,0,.03,0,.07,0,0-.02,0,0,0-.02,0,0,0,.02.03,0,.05-.02.11-.07.16-.1.05-.03.13-.02.19-.06.15-.09.31-.12.45-.22.06-.04.2-.06.25-.08.02,0,.04-.04.06-.05.01,0,.06,0,.07,0,.06-.02.11-.06.16-.1.07-.05.26-.06.27-.14.09-.06.25-.08.31-.17.01-.04.03-.09.04-.13,0-.06,0-.17-.02-.23,0-.04,0-.08,0-.13-.08-.35,0-.78-.06-1.2,0-.04.01-.08.02-.12-.02-.12-.03-.24-.05-.36.02-.05-.03-.5-.03-.52.11-.08.19-.13.28-.22,0-.01,0-.02.01-.04.14-.13.32-.21.43-.37.04-.06.19-.15.19-.22,0,0,0,.02,0,.02.03,0,.06-.04.05-.07.04,0,.28-.27.31-.31.01-.02.02,0,0-.02.01-.02,0-.01.02,0,0-.02,0,0,0-.02.07-.08.16-.13.22-.2.04-.04.05-.1.11-.13,0-.02,0,0-.01-.01.06-.03.2-.17.23-.24,0-.01-.02-.03,0-.05.02,0,.04-.01.06-.02.02-.02.08-.12.1-.15.02-.04.02-.11.06-.14.04-.04.14-.16.16-.21.18.01.37,0,.51.03.14.03.33-.04.46,0,0-.01,0,0,0-.01.05.01.11,0,.14.02.01-.01.03-.03.06-.02.12.03.42.04.45.07,0,0,.01-.02.02-.03.14.05.29,0,.46.01.04,0,.08-.02.12-.03.11-.02.23-.02.27.06.07,0,.08-.07.09-.11.05-.01.09,0,.13-.01,0,0,.12-.25.14-.28.12-.2.2-.4.31-.57.04-.06.11-.27.14-.28,0,0-.01-.02-.02-.02.05-.06.07-.12.1-.21,0-.01,0-.02,0-.04.02-.02.03-.03.05-.05.05-.1.06-.21.11-.32.02-.05.06-.1.08-.15.03-.06.06-.22.07-.26v-.03s.04-.09.06-.13v-.07c.03-.09.06-.19.08-.28.02-.04.16-.41.15-.45-.02-.05-.05-.06-.07-.09h0Z"/>
  <g>
    <path class="cls-5" d="m69.19,67.73c-15.87-1.61-24.41,6.04-25.07,6.65-.66-.62-9.2-8.26-25.07-6.65-10.26.63-17.16-2.72-19.05-6.28,4.86,12.66,15.45,10.7,22.45,11.62,6.77.89,16.55.31,13.34,24.73-.56,5.58-18.94,12.23-22.57,16.84,3.59-1.2,24.09-1.46,28.58-1.75.21-2.24,2.15-6.39,2.17-8.65.02-1.38-.32-1.06.05.26.67,2.37,2.16,6.11,2.99,8.43,4.34.3,23.29.45,26.73,1.6-3.63-4.6-20.74-11.13-21.3-16.72-3.21-24.42,6.57-23.85,13.34-24.73,7.01-.92,17.59,1.05,22.45-11.62-1.88,3.56-8.79,6.91-19.05,6.28Z"/>
    <path class="cls-5" d="m52.44,61.87c0,4.6-3.72,8.32-8.32,8.32s-8.32-3.72-8.32-8.32,3.72-8.32,8.32-8.32,8.32,3.72,8.32,8.32h0Z"/>
  </g>
  <path class="cls-1" d="m78.47,48.77s-.02.09-.03.13c.01.2-.04.57-.11.72-.02.05-.02.18-.04.24-.04.14-.08.28-.14.44-.15.41-.26.77-.46,1.14,0,.03-.02.06-.03.09-.01.01-.03.03-.04.04,0,.02,0,.04,0,.06-.11.19-.23.39-.33.55-.03.05,0,.07-.03.11-.02.03-.07.06-.09.08-.03.03-.06.1-.07.12-.02.03-.06.05-.08.08-.05.07-.1.16-.15.21,0,0-.05.02-.05.02-.1.14-.19.24-.31.37-.07.08-.24.16-.26.26-.01,0,0,0-.03,0v.02s-.35.33-.36.35c0,0,0,0-.01,0v-.02h0c-.04.1-.22.2-.24.28,0,0,0-.02,0-.02-.02.01-.02.02-.04.01,0,.02,0,.03-.01.05-.04.05-.29.22-.33.22,0,0,0,0,0,0-.4.37-.84.55-1.38.81-.07.03-.32.09-.32.09-.03.04-.13.04-.16.06-.12.07-.25.12-.35.19-.06.04-.17.03-.24.06.02,0-.15.05-.17.05-.01,0-.27.01-.3.02-.03,0-.16.06-.19.05,0-.01,0,0-.02,0,0,0-.26.03-.32.06-.09.04-.21.05-.32.07-.02,0-.07-.03-.09-.02-.07.02-.16.03-.21.02-.09-.02-.19-.04-.29-.01,0,0,0,0,0-.01-.13,0-.35,0-.43-.03-.07,0-.14,0-.21.01-.15-.04-.51-.06-.65-.1-.09-.03-.25-.02-.32-.07-.02,0-.01,0-.03.01-.03-.04-.15-.04-.19-.06-.02-.01-.04-.03-.06-.04-.02,0-.07,0-.1,0-.18-.07-.37-.13-.55-.23,0,0-.09-.04-.11-.03,0-.01,0,0,0-.02,0,0-.02,0-.03,0,0,0-.01,0,0-.01-.2,0-.41-.16-.64-.23-.24-.08-.44-.22-.67-.34-.09-.05-.17-.15-.26-.21-.27-.17-.51-.32-.72-.52-.15-.14-.27-.25-.38-.38-.03-.03-.13-.13-.13-.16-.05,0-.1-.11-.14-.14-.13-.09-.23-.24-.33-.41-.03-.03-.06-.07-.1-.1-.01-.03-.03-.07-.04-.1-.06-.08-.13-.16-.19-.24-.03-.04-.04-.12-.08-.18-.04-.07-.11-.11-.14-.17-.08-.12-.15-.23-.23-.35-.12-.19-.2-.51-.31-.73-.05-.1-.12-.2-.17-.31-.06-.16-.09-.35-.15-.5-.05-.15-.04-.3-.09-.42,0-.06,0-.11,0-.17-.05-.19-.02-.4-.05-.57,0-.09-.02-.19-.02-.28,0-.05,0-.1,0-.14-.03-.11-.05-.25-.03-.37.02-.11.03-.22.05-.33.01-.09,0-.22.01-.31,0-.04.03-.09.02-.15-.04-.18.04-.35.09-.53,0-.04,0-.09,0-.13.06-.16.06-.31.12-.48.02-.06.06-.12.08-.18.08-.23.15-.46.26-.64,0-.01.11-.35.12-.39.04-.09.11-.16.16-.24.03-.08.07-.17.1-.25.09-.16.21-.33.31-.48.02-.03.01-.07.03-.1.04-.06.09-.1.12-.16.01-.02.01-.06.03-.09.04-.05.11-.09.15-.14.19-.27.38-.52.59-.76.11-.12.25-.2.36-.31.08-.08.16-.16.24-.24-.01,0,0-.01,0-.02.07-.09.1-.19.21-.24.11-.06.2-.15.3-.21.09-.06.19-.1.28-.16.04-.03.18-.06.17-.11.05,0,.23-.09.25-.13,0,0,0,0,0,.01.05-.04.2-.1.21-.16,0,0,.01.01.02.02.08-.03.16-.05.22-.1,0-.02.3-.11.33-.16,0,.02.14-.04.15-.06.03,0,.19,0,.21-.05.03-.01.12,0,.2-.02.2-.07.43-.12.63-.14,0,0,0-.02,0-.02.02,0,.05.02.07,0,.02-.01.01,0,0-.02.02,0,0,0,0,.01.03,0,.16-.02.2-.04.02,0,.04,0,.06,0,.03,0,.05-.03.09-.03,0,0,0,0,0,.01.09-.03.21,0,.3-.02.12-.03.3-.04.44-.07.12-.02.24.03.33-.02.05.04.43.04.47.02.03,0,.01.01.03.03.01,0,.03,0,.04,0,.11.01.21.03.32.04.02-.01.28,0,.34,0,.37.08.73.15,1.06.27.06.02.17.02.21.04.1.05.21.1.31.14.04.02.09,0,.13.05.02,0,.02,0,.03-.01.05.07.22.09.32.13.07.03.21.09.27.14.02.01.02.04.04.05.02.01.05.03.07.04,0,0,.02,0,.02,0,.11.11.35.2.5.29.1.06.21.14.3.22.02.02.04.05.07.07.1.06.18.16.29.24.1.07.19.14.28.21.09.08.2.22.29.31.08.09.21.15.27.25.03.04.05.1.09.13.18.17.4.44.54.68.04.07.06.14.1.2.02.02.07.06.08.07.02.03.04.14.07.16.01.01.03,0,.04,0v.04s.05.05.06.08c.01.03.02.07.03.1.17.17.21.46.35.66,0,.03.02.07.02.1,0,0,.02,0,.02,0,0,0,.02.09.02.1,0,0,.02,0,.02,0,0,.02,0,.03,0,.05.01.02.04.04.05.06.02.06,0,.09.04.14.01.06.03.12.04.19.04.06.08.15.11.23.06.16.07.34.12.47-.02.06.02.17.03.25v.1c.03.16.05.37.09.52,0,.12,0,.23,0,.35.03.09.02.33.03.47.01.1.02.26,0,.41,0,.05.02.15,0,.2h0Zm5.52,2.56c-.13-.18-.25-.24-.42-.39-.07-.06-.11-.16-.17-.22-.05-.05-.11-.1-.16-.14-.04-.03-.11-.05-.13-.1-.05-.09-.1-.16-.18-.22-.06-.04-.11-.07-.17-.11-.13-.12-.26-.25-.4-.35-.08-.07-.16-.1-.22-.18,0-.01,0,0,0-.01-.05,0-.1-.08-.11-.11-.01-.05.03-.21.03-.28,0-.09-.01-.2.01-.3.03-.1.01-.27.03-.39,0-.04.01-.08.02-.12,0-.06-.03-.14,0-.21.03-.11,0-.28.02-.36.03-.11.03-.39.01-.5-.02-.1-.05-.45-.06-.48-.06-.12-.09-.5-.08-.62.08-.05.16-.16.21-.23.01,0,.03,0,.04,0,.05-.04.1-.12.12-.15h.03c.07-.06.13-.13.2-.19.1-.09.19-.2.29-.3.16-.15.35-.3.49-.48.08-.1.23-.21.33-.29.02-.01.06-.03.08-.05.03-.04.01-.11,0-.14,0,0,0,0,.01,0,0,0-.01-.02-.02-.02,0-.03,0-.03.03-.04.04-.09-.13-.5-.16-.58-.04-.09-.02-.23-.06-.31,0,0-.01-.02-.02-.02-.01-.04-.02-.09-.03-.13.01-.08-.1-.29-.16-.39-.05-.09-.07-.2-.11-.3-.05-.11-.14-.24-.19-.33-.05-.08-.04-.18-.09-.26-.05-.08-.13-.15-.18-.23-.09-.14-.16-.28-.25-.41-.03-.05-.1-.06-.13-.1-.03,0-.03-.03-.03-.07-.1-.08-.27-.04-.36-.06,0,0,0,0,0,.01-.1.02-.26,0-.39.01-.06,0-.27,0-.27,0-.02.02-.5.06-.63.07-.13,0-.19-.03-.29,0-.14.02-.46.09-.54.06-.04.02-.18.01-.21,0-.02-.02-.05-.04-.06-.07,0,0,0,0,0-.01-.11-.1-.13-.19-.22-.3-.05-.06-.12-.1-.17-.16-.09-.11-.16-.2-.26-.3-.02-.03-.04-.07-.06-.1-.13-.11-.25-.25-.35-.39-.1-.13-.33-.27-.47-.39-.06-.06-.11-.13-.18-.18-.09-.06-.17-.11-.24-.2,0,.01-.08-.05-.1-.06-.1-.08-.19-.17-.29-.25-.04-.03,0-.41,0-.45v-.2c0-.17,0-.35,0-.52.02-.26-.01-.58,0-.84.02-.21.06-.44.01-.66-.07-.01-.14-.08-.2-.11-.08-.04-.14-.04-.22-.08-.11-.05-.22-.13-.33-.18-.16-.07-.25-.08-.41-.16-.02.01-.25-.08-.29-.11-.03.03-.36-.13-.39-.15-.08-.06-.44-.12-.47-.19,0,0-.02,0-.03.01-.05-.04-.21-.09-.25-.09,0,0,0,0,0,0-.04-.04-.4-.09-.42-.15-.04,0-.15.01-.2.04-.18.1-.31.28-.47.4-.31.23-.59.55-.82.85-.1.1-.2.19-.3.29-.03.02-.07.04-.09.05-.09.08-.19.18-.28.25-.06.05-.22-.01-.34,0-.04,0-.26-.02-.32-.06,0,0-.22,0-.29,0-.02,0-.22-.03-.22-.03-.06.05-.29,0-.37,0,0,0-.19.01-.19.01-.04,0-.07-.02-.11-.02-.14.02-.3,0-.44.06-.03-.02-.26,0-.31.02-.04.01-.06.04-.1.05-.07,0-.14,0-.21,0-.2.05-.39.05-.51.05-.02,0-.03-.01-.03-.04,0,0-.01,0-.02.01,0-.01-.22-.19-.27-.25,0-.01-.07-.11-.09-.1,0,.01,0,0,0,0-.06-.09-.14-.15-.21-.24,0,0-.07-.05-.07-.06,0-.06-.21-.18-.26-.26-.03-.04-.03-.06-.05-.1-.03-.02-.05-.04-.08-.06-.04-.03-.08-.09-.12-.13-.03-.04-.06-.08-.09-.11-.08-.06-.19-.17-.25-.25-.02,0-.04-.01-.06-.02-.04-.03-.05-.06-.1-.08,0-.03-.01-.07-.02-.1-.02-.01-.04-.03-.07-.04-.08,0-.13.05-.19.07-.08.03-.15,0-.25.04-.06.02-.12.06-.19.09-.03-.01-.33.09-.37.11-.02,0-.04.04-.08.04-.07,0-.18.05-.26.1,0,0,0,0,0,0-.07,0-.18.07-.24.11-.03.03-.21.06-.28.09-.09.03-.17.09-.24.15-.01-.01-.23.1-.26.11-.03,0-.07.01-.1.02-.14.12-.36.17-.51.3,0,0-.11.03-.13.06-.01,0-.03,0-.04-.01,0,.02,0,.01,0,.03-.02.02-.03.03-.05.05.01.05.02.23-.01.28.02.02.01.13,0,.16,0,.03,0,.07,0,.1.01.03.04.29.04.35,0,.04,0,.08,0,.12.01.09.03.18.04.27.02.1-.01.21,0,.31,0,.04,0,.09,0,.13.02.07.05.24.05.3,0,.18.07.63-.01.78-.02.04-.08.05-.12.08-.08.05-.14.13-.21.18-.13.09-.27.24-.37.36-.01.03-.02.05-.03.08-.06.05-.16.08-.2.11v.02s-.06.03-.08.06c-.01.02-.01.04-.02.05-.04.05-.1.08-.13.15,0,0-.02,0-.03,0v.02s-.04.06-.08.07c0,0,0,0,0,.01-.03,0-.1.1-.14.13-.05.04-.09.12-.14.18-.07.09-.24.15-.25.28,0,0-.01,0-.02,0-.05.06-.32.43-.33.5,0,0,0,0-.01,0,0,.01,0,0,0,.02-.15.14-.3.03-.51.08-.11.02-.29.06-.38.04-.08,0-.17,0-.25-.01-.1.02-.19,0-.26,0-.18.01-.34,0-.45,0-.17-.03-.29.01-.42,0-.05,0-.2-.03-.22-.01-.09.03-.2,0-.27.04-.15.1-.18.36-.28.51-.19.32-.34.65-.49,1.02-.06.14-.06.26-.12.42-.04.11-.11.23-.14.33,0,.02,0,.07,0,.08-.07.1-.12.34-.16.46v.11c-.04.1-.15.23-.15.34.08.07.13.17.21.24.22.21.42.39.65.57.03.02.05.07.08.1.02.03.07.03.09.05.07.07.1.14.19.19.07.04.12.11.19.16.02.02.05.01.07.03-.01,0,0,.01,0,.02.06.05.1.13.17.18.05.03.1.05.15.09.04.03.07.09.1.11.05.03.13.06.16.1.02.02-.01.17-.02.21-.03.13-.04.32-.08.49-.01.07.01.17,0,.22.01.01,0,.02.03.02-.02.09-.01.18-.04.25,0,0,.01,0,.02.01,0,.04,0,.08-.01.12,0,.05,0,.05.03.07-.01.02,0,.02-.03.03.02.06,0,.16.02.22,0,0-.01,0-.02.01,0,.1.02.44.07.52-.03.04.03.39.04.44,0,0-.02,0-.03,0,0,.01.01.03.02.04,0,0,0,0-.01,0,0,.08.01.13.04.2-.03.06,0,.23.01.3-.02,0-.25.26-.25.29-.02.02-.1.06-.08.1,0,0-.08.05-.09.05-.04.04-.06.09-.1.12-.04.04-.1.06-.14.1-.1.11-.17.24-.28.33-.11.09-.25.17-.33.29,0,0,0,0,0,0-.04,0-.23.23-.28.28-.1.09-.28.23-.33.35-.02.05.05.33.07.39h0s.06.21.08.27c-.01.03.05.18.07.2,0,.01,0,.02,0,.03,0,.03.04.22.05.25.03.1.13.21.1.3,0,0,.02,0,.03,0,.02.05.03.12.08.14,0,0-.01,0-.02,0,0,.01,0,.03,0,.04.02,0,0,0,.02,0,0,0,.11.26.11.28,0,0,0,0-.01,0,.01.03.06.06.07.08.03.07.05.18.1.25.02.04.06.06.08.11.02,0,0,0,.02,0h0c.01.06.04.1.07.13,0,0,.04.15.05.15.08.14.17.3.26.44.02.04.1.21.13.22.07.04.16,0,.25.02.14.05.39,0,.52-.01.04,0,.13.03.18.01l.03-.03s.15-.01.19-.02c.07-.01.21,0,.24,0,.1.03.28-.02.39-.03.06,0,.07.01.11-.02.05.03.09.01.15.02,0,0,0-.02.01-.02.05.05.12,0,.19,0,.14.03.31-.02.48,0,.08.14.18.25.28.36.05.08.1.16.15.23.06.07.13.13.19.2.09.12.18.25.29.35.01,0,0,0,.01,0,.04.06.1.09.15.13.05.04.08.12.13.16.12.08.24.19.36.27.02.03.04.05.06.08.11.08.2.18.31.26.13.1.29.17.39.3-.04.12-.03.54,0,.63-.02.04-.03.14-.02.19.01.07.04.2.04.25,0,.03,0,.17,0,.17,0,.05.01.09.02.14-.03.12,0,.27-.03.39-.05.29-.01.55-.03.83.03.05.07.04.12.07.03.03.05.05.08.08.05.04.12.08.18.1.03.02.07.01.1.03.1.08.28.13.41.18.02,0,.06,0,.07.01.2.15.51.2.73.33h0s.03.02.03.02c0,0,.04-.01.04-.01.01,0,0,.03.02.03.1.07.21.03.28.11.02,0,0,0,.02-.01.05.05.13.09.2.06,0,.02,0,.01-.02.02h0s.02,0,.04,0c.02.01,0,0,0,.02.1.05.22.09.31.13.01,0,.09,0,.09,0,.14.07.51.17.7.1,0-.01,0-.07,0-.07.02,0,.04,0,.06-.01.04-.03.05-.08.1-.12.1-.07.16-.18.25-.26.07-.06.14-.11.21-.16.12-.09.23-.25.34-.37.03-.03.06-.03.1-.05.02-.02.03-.04.05-.07.05-.05.11-.07.16-.12.11-.12.2-.24.3-.38.07-.1.26-.23.31-.34.06-.05.26,0,.35.03.03,0,.06,0,.07,0,.02,0,.07.04.1.03.28-.04.64.04.95.03.02,0,.01,0,.02-.01.01.01.53.01.63,0,.09-.02.18.05.25-.02.25.06.56-.09.89-.09.06.1.18.18.25.28.11.17.25.33.42.44.03.03.05.06.08.1.09.1.19.19.28.31.02.02.12.11.14.12.01,0,.03,0,.04,0,0,0,0,.01,0,.02.04.06.14.15.19.2.06.06.16.11.21.18.05.07.13.16.2.21.07.04.12-.03.18-.03.03,0,.05-.03.07-.03.11-.04.24-.05.34-.09,0,0,0,0,0-.02,0,0,0,.01.01.02.05-.04.17-.08.23-.07,0,0,0-.02,0-.02.05,0,.17,0,.21-.07.02,0,.03,0,.07,0,0-.02,0,0,0-.02,0,0,0,.02.03,0,.05-.02.11-.07.17-.1.06-.03.13-.02.2-.06.15-.09.32-.13.46-.22.06-.04.21-.06.26-.09.02,0,.04-.05.06-.05.01,0,.06,0,.08,0,.06-.02.12-.07.16-.1.07-.06.27-.06.28-.15.09-.06.26-.08.31-.18.01-.05.03-.09.04-.14,0-.06,0-.17-.02-.23,0-.04,0-.09,0-.13-.08-.36,0-.8-.06-1.24,0-.04.01-.08.02-.12-.02-.12-.03-.24-.05-.37.02-.05-.03-.51-.03-.53.12-.09.19-.14.29-.22,0-.01,0-.03.01-.04.15-.13.32-.21.44-.38.04-.06.19-.15.2-.23,0,0,0,.02,0,.02.03,0,.06-.04.05-.07.04,0,.29-.27.32-.32.01-.02.02,0,0-.02.01-.02,0-.01.02,0,0-.02,0,0,0-.02.08-.08.16-.13.23-.21.04-.04.06-.1.11-.13,0-.02,0,0-.01-.01.06-.03.21-.17.23-.24,0-.01-.02-.03,0-.05.02,0,.04-.01.06-.02.02-.02.09-.12.1-.15.02-.04.02-.11.06-.15.04-.04.15-.16.17-.21.18.01.38,0,.52.03.15.03.34-.04.48,0,0-.01,0,0,0-.01.05.01.11,0,.14.02.01-.01.03-.03.06-.02.12.03.44.04.46.07,0,0,.01-.02.02-.03.15.05.3,0,.48.01.04,0,.08-.02.12-.03.11-.02.23-.02.28.06.07,0,.08-.07.09-.11.05-.01.1,0,.13-.01,0,0,.12-.25.14-.29.12-.2.2-.42.32-.58.04-.06.11-.27.15-.29,0,0-.01-.02-.02-.02.05-.06.07-.12.1-.22,0-.01,0-.03,0-.04.02-.02.03-.03.05-.05.05-.11.07-.22.11-.32.02-.05.07-.1.09-.15.03-.07.06-.22.07-.27v-.03s.04-.09.06-.14v-.07c.03-.1.06-.19.09-.29.02-.04.17-.42.15-.46-.02-.05-.05-.06-.08-.09h0Z"/>
  <path class="cls-4" d="m53.44,40.51s-.01.05-.02.08c0,.12-.03.34-.07.43-.01.03-.01.11-.02.14-.02.08-.05.17-.08.26-.09.24-.16.46-.28.68,0,.02-.01.04-.02.05,0,0-.02.02-.02.03,0,.01,0,.02,0,.03-.07.11-.14.23-.2.33-.02.03,0,.04-.02.07-.01.02-.04.04-.05.05-.02.02-.03.06-.04.07-.01.02-.04.03-.05.05-.03.04-.06.1-.09.13,0,0-.03.01-.03.01-.06.08-.11.14-.18.22-.04.05-.14.09-.15.15,0,0,0,0-.02,0h0s-.21.21-.21.22c0,0,0,0,0,0h0s0-.01,0-.01c-.02.06-.13.12-.15.17,0,0,0,0,0-.01,0,0,0,.01-.02,0,0,0,0,.02,0,.03-.03.03-.17.13-.2.13,0,0,0,0,0,0-.24.22-.51.33-.83.48-.04.02-.19.05-.19.05-.02.02-.08.03-.1.04-.07.04-.15.07-.21.11-.04.03-.1.02-.15.03.01,0-.09.03-.1.03,0,0-.16,0-.18.01-.02,0-.1.04-.11.03,0,0,0,0-.01,0,0,0-.15.02-.19.04-.06.02-.13.03-.19.04-.01,0-.04-.02-.05-.01-.04.01-.09.02-.13.01-.06-.01-.11-.02-.17,0,0,0,0,0,0,0-.08,0-.21,0-.26-.02-.04,0-.08,0-.13,0-.09-.02-.3-.03-.39-.06-.05-.02-.15,0-.19-.04-.01,0,0,0-.02,0-.02-.02-.09-.03-.11-.03-.01,0-.02-.02-.03-.03,0,0-.04,0-.06,0-.11-.04-.22-.08-.33-.14,0,0-.05-.02-.07-.02,0,0,0,0,0-.01,0,0-.01,0-.02,0,0,0,0,0,0,0-.12,0-.25-.09-.39-.14-.14-.05-.27-.13-.4-.21-.06-.03-.1-.09-.16-.13-.16-.1-.3-.19-.43-.31-.09-.08-.16-.15-.23-.23-.02-.02-.08-.08-.08-.09-.03,0-.06-.07-.09-.09-.08-.06-.14-.14-.2-.24-.02-.02-.04-.04-.06-.06,0-.02-.02-.04-.03-.06-.03-.05-.08-.09-.11-.14-.02-.03-.02-.07-.05-.11-.02-.04-.06-.07-.09-.1-.05-.07-.09-.14-.14-.21-.07-.12-.12-.31-.19-.44-.03-.06-.07-.12-.1-.19-.04-.09-.06-.21-.09-.3-.03-.09-.02-.18-.05-.25,0-.03,0-.07,0-.1-.03-.12-.01-.24-.03-.34,0-.06,0-.11-.01-.17,0-.03,0-.06,0-.09-.02-.07-.03-.15-.02-.22,0-.07.02-.13.03-.2,0-.05,0-.13,0-.19,0-.02.02-.05.01-.09-.02-.11.03-.21.05-.32,0-.03,0-.05,0-.08.04-.09.03-.18.07-.29.01-.03.04-.07.05-.11.05-.14.09-.27.16-.39,0,0,.07-.21.07-.23.02-.05.07-.1.1-.14.02-.05.04-.1.06-.15.05-.1.12-.2.18-.29.01-.02,0-.04.02-.06.02-.03.05-.06.07-.1,0-.01,0-.03.02-.05.02-.03.07-.05.09-.09.11-.16.23-.31.35-.45.07-.07.15-.12.22-.19.05-.05.09-.1.14-.14,0,0,0,0,0-.01.04-.05.06-.11.12-.15.07-.04.12-.09.18-.13.06-.03.11-.06.17-.1.02-.02.11-.04.1-.07.03,0,.14-.05.15-.08,0,0,0,0,0,0,.03-.03.12-.06.13-.1,0,0,0,0,.01.01.05-.02.1-.03.13-.06,0-.01.18-.07.2-.09,0,.01.09-.02.09-.03.02,0,.11,0,.13-.03.02,0,.07,0,.12-.01.12-.04.26-.07.38-.09,0,0,0,0,0-.01.01,0,.03.01.04,0,0,0,0,0,0-.01,0,0,0,0,0,0,.02,0,.1,0,.12-.02.01,0,.02,0,.04,0,.02,0,.03-.02.05-.02,0,0,0,0,0,0,.05-.02.13,0,.18-.01.07-.02.18-.02.27-.04.07-.01.14.02.2-.01.03.02.26.03.28.01.02,0,0,0,.02.02,0,0,.02,0,.02,0,.06,0,.13.02.19.03.01,0,.17,0,.2,0,.22.05.44.09.64.16.03.01.1.01.13.02.06.03.13.06.19.09.03.01.05,0,.08.03.01,0,0,0,.02,0,.03.04.13.06.19.08.04.02.12.05.16.09,0,0,.01.02.03.03.01,0,.03.02.04.02,0,0,0,0,.01,0,.06.07.21.12.3.17.06.03.13.09.18.13.01.01.03.03.04.04.06.03.11.1.17.14.06.04.11.08.17.13.06.05.12.13.17.19.05.05.12.09.16.15.02.02.03.06.05.08.11.1.24.26.33.41.03.04.03.08.06.12.01.01.04.03.05.04.01.02.02.08.04.1,0,0,.02,0,.02,0v.03s.03.03.04.05c0,.02.01.04.02.06.1.1.12.28.21.39,0,.02,0,.04.01.06,0,0,0,0,.01,0,0,0,.01.05.01.06,0,0,0,0,.01,0,0,0,0,.02,0,.03,0,.01.02.02.03.03.01.03,0,.06.03.08,0,.04.02.07.02.11.03.04.05.09.07.14.03.1.04.2.07.28-.01.04.01.1.02.15v.06c.02.1.03.22.05.31,0,.07,0,.14,0,.21.02.06.01.2.02.28,0,.06.01.16,0,.24,0,.03.01.09,0,.12h0Zm3.31,1.53c-.08-.11-.15-.14-.25-.23-.04-.04-.07-.1-.1-.13-.03-.03-.06-.06-.09-.09-.02-.02-.06-.03-.08-.06-.03-.05-.06-.1-.11-.13-.03-.02-.07-.04-.1-.07-.08-.07-.16-.15-.24-.21-.05-.04-.09-.06-.13-.11,0,0,0,0,0,0-.03,0-.06-.05-.07-.07,0-.03.02-.12.02-.17,0-.05,0-.12,0-.18.02-.06,0-.16.02-.23,0-.02,0-.05.01-.07,0-.04-.02-.08,0-.12.02-.06,0-.17.01-.21.02-.06.02-.23,0-.3,0-.06-.03-.27-.03-.29-.04-.07-.05-.3-.05-.37.05-.03.1-.1.13-.14,0,0,.02,0,.02,0,.03-.02.06-.07.07-.09h.02s.08-.08.12-.11c.06-.06.11-.12.17-.18.1-.09.21-.18.29-.29.05-.06.14-.13.2-.17.01,0,.04-.02.05-.03.02-.03,0-.07,0-.09,0,0,0,0,0,0,0,0,0,0-.01-.01,0-.02,0-.02.02-.02.03-.06-.08-.3-.1-.35-.02-.05-.01-.14-.04-.19,0,0,0,0-.01-.01,0-.03-.01-.05-.02-.08,0-.05-.06-.18-.09-.23-.03-.05-.04-.12-.07-.18-.03-.07-.08-.14-.11-.2-.03-.05-.03-.11-.05-.15-.03-.05-.08-.09-.11-.14-.05-.09-.1-.17-.15-.24-.02-.03-.06-.03-.08-.06-.02,0-.02-.02-.02-.04-.06-.05-.16-.03-.22-.03,0,0,0,0,0,0-.06.01-.16,0-.23,0-.04,0-.16,0-.16,0-.01.01-.3.04-.38.04-.08,0-.12-.02-.17,0-.08.01-.28.05-.33.03-.02.01-.11,0-.12,0-.01,0-.03-.02-.04-.04,0,0,0,0,0,0-.06-.06-.08-.11-.13-.18-.03-.04-.07-.06-.1-.1-.05-.06-.1-.12-.15-.18-.01-.02-.02-.04-.04-.06-.08-.07-.15-.15-.21-.23-.06-.08-.2-.16-.28-.23-.04-.03-.07-.08-.11-.11-.05-.04-.1-.07-.14-.12,0,0-.05-.03-.06-.04-.06-.05-.11-.1-.17-.15-.02-.02,0-.24,0-.27v-.12c0-.1,0-.21,0-.31.01-.15,0-.35,0-.51.01-.13.04-.26,0-.39-.04,0-.08-.05-.12-.07-.05-.02-.08-.03-.13-.05-.07-.03-.13-.08-.2-.11-.09-.04-.15-.05-.24-.09-.01,0-.15-.05-.17-.07-.02.02-.22-.08-.23-.09-.05-.03-.26-.07-.28-.11,0,0-.01,0-.02,0-.03-.02-.13-.05-.15-.05,0,0,0,0,0,0-.03-.02-.24-.05-.25-.09-.03,0-.09,0-.12.02-.11.06-.18.17-.28.24-.18.14-.36.33-.49.51-.06.06-.12.11-.18.17-.02.01-.04.02-.05.03-.05.05-.11.11-.17.15-.04.03-.13,0-.21,0-.02,0-.15-.01-.19-.03,0,0-.13,0-.17,0-.01,0-.13-.02-.13-.02-.03.03-.17,0-.22,0,0,0-.11,0-.11,0-.02,0-.04,0-.07-.01-.09.01-.18,0-.26.03-.02,0-.15,0-.18.01-.02,0-.04.02-.06.03-.04,0-.08,0-.12,0-.12.03-.24.03-.31.03-.01,0-.02,0-.02-.02,0,0,0,0-.01,0,0,0-.13-.12-.16-.15,0,0-.04-.07-.05-.06,0,0,0,0,0,0-.04-.05-.09-.09-.13-.14,0,0-.04-.03-.04-.04,0-.04-.12-.11-.16-.16-.02-.02-.02-.04-.03-.06-.02-.01-.03-.02-.05-.03-.03-.02-.05-.06-.07-.08-.02-.02-.03-.05-.05-.07-.05-.04-.12-.1-.15-.15-.01,0-.02,0-.03-.01-.02-.02-.03-.04-.06-.05,0-.02,0-.04-.01-.06-.01,0-.03-.02-.04-.02-.05,0-.08.03-.11.04-.05.02-.09,0-.15.03-.04.01-.07.04-.11.05-.02,0-.2.05-.22.07-.01,0-.03.03-.05.02-.04,0-.11.03-.15.06,0,0,0,0,0,0-.04,0-.11.04-.14.07-.02.02-.13.04-.17.05-.05.02-.1.05-.14.09,0,0-.14.06-.15.07-.02,0-.04,0-.06.01-.08.07-.22.1-.3.18,0,0-.07.02-.08.04,0,0-.02,0-.02,0,0,.01,0,0,0,.02-.01,0-.02.02-.03.03,0,.03,0,.14,0,.17.01,0,0,.08,0,.1,0,.02,0,.04,0,.06,0,.02.03.17.02.21,0,.02,0,.05,0,.07,0,.05.02.11.03.16.01.06,0,.13,0,.19,0,.03,0,.05,0,.08.01.04.03.14.03.18,0,.11.04.38,0,.47-.01.02-.05.03-.07.05-.05.03-.08.08-.13.11-.08.05-.16.14-.22.21,0,.02-.01.03-.02.05-.04.03-.1.05-.12.07h0s-.04.03-.05.05c0,0,0,.02-.01.03-.03.03-.06.05-.08.09,0,0-.01,0-.02,0h0s-.02.05-.05.05c0,0,0,0,0,0-.02,0-.06.06-.08.08-.03.03-.05.07-.08.11-.04.05-.14.09-.15.17,0,0,0,0-.01,0-.03.03-.19.26-.2.3,0,0,0,0,0,0,0,0,0,0,0,.01-.09.08-.18.02-.31.05-.06.01-.17.03-.23.02-.05,0-.1,0-.15,0-.06.01-.11,0-.15,0-.11,0-.21,0-.27,0-.1-.02-.18,0-.25,0-.03,0-.12-.02-.13,0-.05.02-.12,0-.16.02-.09.06-.11.21-.17.31-.12.19-.2.39-.29.61-.03.08-.04.16-.07.25-.02.07-.06.14-.09.2,0,.01,0,.04,0,.05-.04.06-.07.2-.09.27v.07c-.02.06-.09.14-.09.21.05.04.08.1.12.15.13.12.25.23.39.34.02.01.03.04.05.06.01.02.04.02.05.03.04.04.06.08.11.11.04.03.07.07.11.09.01,0,.03,0,.04.02,0,0,0,0,0,.01.03.03.06.08.1.11.03.02.06.03.09.05.03.02.04.05.06.07.03.02.08.03.09.06.01.01,0,.1-.01.13-.02.08-.03.19-.05.29,0,.04,0,.1,0,.13,0,0,0,0,.02.01-.01.05,0,.11-.03.15,0,0,0,0,.01,0,0,.02,0,.05,0,.07,0,.03,0,.03.02.04,0,.01,0,.01-.02.02.01.03,0,.1.01.13,0,0,0,0-.01,0,0,.06.01.27.04.31-.02.02.02.23.03.27,0,0-.01,0-.02,0,0,0,0,.02.01.02,0,0,0,0,0,0,0,.05,0,.08.02.12-.02.04,0,.14,0,.18-.01,0-.15.16-.15.17-.01.01-.06.03-.05.06,0,0-.05.03-.05.03-.02.02-.04.05-.06.07-.03.02-.06.03-.08.06-.06.07-.1.15-.17.2-.07.05-.15.1-.2.17,0,0,0,0,0,0-.03,0-.14.14-.17.17-.06.05-.17.14-.2.21-.01.03.03.2.04.23h0s.03.13.05.16c0,.02.03.11.04.12,0,0,0,.01,0,.02,0,.02.03.13.03.15.02.06.08.13.06.18,0,0,.01,0,.02,0,.01.03.02.07.05.08,0,0,0,0-.01,0,0,0,0,.02,0,.02.01,0,0,0,.01,0,0,0,.07.16.07.17,0,0,0,0,0,0,0,.02.04.04.04.05.02.04.03.11.06.15.01.02.04.04.05.07.01,0,0,0,.01,0h0s.03.06.04.08c0,0,.03.09.03.09.05.09.1.18.15.27.01.02.06.13.08.13.04.02.1,0,.15.01.08.03.23,0,.31,0,.02,0,.08.02.11,0l.02-.02s.09,0,.11-.01c.04,0,.12,0,.15,0,.06.02.17-.01.23-.02.04,0,.04,0,.07-.01.03.02.06,0,.09.01,0,0,0,0,0-.01.03.03.07,0,.11,0,.08.02.19-.01.29,0,.05.08.11.15.17.22.03.05.06.09.09.14.04.04.08.08.11.12.05.07.11.15.17.21,0,0,0,0,0,0,.02.03.06.05.09.08.03.02.04.07.08.09.07.05.14.12.21.16.01.02.02.03.04.05.07.05.12.11.19.16.08.06.18.1.23.18-.02.07-.02.32,0,.38-.01.03-.02.08-.01.11,0,.04.03.12.02.15,0,.02,0,.1,0,.1,0,.03,0,.06.01.08-.02.07,0,.16-.02.23-.03.18,0,.33-.02.5.02.03.04.03.07.04.02.02.03.03.05.05.03.02.07.05.11.06.02.01.04,0,.06.02.06.05.17.08.24.11.01,0,.04,0,.04,0,.12.09.31.12.43.2h0s.02,0,.02.01c0,0,.02,0,.02,0,0,0,0,.02.01.02.06.04.12.02.17.07.01,0,0,0,.01,0,.03.03.08.05.12.04,0,.01,0,0-.01.01h0s.01,0,.02,0c0,0,0,0,0,.01.06.03.13.05.19.08,0,0,.05,0,.05,0,.08.04.31.1.42.06,0,0,0-.04,0-.04.01,0,.02,0,.04,0,.03-.02.03-.05.06-.07.06-.04.1-.11.15-.16.04-.04.08-.06.13-.09.07-.05.14-.15.2-.22.02-.02.04-.02.06-.03.01-.01.02-.03.03-.04.03-.03.07-.04.09-.07.07-.07.12-.15.18-.23.04-.06.16-.14.18-.2.04-.03.15,0,.21.02.02,0,.03,0,.04,0,.01,0,.04.02.06.02.17-.02.39.02.57.02.01,0,0,0,.01,0,0,0,.32,0,.38,0,.05-.01.11.03.15-.01.15.03.33-.05.53-.05.04.06.11.11.15.17.07.1.15.2.25.27.02.02.03.04.05.06.06.06.11.12.17.18.01.01.07.07.09.07,0,0,.02,0,.03,0,0,0,0,0,0,.01.02.03.08.09.11.12.04.03.1.06.13.11.03.04.08.1.12.12.04.02.07-.02.11-.02.02,0,.03-.02.04-.02.07-.02.14-.03.2-.05,0,0,0,0,0-.01,0,0,0,0,0,.01.03-.02.1-.05.14-.04,0,0,0,0,0-.01.03,0,.1,0,.12-.04.01,0,.02,0,.04,0,0-.01,0,0,0-.01,0,0,0,.01.02,0,.03,0,.07-.04.1-.06.03-.02.08-.01.12-.03.09-.05.19-.08.28-.13.04-.02.12-.04.15-.05.01,0,.03-.03.03-.03,0,0,.04,0,.05,0,.03-.01.07-.04.1-.06.04-.03.16-.04.17-.09.05-.04.15-.05.19-.11,0-.03.02-.06.03-.08,0-.04,0-.1-.01-.14,0-.03,0-.05,0-.08-.05-.21,0-.48-.03-.74,0-.02,0-.05.01-.07,0-.07-.02-.15-.03-.22.01-.03-.02-.31-.02-.32.07-.05.12-.08.17-.13,0,0,0-.02,0-.02.09-.08.19-.13.26-.23.03-.04.11-.09.12-.14,0,0,0,0,0,.01.02,0,.04-.03.03-.04.02,0,.17-.16.19-.19,0,0,0,0,0-.01,0-.01,0,0,.01,0,0-.01,0,0,0-.01.05-.05.1-.08.14-.13.02-.03.03-.06.07-.08,0-.01,0,0,0,0,.04-.02.12-.1.14-.15,0,0-.01-.02,0-.03.01,0,.02,0,.03-.01.01-.01.05-.07.06-.09.01-.02.01-.07.03-.09.02-.03.09-.1.1-.13.11,0,.23,0,.31.02.09.02.2-.02.29,0,0,0,0,0,0,0,.03,0,.06,0,.09.01,0,0,.02-.02.04-.01.07.02.26.03.28.04,0,0,0-.01.01-.02.09.03.18,0,.29,0,.02,0,.05-.01.07-.02.07-.01.14,0,.17.04.04,0,.05-.04.05-.07.03,0,.06,0,.08,0,0,0,.07-.15.09-.17.07-.12.12-.25.19-.35.02-.03.07-.16.09-.17,0,0,0,0-.01-.01.03-.03.04-.07.06-.13,0,0,0-.02,0-.02,0,0,.02-.02.03-.03.03-.06.04-.13.07-.19.01-.03.04-.06.05-.09.02-.04.04-.13.04-.16v-.02s.03-.05.04-.08v-.04c.02-.06.03-.12.05-.17.01-.03.1-.25.09-.27-.01-.03-.03-.04-.05-.05h0Z"/>
  <path class="cls-3" d="m38.07,23.21c-.01.05-.02.1-.03.15.01.24-.05.67-.13.84-.03.06-.03.22-.04.28-.05.16-.1.33-.16.52-.17.48-.31.9-.55,1.34-.01.04-.02.07-.03.11-.01.02-.03.03-.04.05,0,.02,0,.04,0,.07-.13.22-.28.46-.39.65-.04.06,0,.08-.03.13-.02.04-.09.07-.1.09-.03.03-.07.11-.08.14-.02.04-.07.06-.1.09-.06.09-.11.19-.18.25,0,0-.06.02-.06.02-.12.17-.22.28-.36.44-.08.09-.28.19-.3.3-.01,0-.01,0-.03.01v.03s-.41.39-.42.41c0,0-.01,0-.02.01v-.02h-.01c-.05.12-.26.23-.29.33,0,0,0-.02,0-.03-.02.02-.02.02-.04.02,0,.02-.01.04-.02.06-.05.06-.34.26-.39.26,0,0,0,0,.01.01-.47.43-.99.65-1.63.95-.08.04-.38.11-.38.11-.03.04-.15.05-.19.07-.15.08-.29.14-.42.22-.07.05-.2.03-.29.07.02,0-.17.06-.2.06-.01,0-.32.02-.35.03-.03.01-.19.07-.22.06-.01-.01,0,0-.02,0-.01,0-.3.04-.38.07-.11.05-.25.06-.38.08-.02-.01-.08-.04-.11-.03-.08.02-.18.04-.25.02-.11-.03-.22-.04-.34-.02,0,0,0-.01.01-.02-.15,0-.41,0-.51-.03-.08,0-.16.01-.25.02-.18-.05-.6-.07-.76-.11-.11-.03-.3-.02-.38-.08-.02,0-.01,0-.03.02-.03-.04-.18-.05-.22-.07-.02-.02-.04-.03-.07-.05-.02,0-.09,0-.12-.01-.21-.09-.43-.15-.65-.28,0,0-.11-.04-.13-.04,0-.02,0,0,0-.03-.01,0-.02,0-.03,0-.01,0-.01,0-.01-.02-.23,0-.48-.19-.76-.28-.28-.09-.52-.25-.79-.4-.11-.06-.2-.18-.31-.25-.32-.2-.6-.37-.84-.61-.17-.16-.31-.29-.45-.45-.03-.04-.16-.16-.16-.19-.05,0-.12-.13-.17-.17-.15-.11-.27-.28-.39-.48-.04-.04-.07-.08-.11-.12-.02-.04-.03-.08-.05-.12-.07-.09-.15-.19-.22-.28-.04-.05-.05-.14-.09-.21-.05-.08-.12-.13-.17-.2-.1-.14-.18-.27-.27-.42-.14-.23-.23-.6-.37-.87-.06-.12-.15-.24-.2-.37-.07-.18-.11-.41-.17-.59-.06-.17-.05-.35-.1-.5,0-.07,0-.13-.01-.2-.06-.23-.03-.47-.06-.67,0-.11-.02-.22-.03-.33,0-.06,0-.11,0-.17-.04-.13-.06-.3-.04-.43.02-.13.04-.26.06-.39.02-.1,0-.26.02-.37,0-.04.04-.11.02-.17-.04-.21.05-.42.1-.63,0-.05,0-.1.01-.16.08-.18.07-.36.14-.57.02-.07.07-.14.1-.21.1-.27.18-.54.31-.76-.01-.02.13-.42.15-.46.05-.11.13-.19.19-.28.04-.1.08-.2.12-.3.1-.19.25-.39.36-.56.03-.04.01-.08.04-.12.05-.07.11-.12.15-.19.02-.03.02-.07.04-.1.04-.06.13-.1.17-.17.22-.32.45-.62.69-.89.13-.15.29-.23.43-.37.09-.09.19-.19.28-.28-.02-.01,0-.02,0-.02.09-.1.12-.22.24-.29.14-.07.23-.17.35-.25.11-.07.23-.12.33-.19.05-.04.21-.07.2-.13.06-.01.27-.1.29-.16,0,0,0,.01.01.02.06-.05.24-.12.25-.19,0,0,.01.01.02.02.1-.04.19-.06.26-.12,0-.02.35-.13.39-.19.01.02.17-.04.17-.07.03.01.22,0,.25-.06.04-.01.14.01.24-.02.23-.08.5-.14.74-.17,0,0,0-.02-.01-.03.02,0,.05.02.08.01.02-.01.01,0,.01-.03.02,0,0,0,.01.02.04,0,.19-.02.24-.04.02,0,.05,0,.07.01.04-.01.06-.04.11-.04,0,0,0,.01-.01.02.11-.03.25,0,.35-.02.14-.04.35-.05.52-.08.14-.03.28.04.39-.02.06.04.51.05.56.02.03,0,.02.02.03.03.01,0,.03,0,.04,0,.13.02.25.03.38.05.02-.01.33,0,.4.01.43.09.86.17,1.25.31.07.02.21.02.25.04.12.05.25.12.37.17.05.02.11.01.16.06.02,0,.02,0,.03-.02.06.08.26.11.38.15.08.03.24.11.31.17.02.02.03.04.05.06.02.01.06.04.08.04,0,0,.02,0,.03-.01.13.13.41.23.58.34.11.07.25.17.35.26.03.03.05.06.08.08.12.07.22.19.34.28.11.08.22.16.33.25.11.09.23.25.34.37.09.1.24.18.32.3.03.05.06.12.1.16.21.2.47.51.64.8.05.08.07.16.12.23.02.03.08.07.09.08.03.04.04.16.08.19.02.01.04,0,.04.01v.05s.05.06.07.09c.01.04.03.08.04.12.2.2.24.54.41.78,0,.04.02.08.03.12,0,0,.02,0,.03.01,0,0,.02.1.03.11,0,0,.02,0,.03,0,0,.02,0,.04,0,.06.01.02.05.04.06.07.03.07,0,.11.05.16.01.07.03.15.04.22.05.07.1.18.13.27.07.19.09.4.14.55-.03.08.02.2.04.29v.12c.03.19.06.44.1.61,0,.14,0,.27.01.41.04.11.02.39.04.55.01.11.02.31,0,.48,0,.06.02.18,0,.23h0Zm6.5,3.01c-.15-.21-.29-.28-.5-.46-.08-.07-.13-.19-.2-.26-.06-.06-.12-.11-.19-.17-.04-.04-.13-.06-.16-.11-.06-.1-.12-.19-.21-.26-.07-.04-.13-.09-.2-.13-.15-.14-.31-.29-.47-.42-.1-.08-.18-.11-.26-.21,0-.02,0,0,0-.02-.05,0-.12-.09-.13-.13-.02-.05.03-.24.04-.33.01-.1-.01-.23.02-.35.03-.12.01-.32.04-.46,0-.05.01-.1.02-.15,0-.07-.03-.16-.01-.24.03-.13,0-.33.03-.42.04-.12.04-.46.02-.59-.02-.12-.05-.54-.07-.56-.07-.14-.11-.59-.1-.73.1-.06.19-.19.25-.27.01,0,.03,0,.04-.01.06-.04.11-.14.15-.18h.03c.08-.07.16-.15.24-.22.12-.11.22-.24.34-.35.19-.17.41-.35.58-.57.09-.12.27-.25.39-.34.03-.02.07-.03.1-.06.04-.05.02-.13.01-.17,0-.01,0,0,.02,0,0,0-.01-.02-.02-.03,0-.03,0-.04.03-.04.05-.11-.15-.59-.19-.69-.04-.1-.03-.27-.07-.37,0,0-.01-.02-.02-.03-.01-.05-.03-.1-.04-.16.01-.09-.12-.35-.19-.46-.06-.1-.08-.23-.13-.35-.06-.13-.16-.28-.22-.39-.05-.1-.05-.22-.11-.3-.06-.09-.15-.18-.21-.28-.11-.17-.19-.33-.3-.48-.04-.05-.12-.07-.15-.12-.04-.01-.04-.04-.04-.08-.12-.09-.32-.05-.43-.07,0,0,0,.01,0,.02-.12.02-.31,0-.46.02-.07,0-.31.01-.31.01-.03.02-.58.07-.75.08-.15,0-.23-.03-.34-.01-.17.03-.55.1-.64.07-.04.02-.21.01-.24,0-.03-.02-.06-.05-.07-.08,0,0,0-.01.01-.02-.13-.11-.15-.22-.26-.35-.06-.08-.14-.12-.2-.19-.11-.13-.19-.23-.3-.35-.02-.04-.05-.08-.07-.12-.15-.13-.3-.3-.42-.46-.12-.16-.39-.31-.55-.46-.07-.07-.13-.16-.21-.21-.1-.07-.2-.13-.28-.23,0,.02-.1-.06-.11-.07-.11-.1-.22-.19-.34-.29-.05-.03,0-.48,0-.53v-.24c0-.2,0-.41,0-.61.03-.3-.02-.68.01-.99.02-.25.08-.52.02-.78-.08-.01-.16-.09-.23-.13-.09-.05-.16-.05-.26-.1-.13-.06-.26-.16-.39-.21-.18-.08-.3-.09-.48-.19-.02.01-.3-.1-.34-.13-.03.04-.43-.15-.46-.17-.09-.07-.52-.14-.55-.22-.01,0-.02.01-.03.02-.06-.05-.25-.1-.29-.1,0,0,0,0,0-.01-.05-.04-.47-.11-.49-.17-.05,0-.18.02-.24.04-.21.11-.36.33-.55.47-.36.27-.7.65-.96,1.01-.12.11-.23.22-.35.34-.04.03-.09.04-.11.06-.1.1-.22.22-.33.3-.08.06-.26-.02-.4,0-.04,0-.3-.02-.38-.07,0,0-.26,0-.34-.01-.02,0-.26-.04-.26-.04-.07.05-.34.01-.44-.01-.01,0-.22.02-.22.02-.04,0-.09-.02-.13-.03-.17.02-.36,0-.52.07-.03-.02-.3,0-.36.02-.05.01-.07.04-.12.06-.08,0-.16,0-.24.01-.23.06-.46.06-.6.06-.02-.01-.03-.02-.03-.04,0,0-.01.01-.02.02,0-.02-.26-.23-.32-.3-.01-.01-.08-.13-.11-.12,0,.02,0,0-.01-.01-.08-.1-.17-.18-.25-.28,0,0-.09-.06-.08-.07-.01-.07-.24-.21-.31-.31-.03-.04-.04-.07-.06-.12-.03-.02-.06-.04-.1-.07-.05-.04-.1-.11-.14-.16-.03-.04-.07-.09-.1-.13-.1-.07-.23-.2-.29-.29-.02,0-.04-.01-.07-.02-.04-.03-.06-.08-.12-.1,0-.04-.01-.08-.02-.12-.03-.01-.05-.03-.08-.04-.09,0-.15.06-.22.08-.1.04-.17,0-.3.05-.07.02-.14.07-.22.1-.04-.01-.38.1-.44.13-.02.01-.05.05-.09.04-.08-.01-.21.06-.3.12,0,0,0,0-.01,0-.08,0-.22.08-.28.13-.04.03-.25.07-.33.1-.1.04-.21.1-.28.17-.02-.02-.27.12-.3.13-.04,0-.08.01-.12.02-.17.14-.43.2-.6.35-.01-.01-.13.04-.16.07-.01,0-.03-.01-.04-.02-.01.02,0,.02,0,.04-.02.02-.04.04-.06.06.01.05.02.27-.02.33.02.02.01.15.01.19,0,.04,0,.08,0,.12.01.03.05.34.04.41,0,.05,0,.1-.01.15.02.11.03.21.05.32.02.12-.01.25,0,.37,0,.05,0,.1,0,.16.03.08.06.28.06.35,0,.22.09.74-.02.92-.03.04-.1.06-.15.1-.09.06-.16.15-.25.21-.15.11-.32.28-.43.42-.01.03-.03.06-.04.09-.07.05-.19.1-.23.13v.03s-.07.04-.1.07c-.01.02-.01.04-.03.06-.05.06-.12.1-.15.17-.01,0-.02,0-.03,0v.03s-.04.07-.1.08c0,0,0,.01.01.02-.04,0-.12.12-.16.16-.06.05-.1.14-.16.21-.08.1-.28.18-.29.33,0,0-.01,0-.02,0-.06.07-.38.51-.39.59,0,0-.01,0-.02-.01,0,.01,0,0,0,.02-.18.16-.35.03-.6.09-.12.03-.34.07-.44.04-.1,0-.2-.01-.3-.02-.12.02-.22,0-.3,0-.21.02-.41.01-.53-.01-.2-.03-.35.02-.49,0-.06,0-.23-.03-.26-.02-.1.04-.24-.01-.32.04-.17.12-.22.42-.33.6-.23.38-.4.77-.58,1.2-.07.16-.07.31-.14.49-.05.13-.13.27-.17.39,0,.03,0,.08-.01.1-.08.11-.14.4-.19.54v.13c-.04.11-.18.27-.18.4.09.09.15.2.24.29.26.24.49.45.77.67.04.03.06.09.1.12.03.03.08.03.11.06.08.08.12.16.22.22.09.05.15.13.22.19.03.02.06.01.08.03-.01.01,0,.02.01.02.07.06.12.16.2.21.05.03.12.06.18.1.05.03.08.1.12.13.06.04.15.07.19.12.03.03-.01.19-.03.25-.04.15-.05.38-.09.57-.02.08.01.2-.01.26.01.02.01.02.03.03-.03.11-.01.21-.05.29,0,0,.01.01.02.02-.01.04,0,.09-.02.14,0,.06.01.05.04.08-.01.02,0,.02-.03.04.03.07,0,.19.03.26,0,0-.01.01-.02.02,0,.12.02.52.08.61-.04.04.03.46.05.52-.01,0-.02,0-.03.01,0,.01.01.03.02.04,0,0-.01,0-.02-.01-.01.09.02.15.04.24-.03.07,0,.27.02.35-.02.01-.29.31-.29.34-.02.03-.11.07-.1.11-.01.01-.09.06-.11.06-.05.04-.07.11-.12.15-.05.04-.12.07-.16.12-.11.13-.2.29-.33.39-.13.1-.29.21-.39.34,0,0,0,0,.01.01-.05,0-.27.28-.33.33-.11.11-.33.27-.39.42-.02.06.06.39.08.46h0s.06.25.09.31c-.01.03.05.21.08.23,0,.01,0,.03,0,.04,0,.03.05.26.06.3.04.12.15.25.11.35.01,0,.02,0,.03.01.02.06.04.14.1.16,0,0-.01,0-.02.01,0,.01,0,.03.01.04.02,0,0,0,.02,0,0,0,.13.31.13.33,0,0-.01,0-.02,0,.02.03.07.07.08.09.03.08.06.21.12.3.03.05.08.07.1.13.02,0,0,0,.02-.01h0c.01.07.05.11.08.16,0,0,.05.17.06.18.1.17.21.35.3.52.03.05.12.25.15.26.08.04.19-.01.29.02.16.05.46,0,.61-.02.05,0,.16.04.21.02l.03-.03s.18-.01.22-.02c.08-.02.24,0,.29.01.12.03.33-.03.46-.04.07,0,.09.01.13-.02.05.04.11.02.18.02,0,0,.01-.02.02-.03.06.06.14,0,.22.01.16.03.37-.02.56-.01.09.16.21.29.33.43.06.09.12.18.17.28.07.08.15.16.22.24.11.14.21.29.34.41.02,0,0,0,.02,0,.05.07.12.11.18.16.06.05.09.14.15.19.14.1.28.23.42.31.02.03.05.06.07.1.13.09.24.21.37.31.15.12.35.2.46.35-.04.15-.04.63,0,.75-.02.05-.04.16-.03.22.02.08.05.24.04.3,0,.03,0,.2,0,.2,0,.05.01.11.02.16-.03.14,0,.32-.03.46-.06.35-.01.65-.03.98.04.05.08.05.15.08.03.03.06.06.1.09.06.05.15.09.21.12.04.02.09.01.11.03.12.1.33.15.48.21.02,0,.07,0,.08.02.24.18.6.24.85.39h0s.03.02.04.02c0,0,.04-.02.04-.02.02,0,.01.03.02.04.12.09.24.04.33.13.02,0,.01,0,.02-.02.06.06.15.1.24.07,0,.03,0,.02-.02.03h0s.03,0,.04-.01c.02.02.01,0,.01.03.11.06.26.1.37.15.02,0,.11,0,.11,0,.16.08.6.2.82.12,0-.01,0-.08,0-.08.02,0,.05-.01.07-.02.05-.04.06-.1.12-.14.11-.08.19-.22.29-.31.08-.07.16-.12.25-.19.14-.1.27-.3.4-.44.03-.04.07-.03.11-.06.02-.03.04-.05.06-.08.06-.05.13-.08.19-.14.13-.14.24-.28.35-.44.08-.12.31-.27.36-.4.07-.05.3,0,.41.03.03,0,.07-.01.08,0,.03.01.08.04.11.04.34-.05.76.05,1.12.04.02,0,.02,0,.03-.02.01.01.62.01.75-.01.1-.02.21.05.3-.02.3.07.66-.1,1.05-.1.07.12.21.21.3.33.13.19.3.39.49.52.03.04.06.07.09.11.11.12.22.23.33.36.02.03.14.13.17.15.02,0,.03,0,.05.01,0,0,0,.01,0,.02.04.07.16.18.22.24.07.07.19.13.25.21.06.08.15.19.24.24.08.05.15-.03.21-.03.04,0,.06-.03.08-.04.13-.05.28-.05.4-.11.01-.01,0,0,.01-.03,0,0,.01.01.02.02.06-.05.2-.09.27-.08,0,0,0-.02,0-.03.05-.01.2,0,.24-.08.02,0,.04,0,.08-.01,0-.02-.01,0,0-.02.01.01,0,.02.04.01.06-.02.13-.08.2-.12.07-.04.16-.03.23-.07.18-.1.37-.15.55-.26.07-.05.24-.07.3-.1.02-.01.05-.05.07-.06.02,0,.07,0,.09-.01.07-.02.14-.08.19-.12.08-.07.31-.07.33-.17.1-.08.3-.09.37-.21.02-.05.03-.11.05-.16,0-.08-.01-.2-.02-.28,0-.05,0-.1,0-.15-.09-.42,0-.95-.07-1.46,0-.05.01-.09.02-.14-.02-.14-.04-.29-.06-.43.02-.06-.03-.6-.04-.62.14-.1.23-.16.34-.26,0-.01.01-.03.02-.04.17-.15.38-.25.52-.44.05-.07.22-.18.23-.27,0,0,0,.02,0,.03.04-.01.07-.05.06-.08.05,0,.34-.32.38-.38.01-.02.02,0,0-.02.01-.03,0-.02.03-.01,0-.02,0,0,0-.02.09-.09.19-.15.27-.25.04-.05.07-.12.13-.15-.01-.02,0,0-.02-.02.07-.04.24-.2.28-.29,0-.02-.02-.04,0-.06.02,0,.04-.01.07-.02.03-.03.1-.14.12-.18.03-.05.02-.13.07-.17.05-.05.17-.19.2-.25.21.02.45,0,.62.04.17.03.4-.04.56.01.01-.01,0,0,0-.02.06.02.13,0,.17.03.02-.01.04-.03.07-.02.14.03.51.05.55.08,0-.01.01-.02.02-.03.17.06.35,0,.56.02.05-.01.09-.02.14-.03.13-.03.28-.02.33.07.08,0,.09-.09.11-.13.06-.02.11,0,.16-.02.01,0,.14-.3.17-.34.14-.24.24-.49.38-.69.05-.07.13-.32.17-.34,0,0-.01-.02-.02-.03.06-.07.09-.14.12-.26,0-.01,0-.03-.01-.04.02-.02.04-.04.06-.06.06-.12.08-.26.13-.38.03-.05.08-.12.1-.18.03-.08.07-.26.08-.32v-.03s.05-.11.07-.16v-.08c.03-.11.07-.23.1-.34.02-.05.19-.49.18-.54-.02-.06-.06-.07-.09-.11h0Z"/>
  <path class="cls-2" d="m38.13,45.17s0,.03,0,.04c0,.07-.01.18-.04.23,0,.02,0,.06-.01.08-.01.04-.03.09-.04.14-.05.13-.08.25-.15.37,0,0,0,.02,0,.03,0,0,0,0-.01.01,0,0,0,.01,0,.02-.04.06-.08.13-.11.18,0,.02,0,.02,0,.04,0,.01-.02.02-.03.02,0,0-.02.03-.02.04,0,0-.02.02-.03.02-.02.02-.03.05-.05.07,0,0-.02,0-.02,0-.03.05-.06.08-.1.12-.02.02-.08.05-.08.08,0,0,0,0,0,0h0s-.11.11-.12.12c0,0,0,0,0,0h0s0,0,0,0c-.01.03-.07.06-.08.09,0,0,0,0,0,0,0,0,0,0-.01,0,0,0,0,.01,0,.02-.01.02-.09.07-.11.07,0,0,0,0,0,0-.13.12-.27.18-.45.26-.02.01-.1.03-.1.03,0,.01-.04.01-.05.02-.04.02-.08.04-.11.06-.02.01-.05,0-.08.02,0,0-.05.02-.06.02,0,0-.09,0-.1,0,0,0-.05.02-.06.02,0,0,0,0,0,0,0,0-.08.01-.1.02-.03.01-.07.02-.1.02,0,0-.02,0-.03,0-.02,0-.05.01-.07,0-.03,0-.06-.01-.09,0,0,0,0,0,0,0-.04,0-.11,0-.14,0-.02,0-.05,0-.07,0-.05-.01-.16-.02-.21-.03-.03,0-.08,0-.1-.02,0,0,0,0,0,0,0-.01-.05-.01-.06-.02,0,0-.01,0-.02-.01,0,0-.02,0-.03,0-.06-.02-.12-.04-.18-.08,0,0-.03-.01-.04-.01,0,0,0,0,0,0,0,0,0,0,0,0,0,0,0,0,0,0-.06,0-.13-.05-.21-.08-.08-.03-.14-.07-.22-.11-.03-.02-.06-.05-.08-.07-.09-.05-.16-.1-.23-.17-.05-.04-.09-.08-.12-.12,0,0-.04-.04-.04-.05-.01,0-.03-.04-.05-.05-.04-.03-.07-.08-.11-.13-.01-.01-.02-.02-.03-.03,0-.01,0-.02-.01-.03-.02-.03-.04-.05-.06-.08-.01-.01-.01-.04-.02-.06-.01-.02-.03-.04-.05-.05-.03-.04-.05-.07-.07-.11-.04-.06-.06-.16-.1-.24-.02-.03-.04-.07-.05-.1-.02-.05-.03-.11-.05-.16-.02-.05-.01-.1-.03-.14,0-.02,0-.04,0-.06-.02-.06,0-.13-.02-.18,0-.03,0-.06,0-.09,0-.02,0-.03,0-.05-.01-.04-.02-.08-.01-.12,0-.04.01-.07.02-.11,0-.03,0-.07,0-.1,0-.01,0-.03,0-.05-.01-.06.01-.11.03-.17,0-.01,0-.03,0-.04.02-.05.02-.1.04-.16,0-.02.02-.04.03-.06.03-.07.05-.15.08-.21,0,0,.04-.11.04-.12.01-.03.04-.05.05-.08.01-.03.02-.05.03-.08.03-.05.07-.11.1-.15,0-.01,0-.02.01-.03.01-.02.03-.03.04-.05,0,0,0-.02.01-.03.01-.02.04-.03.05-.05.06-.09.12-.17.19-.24.03-.04.08-.06.12-.1.03-.03.05-.05.08-.08,0,0,0,0,0,0,.02-.03.03-.06.07-.08.04-.02.06-.05.1-.07.03-.02.06-.03.09-.05.01,0,.06-.02.05-.04.02,0,.07-.03.08-.04,0,0,0,0,0,0,.02-.01.06-.03.07-.05,0,0,0,0,0,0,.03-.01.05-.02.07-.03,0,0,.1-.04.11-.05,0,0,.05-.01.05-.02,0,0,.06,0,.07-.02.01,0,.04,0,.06,0,.06-.02.14-.04.2-.05,0,0,0,0,0,0,0,0,.01,0,.02,0,0,0,0,0,0,0,0,0,0,0,0,0,.01,0,.05,0,.06-.01,0,0,.01,0,.02,0,.01,0,.02-.01.03-.01,0,0,0,0,0,0,.03,0,.07,0,.1,0,.04-.01.1-.01.14-.02.04,0,.08,0,.11,0,.02.01.14.01.15,0,0,0,0,0,0,0,0,0,0,0,.01,0,.03,0,.07,0,.1.01,0,0,.09,0,.11,0,.12.03.23.05.34.09.02,0,.06,0,.07.01.03.01.07.03.1.05.01,0,.03,0,.04.02,0,0,0,0,0,0,.02.02.07.03.1.04.02,0,.07.03.09.05,0,0,0,.01.01.02,0,0,.02.01.02.01,0,0,0,0,0,0,.03.04.11.06.16.09.03.02.07.05.1.07,0,0,.01.02.02.02.03.02.06.05.09.08.03.02.06.04.09.07.03.02.06.07.09.1.03.03.07.05.09.08,0,.01.02.03.03.04.06.05.13.14.18.22.01.02.02.04.03.06,0,0,.02.02.02.02,0,.01.01.04.02.05,0,0,0,0,.01,0h0s.01.03.02.04c0,.01,0,.02.01.03.05.05.07.15.11.21,0,.01,0,.02,0,.03,0,0,0,0,0,0,0,0,0,.03,0,.03,0,0,0,0,0,0,0,0,0,.01,0,.02,0,0,.01.01.02.02,0,.02,0,.03.01.04,0,.02,0,.04.01.06.01.02.03.05.04.07.02.05.02.11.04.15,0,.02,0,.05.01.08v.03c0,.05.02.12.03.17,0,.04,0,.07,0,.11.01.03,0,.11.01.15,0,.03,0,.08,0,.13,0,.02,0,.05,0,.06h0Zm1.78.82c-.04-.06-.08-.08-.14-.12-.02-.02-.04-.05-.06-.07-.02-.02-.03-.03-.05-.05-.01-.01-.03-.02-.04-.03-.02-.03-.03-.05-.06-.07-.02-.01-.04-.02-.06-.04-.04-.04-.09-.08-.13-.11-.03-.02-.05-.03-.07-.06,0,0,0,0,0,0-.01,0-.03-.02-.04-.04,0-.01,0-.07.01-.09,0-.03,0-.06,0-.1,0-.03,0-.09.01-.12,0-.01,0-.03,0-.04,0-.02,0-.04,0-.07,0-.03,0-.09,0-.12.01-.03.01-.13,0-.16,0-.03-.01-.15-.02-.15-.02-.04-.03-.16-.03-.2.03-.02.05-.05.07-.07,0,0,0,0,.01,0,.02-.01.03-.04.04-.05h0s.04-.04.06-.06c.03-.03.06-.07.09-.1.05-.05.11-.1.16-.16.03-.03.07-.07.11-.09,0,0,.02,0,.03-.02.01-.01,0-.03,0-.05,0,0,0,0,0,0,0,0,0,0,0,0,0,0,0,0,0-.01.01-.03-.04-.16-.05-.19-.01-.03,0-.07-.02-.1,0,0,0,0,0,0,0-.01,0-.03-.01-.04,0-.03-.03-.09-.05-.13-.02-.03-.02-.06-.04-.1-.02-.04-.04-.08-.06-.11-.01-.03-.01-.06-.03-.08-.02-.03-.04-.05-.06-.08-.03-.05-.05-.09-.08-.13-.01-.02-.03-.02-.04-.03-.01,0-.01-.01-.01-.02-.03-.02-.09-.01-.12-.02,0,0,0,0,0,0-.03,0-.08,0-.12,0-.02,0-.09,0-.09,0,0,0-.16.02-.2.02-.04,0-.06,0-.09,0-.05,0-.15.03-.18.02-.01,0-.06,0-.07,0,0,0-.02-.01-.02-.02,0,0,0,0,0,0-.03-.03-.04-.06-.07-.1-.02-.02-.04-.03-.06-.05-.03-.03-.05-.06-.08-.1,0-.01-.01-.02-.02-.03-.04-.04-.08-.08-.11-.12-.03-.04-.11-.09-.15-.12-.02-.02-.04-.04-.06-.06-.03-.02-.06-.04-.08-.06,0,0-.03-.02-.03-.02-.03-.03-.06-.05-.09-.08-.01,0,0-.13,0-.15v-.06c0-.06,0-.11,0-.17,0-.08,0-.19,0-.27,0-.07.02-.14,0-.21-.02,0-.04-.03-.06-.04-.03-.01-.04-.01-.07-.03-.04-.02-.07-.04-.11-.06-.05-.02-.08-.03-.13-.05,0,0-.08-.03-.09-.04,0,0-.12-.04-.12-.05-.02-.02-.14-.04-.15-.06,0,0,0,0,0,0-.02-.01-.07-.03-.08-.03,0,0,0,0,0,0-.01-.01-.13-.03-.14-.05-.01,0-.05,0-.06.01-.06.03-.1.09-.15.13-.1.07-.19.18-.26.28-.03.03-.06.06-.1.09-.01,0-.02.01-.03.02-.03.03-.06.06-.09.08-.02.02-.07,0-.11,0-.01,0-.08,0-.1-.02,0,0-.07,0-.09,0,0,0-.07-.01-.07-.01-.02.01-.09,0-.12,0,0,0-.06,0-.06,0-.01,0-.02,0-.04,0-.05,0-.1,0-.14.02,0,0-.08,0-.1,0-.01,0-.02.01-.03.02-.02,0-.04,0-.07,0-.06.02-.13.02-.16.02,0,0,0,0,0-.01,0,0,0,0,0,0,0,0-.07-.06-.09-.08,0,0-.02-.04-.03-.03,0,0,0,0,0,0-.02-.03-.05-.05-.07-.08,0,0-.02-.02-.02-.02,0-.02-.07-.06-.08-.08,0-.01,0-.02-.02-.03,0,0-.02-.01-.03-.02-.01-.01-.03-.03-.04-.04,0-.01-.02-.02-.03-.04-.03-.02-.06-.06-.08-.08,0,0-.01,0-.02,0-.01,0-.02-.02-.03-.03,0-.01,0-.02,0-.03,0,0-.01,0-.02-.01-.03,0-.04.02-.06.02-.03.01-.05,0-.08.01-.02,0-.04.02-.06.03-.01,0-.11.03-.12.04,0,0-.01.01-.02.01-.02,0-.06.02-.08.03,0,0,0,0,0,0-.02,0-.06.02-.08.04-.01,0-.07.02-.09.03-.03.01-.06.03-.08.05,0,0-.08.03-.08.04-.01,0-.02,0-.03,0-.05.04-.12.06-.16.1,0,0-.04.01-.04.02,0,0,0,0-.01,0,0,0,0,0,0,.01,0,0-.01.01-.02.02,0,.01,0,.07,0,.09,0,0,0,.04,0,.05,0,.01,0,.02,0,.03,0,0,.01.09.01.11,0,.01,0,.03,0,.04,0,.03,0,.06.01.09,0,.03,0,.07,0,.1,0,.01,0,.03,0,.04,0,.02.02.08.02.1,0,.06.02.2,0,.25,0,.01-.03.02-.04.03-.02.02-.04.04-.07.06-.04.03-.09.08-.12.12,0,0,0,.02-.01.02-.02.01-.05.03-.06.04h0s-.02.02-.03.03c0,0,0,.01,0,.02-.01.02-.03.03-.04.05,0,0,0,0,0,0h0s-.01.03-.03.03c0,0,0,0,0,0-.01,0-.03.03-.04.04-.02.01-.03.04-.04.06-.02.03-.08.05-.08.09,0,0,0,0,0,0-.02.02-.1.14-.11.16,0,0,0,0,0,0,0,0,0,0,0,0-.05.04-.1,0-.16.02-.03,0-.09.02-.12.01-.03,0-.05,0-.08,0-.03,0-.06,0-.08,0-.06,0-.11,0-.15,0-.06,0-.09,0-.14,0-.02,0-.06,0-.07,0-.03.01-.07,0-.09.01-.05.03-.06.11-.09.16-.06.1-.11.21-.16.33-.02.04-.02.08-.04.13-.01.04-.03.07-.05.11,0,0,0,.02,0,.03-.02.03-.04.11-.05.15v.04s-.05.07-.05.11c.02.02.04.06.07.08.07.07.13.12.21.18.01,0,.02.02.03.03,0,0,.02,0,.03.02.02.02.03.04.06.06.02.01.04.04.06.05,0,0,.02,0,.02,0,0,0,0,0,0,0,.02.02.03.04.05.06.01,0,.03.02.05.03.01,0,.02.03.03.04.02.01.04.02.05.03,0,0,0,.05,0,.07-.01.04-.01.1-.02.16,0,.02,0,.06,0,.07,0,0,0,0,0,0,0,.03,0,.06-.01.08,0,0,0,0,0,0,0,.01,0,.03,0,.04,0,.02,0,.01.01.02,0,0,0,0,0,.01,0,.02,0,.05,0,.07,0,0,0,0,0,0,0,.03,0,.14.02.17,0,.01,0,.12.01.14,0,0,0,0,0,0,0,0,0,0,0,.01,0,0,0,0,0,0,0,.03,0,.04.01.06,0,.02,0,.07,0,.1,0,0-.08.08-.08.09,0,0-.03.02-.03.03,0,0-.02.02-.03.02-.01.01-.02.03-.03.04-.01.01-.03.02-.04.03-.03.03-.05.08-.09.11-.04.03-.08.06-.11.09,0,0,0,0,0,0-.01,0-.07.08-.09.09-.03.03-.09.07-.11.11,0,.02.02.11.02.12h0s.02.07.02.09c0,0,.01.06.02.06,0,0,0,0,0,.01,0,0,.01.07.02.08,0,.03.04.07.03.1,0,0,0,0,0,0,0,.02,0,.04.03.04,0,0,0,0,0,0,0,0,0,0,0,.01,0,0,0,0,0,0,0,0,.03.08.04.09,0,0,0,0,0,0,0,0,.02.02.02.02,0,.02.02.06.03.08,0,.01.02.02.03.04,0,0,0,0,0,0h0s.01.03.02.04c0,0,.01.05.02.05.03.05.06.1.08.14,0,.01.03.07.04.07.02.01.05,0,.08,0,.04.01.13,0,.17,0,.01,0,.04,0,.06,0h0s.05-.01.06-.02c.02,0,.07,0,.08,0,.03,0,.09,0,.13-.01.02,0,.02,0,.04,0,.01,0,.03,0,.05,0,0,0,0,0,0,0,.02.02.04,0,.06,0,.04,0,.1,0,.15,0,.03.04.06.08.09.12.02.03.03.05.05.08.02.02.04.04.06.06.03.04.06.08.09.11,0,0,0,0,0,0,.01.02.03.03.05.04.02.01.02.04.04.05.04.03.08.06.12.09,0,0,.01.02.02.03.03.03.07.06.1.08.04.03.09.06.13.1-.01.04-.01.17,0,.2,0,.01-.01.04,0,.06,0,.02.01.06.01.08,0,0,0,.05,0,.05,0,.01,0,.03,0,.04,0,.04,0,.09,0,.12-.02.09,0,.18,0,.27.01.02.02.01.04.02,0,0,.02.02.03.02.02.01.04.02.06.03.01,0,.02,0,.03,0,.03.03.09.04.13.06,0,0,.02,0,.02,0,.07.05.16.07.23.11h0s0,0,.01,0c0,0,.01,0,.01,0,0,0,0,0,0,.01.03.02.07.01.09.04,0,0,0,0,0,0,.02.02.04.03.06.02,0,0,0,0,0,0h0s0,0,.01,0c0,0,0,0,0,0,.03.02.07.03.1.04,0,0,.03,0,.03,0,.05.02.16.05.22.03,0,0,0-.02,0-.02,0,0,.01,0,.02,0,.01-.01.02-.03.03-.04.03-.02.05-.06.08-.08.02-.02.04-.03.07-.05.04-.03.08-.08.11-.12,0,0,.02,0,.03-.02,0,0,.01-.01.02-.02.02-.01.04-.02.05-.04.04-.04.07-.08.1-.12.02-.03.08-.07.1-.11.02-.01.08,0,.11,0,0,0,.02,0,.02,0,0,0,.02.01.03.01.09-.01.21.01.31.01,0,0,0,0,0,0,0,0,.17,0,.2,0,.03,0,.06.01.08,0,.08.02.18-.03.29-.03.02.03.06.06.08.09.04.05.08.11.14.14,0,.01.02.02.02.03.03.03.06.06.09.1,0,0,.04.04.05.04,0,0,0,0,.01,0,0,0,0,0,0,0,.01.02.04.05.06.06.02.02.05.03.07.06.02.02.04.05.06.07.02.01.04,0,.06,0,.01,0,.02,0,.02-.01.04-.01.08-.01.11-.03,0,0,0,0,0,0,0,0,0,0,0,0,.02-.01.05-.02.07-.02,0,0,0,0,0,0,.01,0,.06,0,.07-.02,0,0,.01,0,.02,0,0,0,0,0,0,0,0,0,0,0,.01,0,.02,0,.04-.02.05-.03.02,0,.04,0,.06-.02.05-.03.1-.04.15-.07.02-.01.07-.02.08-.03,0,0,.01-.01.02-.02,0,0,.02,0,.02,0,.02,0,.04-.02.05-.03.02-.02.09-.02.09-.05.03-.02.08-.03.1-.06,0-.01,0-.03.01-.04,0-.02,0-.05,0-.08,0-.01,0-.03,0-.04-.03-.11,0-.26-.02-.4,0-.01,0-.03,0-.04,0-.04-.01-.08-.02-.12,0-.02,0-.16-.01-.17.04-.03.06-.04.09-.07,0,0,0,0,0-.01.05-.04.1-.07.14-.12.01-.02.06-.05.06-.07,0,0,0,0,0,0,.01,0,.02-.01.02-.02.01,0,.09-.09.1-.1,0,0,0,0,0,0,0,0,0,0,0,0,0,0,0,0,0,0,.02-.03.05-.04.07-.07.01-.01.02-.03.04-.04,0,0,0,0,0,0,.02-.01.07-.06.08-.08,0,0,0-.01,0-.02,0,0,.01,0,.02,0,0,0,.03-.04.03-.05,0-.01,0-.04.02-.05.01-.01.05-.05.05-.07.06,0,.12,0,.17.01.05,0,.11-.01.15,0,0,0,0,0,0,0,.02,0,.03,0,.05,0,0,0,.01,0,.02,0,.04,0,.14.01.15.02,0,0,0,0,0,0,.05.02.1,0,.15,0,.01,0,.03,0,.04,0,.03,0,.08,0,.09.02.02,0,.02-.02.03-.04.02,0,.03,0,.04,0,0,0,.04-.08.05-.09.04-.06.07-.13.1-.19.01-.02.04-.09.05-.09,0,0,0,0,0,0,.02-.02.02-.04.03-.07,0,0,0,0,0-.01,0,0,.01-.01.02-.02.02-.03.02-.07.04-.1,0-.01.02-.03.03-.05,0-.02.02-.07.02-.09h0s.02-.04.02-.05v-.02s.02-.06.03-.09c0-.01.05-.13.05-.15,0-.02-.02-.02-.02-.03h0Z"/>
  <path class="cls-2" d="m70.97,24.41s-.02.07-.02.1c0,.16-.03.45-.09.57-.02.04-.02.15-.03.19-.03.11-.07.23-.11.35-.12.33-.21.61-.37.91,0,.02-.02.05-.02.07-.01.01-.02.02-.03.03,0,.02,0,.03,0,.05-.09.15-.19.31-.27.44-.02.04,0,.06-.02.09-.02.03-.06.05-.07.06-.02.02-.05.08-.06.1-.01.02-.05.04-.06.06-.04.06-.08.13-.12.17,0,0-.04.02-.04.02-.08.11-.15.19-.24.3-.05.06-.19.13-.21.21,0,0,0,0-.02,0v.02s-.28.26-.29.28c0,0,0,0-.01,0v-.02h0c-.03.08-.18.16-.19.22,0,0,0-.01,0-.02-.01.01-.01.01-.03.01,0,.01,0,.03-.01.04-.03.04-.23.18-.27.18,0,0,0,0,0,0-.32.29-.67.44-1.11.65-.05.03-.26.07-.26.07-.02.03-.1.03-.13.05-.1.05-.2.09-.28.15-.05.03-.13.02-.19.05.02,0-.12.04-.14.04,0,0-.22.01-.24.02-.02,0-.13.05-.15.04,0-.01,0,0-.02,0,0,0-.21.03-.26.05-.08.03-.17.04-.26.06-.02,0-.06-.02-.07-.02-.05.02-.12.03-.17.02-.07-.02-.15-.03-.23-.01,0,0,0,0,0-.01-.1,0-.28,0-.34-.02-.06,0-.11,0-.17.01-.12-.03-.41-.04-.52-.08-.07-.02-.2-.01-.26-.06-.02,0,0,0-.02.01-.02-.03-.12-.03-.15-.05-.02-.01-.03-.02-.05-.03-.01,0-.06,0-.08,0-.14-.06-.29-.1-.44-.19,0,0-.07-.03-.09-.03,0-.01,0,0,0-.02,0,0-.02,0-.02,0,0,0,0,0,0-.01-.16,0-.33-.13-.52-.19-.19-.06-.36-.17-.53-.27-.07-.04-.14-.12-.21-.17-.22-.13-.41-.25-.57-.41-.12-.11-.21-.2-.31-.31-.02-.02-.11-.11-.11-.13-.04,0-.08-.09-.11-.11-.1-.08-.18-.19-.27-.32-.03-.03-.05-.05-.08-.08-.01-.03-.02-.05-.03-.08-.05-.06-.1-.13-.15-.19-.02-.04-.03-.1-.06-.14-.03-.05-.08-.09-.11-.13-.07-.09-.12-.18-.18-.28-.1-.15-.16-.41-.25-.59-.04-.08-.1-.16-.13-.25-.05-.13-.08-.28-.12-.4-.04-.12-.03-.24-.07-.34,0-.05,0-.09,0-.14-.04-.16-.02-.32-.04-.45,0-.08-.01-.15-.02-.23,0-.04,0-.08,0-.11-.03-.09-.04-.2-.03-.29.01-.09.03-.18.04-.27.01-.07,0-.18.01-.25,0-.03.02-.07.02-.12-.03-.14.03-.28.07-.43,0-.04,0-.07,0-.11.05-.13.05-.25.1-.39.02-.05.05-.1.06-.15.07-.19.12-.36.21-.52,0-.01.09-.28.1-.31.03-.07.09-.13.13-.19.03-.07.06-.13.08-.2.07-.13.17-.27.24-.38.02-.03,0-.06.03-.08.03-.05.07-.08.1-.13.01-.02.01-.05.03-.07.03-.04.09-.07.12-.11.15-.21.3-.42.47-.61.09-.1.2-.16.29-.25.06-.06.13-.13.19-.19-.01,0,0-.01,0-.02.06-.07.08-.15.16-.19.09-.05.16-.12.24-.17.08-.05.15-.08.22-.13.03-.02.14-.05.13-.09.04,0,.18-.07.2-.11,0,0,0,0,0,.01.04-.03.16-.08.17-.13,0,0,.01.01.02.02.07-.03.13-.04.18-.08,0-.01.24-.09.27-.13,0,.02.12-.03.12-.05.02,0,.15,0,.17-.04.03,0,.09,0,.16-.02.16-.05.34-.09.5-.11,0,0,0-.01,0-.02.02,0,.04.01.06,0,.01,0,0,0,0-.02.01,0,0,0,0,.01.03,0,.13-.01.16-.03.02,0,.03,0,.05,0,.03,0,.04-.03.07-.03,0,0,0,0,0,.01.07-.02.17,0,.24-.02.1-.03.24-.03.36-.06.09-.02.19.02.26-.02.04.03.34.04.38.02.02,0,.01.01.02.02.01,0,.02,0,.03,0,.09.01.17.02.26.03.02,0,.22,0,.27,0,.29.06.58.12.85.21.05.02.14.02.17.03.08.04.17.08.25.11.04.01.07,0,.11.04.02,0,.01,0,.02-.01.04.05.18.07.26.1.06.02.17.07.21.11.01.01.02.03.03.04.02,0,.04.03.05.03,0,0,.01,0,.02,0,.09.09.28.16.4.23.08.05.17.11.24.18.02.02.04.04.05.06.08.05.15.13.23.19.08.05.15.11.22.17.07.06.16.17.23.25.06.07.17.12.22.2.02.03.04.08.07.11.14.13.32.35.44.54.03.05.05.11.08.16.01.02.05.05.06.06.02.03.03.11.05.13.01,0,.02,0,.03,0v.03s.04.04.05.06c0,.03.02.05.03.08.13.13.17.37.28.53,0,.03.01.05.02.08,0,0,.01,0,.02,0,0,0,.01.07.02.08,0,0,.01,0,.02,0,0,.01,0,.03,0,.04,0,.01.03.03.04.05.02.04,0,.07.03.11.01.05.02.1.03.15.04.05.07.12.09.18.05.13.06.27.1.37-.02.05.02.13.03.2v.08c.02.13.04.3.07.42,0,.09,0,.19,0,.28.03.07.01.27.03.37,0,.08.02.21,0,.32,0,.04.01.12,0,.16h0Zm4.41,2.05c-.1-.15-.2-.19-.34-.31-.06-.05-.09-.13-.14-.18-.04-.04-.08-.08-.13-.11-.03-.03-.09-.04-.11-.08-.04-.07-.08-.13-.14-.18-.05-.03-.09-.06-.14-.09-.1-.09-.21-.2-.32-.28-.07-.05-.12-.08-.18-.14,0-.01,0,0,0-.01-.04,0-.08-.06-.09-.09-.01-.04.02-.17.03-.22,0-.07-.01-.16.01-.24.02-.08,0-.22.03-.31,0-.03.01-.07.02-.1,0-.05-.02-.11,0-.16.02-.09,0-.22.02-.29.03-.08.03-.31.01-.4-.01-.08-.04-.36-.05-.38-.05-.1-.07-.4-.06-.49.07-.04.13-.13.17-.18.01,0,.02,0,.03,0,.04-.03.08-.09.1-.12h.02c.05-.05.11-.1.16-.15.08-.07.15-.16.23-.24.13-.12.28-.24.39-.39.06-.08.18-.17.27-.23.02-.01.05-.02.06-.04.03-.03.01-.09,0-.11,0,0,0,0,.01,0,0,0-.01-.01-.02-.02,0-.02,0-.02.02-.03.03-.08-.1-.4-.13-.47-.03-.07-.02-.18-.05-.25,0,0-.01-.01-.02-.02,0-.04-.02-.07-.03-.11,0-.06-.08-.24-.13-.31-.04-.07-.05-.16-.09-.24-.04-.09-.11-.19-.15-.27-.04-.07-.04-.15-.07-.21-.04-.06-.1-.12-.15-.19-.07-.11-.13-.22-.2-.32-.03-.04-.08-.05-.1-.08-.03,0-.03-.03-.03-.06-.08-.06-.22-.03-.29-.05,0,0,0,0,0,.01-.08.01-.21,0-.31.01-.05,0-.21,0-.21,0-.02.01-.4.05-.51.06-.1,0-.15-.02-.23,0-.11.02-.37.07-.44.05-.03.02-.14,0-.16,0-.02-.01-.04-.03-.05-.06,0,0,0,0,0-.01-.09-.08-.1-.15-.18-.24-.04-.05-.09-.08-.14-.13-.07-.09-.13-.16-.21-.24-.02-.03-.03-.05-.05-.08-.1-.09-.2-.2-.28-.31-.08-.11-.27-.21-.37-.31-.05-.04-.09-.11-.15-.15-.07-.05-.14-.09-.19-.16,0,.01-.07-.04-.08-.05-.08-.07-.15-.13-.23-.2-.03-.02,0-.33,0-.36v-.16c0-.14,0-.28,0-.42.02-.21-.01-.46,0-.68.01-.17.05-.35.01-.53-.06,0-.11-.06-.16-.09-.06-.03-.11-.03-.18-.06-.09-.04-.18-.11-.27-.15-.12-.05-.2-.06-.32-.13-.02.01-.2-.07-.23-.09-.02.02-.29-.1-.31-.12-.06-.05-.35-.09-.37-.15,0,0-.02,0-.02.01-.04-.03-.17-.07-.2-.07,0,0,0,0,0,0-.03-.03-.32-.07-.34-.12-.04,0-.12.01-.16.03-.15.08-.25.23-.37.32-.24.18-.48.44-.65.68-.08.08-.16.15-.24.23-.02.02-.06.03-.07.04-.07.07-.15.15-.22.2-.05.04-.18-.01-.27,0-.03,0-.2-.01-.26-.05,0,0-.17,0-.23,0-.02,0-.18-.03-.18-.03-.05.04-.23,0-.3,0,0,0-.15.01-.15.01-.03,0-.06-.01-.09-.02-.12.01-.24,0-.35.05-.02-.01-.2,0-.24.02-.03,0-.05.03-.08.04-.05,0-.11,0-.16,0-.16.04-.32.04-.41.04-.01,0-.02-.01-.02-.03,0,0-.01,0-.02.01,0-.01-.18-.15-.22-.2,0,0-.06-.09-.07-.08,0,.01,0,0,0,0-.05-.07-.12-.12-.17-.19,0,0-.06-.04-.05-.05,0-.05-.17-.14-.21-.21-.02-.03-.02-.05-.04-.08-.02-.02-.04-.03-.06-.05-.04-.03-.06-.07-.1-.11-.02-.03-.05-.06-.07-.09-.07-.05-.16-.14-.2-.2-.02,0-.03-.01-.05-.02-.03-.02-.04-.05-.08-.06,0-.03-.01-.06-.02-.08-.02-.01-.04-.02-.05-.03-.06,0-.1.04-.15.06-.07.03-.12,0-.2.03-.05.02-.1.05-.15.07-.03,0-.26.07-.3.09-.02,0-.03.03-.06.03-.05,0-.14.04-.21.08,0,0,0,0,0,0-.06,0-.15.05-.19.09-.03.02-.17.05-.23.07-.07.03-.14.07-.19.12-.01-.01-.19.08-.21.09-.03,0-.05.01-.08.02-.11.1-.29.14-.4.24,0,0-.09.03-.11.05-.01,0-.02,0-.03-.01,0,.02,0,.01,0,.03-.01.01-.03.03-.04.04,0,.04.01.19-.01.23.02.01,0,.1,0,.13,0,.03,0,.05,0,.08,0,.02.03.23.03.28,0,.03,0,.07,0,.1.01.07.02.15.03.22.02.08,0,.17,0,.25,0,.04,0,.07,0,.11.02.06.04.19.04.24,0,.15.06.5-.01.62-.02.03-.07.04-.1.06-.06.04-.11.1-.17.15-.1.07-.22.19-.29.29,0,.02-.02.04-.03.06-.05.04-.13.07-.16.09v.02s-.05.03-.06.05c0,.01,0,.03-.02.04-.03.04-.08.07-.1.12,0,0-.02,0-.02,0v.02s-.03.05-.06.05c0,0,0,0,0,.01-.03,0-.08.08-.11.11-.04.04-.07.09-.11.15-.06.07-.19.12-.2.22,0,0-.01,0-.02,0-.04.05-.26.35-.26.4,0,0,0,0-.01,0,0,0,0,0,0,.02-.12.11-.24.02-.41.06-.08.02-.23.04-.3.03-.07,0-.13,0-.2-.01-.08.02-.15,0-.21,0-.14.01-.28,0-.36,0-.14-.02-.24.01-.34,0-.04,0-.16-.02-.18-.01-.07.03-.16,0-.22.03-.12.08-.15.28-.22.41-.15.26-.27.52-.39.81-.05.11-.05.21-.1.33-.03.09-.09.18-.11.26,0,.02,0,.06,0,.06-.05.08-.1.27-.13.37v.09c-.03.08-.12.18-.12.27.06.06.1.14.16.19.18.17.33.31.52.45.03.02.04.06.06.08.02.02.05.02.07.04.05.05.08.11.15.15.06.04.1.09.15.13.02.01.04,0,.05.02,0,0,0,.01,0,.02.05.04.08.11.13.14.04.02.08.04.12.07.03.02.05.07.08.09.04.03.1.05.13.08.02.02,0,.13-.02.17-.03.1-.03.26-.06.39-.01.05,0,.14,0,.18,0,.01,0,.01.02.02-.02.07,0,.14-.03.2,0,0,.01,0,.02.01,0,.03,0,.06-.01.1,0,.04,0,.04.03.05,0,.01,0,.02-.02.03.02.05,0,.13.02.18,0,0-.01,0-.02.01,0,.08.02.35.06.42-.02.03.02.31.03.36,0,0-.02,0-.02,0,0,.01.01.02.02.03,0,0,0,0-.01,0,0,.06.01.1.03.16-.02.05,0,.18.01.24-.02,0-.2.21-.2.23-.02.02-.08.04-.06.08,0,0-.06.04-.07.04-.03.03-.05.07-.08.1-.04.03-.08.05-.11.08-.08.09-.13.19-.23.26-.09.07-.2.14-.26.23,0,0,0,0,0,0-.03,0-.18.19-.23.23-.08.07-.22.19-.26.28-.02.04.04.27.06.31h0s.04.17.06.21c-.01.02.04.14.06.16,0,0,0,.02,0,.03,0,.02.03.18.04.2.02.08.1.17.08.24,0,0,.02,0,.02,0,.02.04.02.1.06.11,0,0-.01,0-.02,0,0,.01,0,.02,0,.03.01,0,0,0,.02,0,0,0,.09.21.09.23,0,0,0,0-.01,0,.01.02.05.05.05.06.02.05.04.14.08.2.02.03.05.05.06.09.01,0,0,0,.02,0h0s.03.08.05.11c0,0,.04.12.04.12.07.11.14.24.21.36.02.03.08.17.1.18.06.03.13,0,.2.02.11.04.31,0,.42-.01.03,0,.11.02.15.01l.02-.02s.12,0,.15-.02c.05-.01.17,0,.19,0,.08.02.22-.02.31-.03.05,0,.06,0,.09-.02.04.02.08.01.12.02,0,0,0-.01.01-.02.04.04.09,0,.15,0,.11.02.25-.01.38,0,.06.11.14.2.22.29.04.06.08.12.12.19.05.05.1.11.15.16.07.09.14.2.23.28.01,0,0,0,.01,0,.03.05.08.07.12.11.04.03.06.1.1.13.1.07.19.15.29.21.02.02.03.04.05.06.09.06.16.14.25.21.1.08.24.14.31.24-.03.1-.03.43,0,.51-.02.03-.03.11-.02.15.01.05.03.16.03.2,0,.02,0,.13,0,.13,0,.04.01.07.02.11-.02.09,0,.22-.02.31-.04.23,0,.44-.02.67.03.04.06.03.1.06.02.02.04.04.06.06.04.03.1.06.14.08.03.01.06,0,.08.02.08.07.22.1.32.15.01,0,.05,0,.06.01.16.12.41.16.58.26h0s.02.01.03.02c0,0,.03-.01.03-.01.01,0,0,.02.02.03.08.06.17.03.22.09.02,0,0,0,.02-.01.04.04.11.07.16.05,0,.02,0,.01-.02.02h0s.02,0,.03,0c.01.01,0,0,0,.02.08.04.17.07.25.1.01,0,.07,0,.07,0,.11.05.41.14.56.08,0,0,0-.05,0-.05.02,0,.03,0,.05-.01.03-.03.04-.07.08-.1.08-.06.13-.15.2-.21.05-.05.11-.08.17-.13.1-.07.19-.2.27-.3.02-.02.05-.02.08-.04.01-.02.03-.04.04-.05.04-.04.09-.06.13-.1.09-.1.16-.19.24-.3.06-.08.21-.18.24-.27.05-.04.21,0,.28.02.02,0,.05,0,.06,0,.02,0,.06.03.08.03.23-.03.52.03.76.03.02,0,.01,0,.02-.01,0,0,.42,0,.51,0,.07-.01.14.04.2-.02.2.04.45-.07.71-.07.05.08.15.14.2.23.09.13.2.27.34.36.02.03.04.05.06.08.07.08.15.15.22.24.01.02.09.09.11.1.01,0,.02,0,.03,0,0,0,0,.01,0,.02.03.04.11.12.15.16.05.05.13.09.17.14.04.06.1.13.16.16.05.03.1-.02.14-.02.03,0,.04-.02.06-.03.09-.03.19-.04.27-.07,0,0,0,0,0-.02,0,0,0,.01.01.02.04-.03.13-.06.18-.06,0,0,0-.01,0-.02.04,0,.14,0,.16-.06.01,0,.03,0,.05,0,0-.02,0,0,0-.02,0,0,0,.01.03,0,.04-.01.09-.06.13-.08.04-.02.11-.02.16-.05.12-.07.25-.1.37-.18.05-.03.16-.05.21-.07.02,0,.03-.04.05-.04.01,0,.05,0,.06,0,.05-.01.09-.05.13-.08.06-.04.21-.05.23-.12.07-.05.21-.06.25-.14.01-.04.02-.07.03-.11,0-.05,0-.14-.02-.19,0-.03,0-.07,0-.1-.06-.29,0-.64-.05-.99,0-.03.01-.06.02-.1-.01-.1-.03-.2-.04-.29.02-.04-.02-.41-.03-.42.09-.07.16-.11.23-.18,0-.01,0-.02.01-.03.12-.1.26-.17.35-.3.03-.05.15-.12.16-.18,0,0,0,.01,0,.02.03,0,.05-.03.04-.05.03,0,.23-.22.26-.26,0-.01.01,0,0-.02,0-.02,0-.01.02,0,0-.01,0,0,0-.02.06-.06.13-.1.18-.17.03-.03.05-.08.09-.1,0-.01,0,0-.01-.01.05-.03.16-.14.19-.19,0-.01-.01-.03,0-.04.02,0,.03-.01.05-.02.02-.02.07-.1.08-.12.02-.03.02-.09.05-.12.03-.04.12-.13.13-.17.14.01.3,0,.42.03.12.02.27-.03.38,0,0,0,0,0,0-.01.04.01.09,0,.11.02.01,0,.03-.02.05-.02.1.02.35.04.37.05,0,0,.01-.02.02-.02.12.04.24,0,.38.01.03,0,.06-.02.1-.02.09-.02.19-.01.23.05.06,0,.06-.06.07-.09.04-.01.08,0,.11-.01,0,0,.1-.2.11-.23.1-.16.16-.33.26-.47.03-.05.09-.22.12-.23,0,0-.01-.01-.02-.02.04-.05.06-.1.08-.18,0-.01,0-.02,0-.03.01-.01.03-.03.04-.04.04-.08.05-.17.09-.26.02-.04.05-.08.07-.12.02-.05.05-.18.05-.22v-.02s.03-.07.05-.11v-.06c.02-.08.05-.16.07-.23.01-.04.13-.33.12-.37-.01-.04-.04-.05-.06-.07h0Z"/>
  <path class="cls-4" d="m53.54,8.25s-.01.05-.02.08c0,.12-.03.34-.07.43-.01.03-.01.11-.02.14-.02.08-.05.17-.08.26-.09.24-.16.46-.28.68,0,.02-.01.04-.02.05,0,0-.02.02-.02.03,0,.01,0,.02,0,.03-.07.11-.14.23-.2.33-.02.03,0,.04-.02.07-.01.02-.04.04-.05.05-.02.02-.03.06-.04.07-.01.02-.04.03-.05.05-.03.04-.06.1-.09.13,0,0-.03.01-.03.01-.06.08-.11.14-.18.22-.04.05-.14.09-.15.15,0,0,0,0-.02,0h0s-.21.21-.21.22c0,0,0,0,0,0h0s0-.01,0-.01c-.02.06-.13.12-.15.17,0,0,0,0,0-.01,0,0,0,.01-.02,0,0,0,0,.02,0,.03-.03.03-.17.13-.2.13,0,0,0,0,0,0-.24.22-.51.33-.83.48-.04.02-.19.05-.19.05-.02.02-.08.03-.1.04-.07.04-.15.07-.21.11-.04.03-.1.02-.15.03.01,0-.09.03-.1.03,0,0-.16,0-.18.01-.02,0-.1.04-.11.03,0,0,0,0-.01,0,0,0-.15.02-.19.04-.06.02-.13.03-.19.04-.01,0-.04-.02-.05-.01-.04.01-.09.02-.13.01-.06-.01-.11-.02-.17,0,0,0,0,0,0,0-.08,0-.21,0-.26-.02-.04,0-.08,0-.13,0-.09-.02-.3-.03-.39-.06-.05-.02-.15,0-.19-.04-.01,0,0,0-.02,0-.02-.02-.09-.03-.11-.03-.01,0-.02-.02-.03-.03,0,0-.04,0-.06,0-.11-.04-.22-.08-.33-.14,0,0-.05-.02-.07-.02,0,0,0,0,0-.01,0,0-.01,0-.02,0,0,0,0,0,0,0-.12,0-.25-.09-.39-.14-.14-.05-.27-.13-.4-.21-.06-.03-.1-.09-.16-.13-.16-.1-.3-.19-.43-.31-.09-.08-.16-.15-.23-.23-.02-.02-.08-.08-.08-.09-.03,0-.06-.07-.09-.09-.08-.06-.14-.14-.2-.24-.02-.02-.04-.04-.06-.06,0-.02-.02-.04-.03-.06-.03-.05-.08-.09-.11-.14-.02-.03-.02-.07-.05-.11-.02-.04-.06-.07-.09-.1-.05-.07-.09-.14-.14-.21-.07-.12-.12-.31-.19-.44-.03-.06-.07-.12-.1-.19-.04-.09-.06-.21-.09-.3-.03-.09-.02-.18-.05-.25,0-.03,0-.07,0-.1-.03-.12-.01-.24-.03-.34,0-.06,0-.11-.01-.17,0-.03,0-.06,0-.09-.02-.07-.03-.15-.02-.22,0-.07.02-.13.03-.2,0-.05,0-.13,0-.19,0-.02.02-.05.01-.09-.02-.11.03-.21.05-.32,0-.03,0-.05,0-.08.04-.09.03-.18.07-.29.01-.03.04-.07.05-.11.05-.14.09-.27.16-.39,0,0,.07-.21.07-.23.02-.05.07-.1.1-.14.02-.05.04-.1.06-.15.05-.1.12-.2.18-.29.01-.02,0-.04.02-.06.02-.03.05-.06.07-.1,0-.01,0-.03.02-.05.02-.03.07-.05.09-.09.11-.16.23-.31.35-.45.07-.07.15-.12.22-.19.05-.05.09-.1.14-.14,0,0,0,0,0-.01.04-.05.06-.11.12-.15.07-.04.12-.09.18-.13.06-.03.11-.06.17-.1.02-.02.11-.04.1-.07.03,0,.14-.05.15-.08,0,0,0,0,0,0,.03-.03.12-.06.13-.1,0,0,0,0,.01.01.05-.02.1-.03.13-.06,0-.01.18-.07.2-.09,0,.01.09-.02.09-.03.02,0,.11,0,.13-.03.02,0,.07,0,.12-.01.12-.04.26-.07.38-.09,0,0,0,0,0-.01.01,0,.03.01.04,0,0,0,0,0,0-.01,0,0,0,0,0,0,.02,0,.1,0,.12-.02.01,0,.02,0,.04,0,.02,0,.03-.02.05-.02,0,0,0,0,0,0,.05-.02.13,0,.18-.01.07-.02.18-.02.27-.04.07-.01.14.02.2-.01.03.02.26.03.28.01.02,0,0,0,.02.02,0,0,.02,0,.02,0,.06,0,.13.02.19.03.01,0,.17,0,.2,0,.22.05.44.09.64.16.03.01.1.01.13.02.06.03.13.06.19.09.03.01.05,0,.08.03.01,0,0,0,.02,0,.03.04.13.06.19.08.04.02.12.05.16.09,0,0,.01.02.03.03.01,0,.03.02.04.02,0,0,0,0,.01,0,.06.07.21.12.3.17.06.03.13.09.18.13.01.01.03.03.04.04.06.03.11.1.17.14.06.04.11.08.17.13.06.05.12.13.17.19.05.05.12.09.16.15.02.02.03.06.05.08.11.1.24.26.33.41.03.04.03.08.06.12.01.01.04.03.05.04.01.02.02.08.04.1,0,0,.02,0,.02,0v.03s.03.03.04.05c0,.02.01.04.02.06.1.1.12.28.21.39,0,.02,0,.04.01.06,0,0,0,0,.01,0,0,0,.01.05.01.06,0,0,0,0,.01,0,0,0,0,.02,0,.03,0,.01.02.02.03.03.01.03,0,.06.03.08,0,.04.02.07.02.11.03.04.05.09.07.14.03.1.04.2.07.28-.01.04.01.1.02.15v.06c.02.1.03.22.05.31,0,.07,0,.14,0,.21.02.06.01.2.02.28,0,.06.01.16,0,.24,0,.03.01.09,0,.12h0Zm3.31,1.53c-.08-.11-.15-.14-.25-.23-.04-.04-.07-.1-.1-.13-.03-.03-.06-.06-.09-.09-.02-.02-.06-.03-.08-.06-.03-.05-.06-.1-.11-.13-.03-.02-.07-.04-.1-.07-.08-.07-.16-.15-.24-.21-.05-.04-.09-.06-.13-.11,0,0,0,0,0,0-.03,0-.06-.05-.07-.07,0-.03.02-.12.02-.17,0-.05,0-.12,0-.18.02-.06,0-.16.02-.23,0-.02,0-.05.01-.07,0-.04-.02-.08,0-.12.02-.06,0-.17.01-.21.02-.06.02-.23,0-.3,0-.06-.03-.27-.03-.29-.04-.07-.05-.3-.05-.37.05-.03.1-.1.13-.14,0,0,.02,0,.02,0,.03-.02.06-.07.07-.09h.02s.08-.08.12-.11c.06-.06.11-.12.17-.18.1-.09.21-.18.29-.29.05-.06.14-.13.2-.17.01,0,.04-.02.05-.03.02-.03,0-.07,0-.09,0,0,0,0,0,0,0,0,0,0-.01-.01,0-.02,0-.02.02-.02.03-.06-.08-.3-.1-.35-.02-.05-.01-.14-.04-.19,0,0,0,0-.01-.01,0-.03-.01-.05-.02-.08,0-.05-.06-.18-.09-.23-.03-.05-.04-.12-.07-.18-.03-.07-.08-.14-.11-.2-.03-.05-.03-.11-.05-.15-.03-.05-.08-.09-.11-.14-.05-.09-.1-.17-.15-.24-.02-.03-.06-.03-.08-.06-.02,0-.02-.02-.02-.04-.06-.05-.16-.03-.22-.03,0,0,0,0,0,0-.06.01-.16,0-.23,0-.04,0-.16,0-.16,0-.01.01-.3.04-.38.04-.08,0-.12-.02-.17,0-.08.01-.28.05-.33.03-.02.01-.11,0-.12,0-.01,0-.03-.02-.04-.04,0,0,0,0,0,0-.06-.06-.08-.11-.13-.18-.03-.04-.07-.06-.1-.1-.05-.06-.1-.12-.15-.18-.01-.02-.02-.04-.04-.06-.08-.07-.15-.15-.21-.23-.06-.08-.2-.16-.28-.23-.04-.03-.07-.08-.11-.11-.05-.04-.1-.07-.14-.12,0,0-.05-.03-.06-.04-.06-.05-.11-.1-.17-.15-.02-.02,0-.24,0-.27v-.12c0-.1,0-.21,0-.31.01-.15,0-.35,0-.51.01-.13.04-.26,0-.39-.04,0-.08-.05-.12-.07-.05-.02-.08-.03-.13-.05-.07-.03-.13-.08-.2-.11-.09-.04-.15-.05-.24-.09-.01,0-.15-.05-.17-.07-.02.02-.22-.08-.23-.09-.05-.03-.26-.07-.28-.11,0,0-.01,0-.02,0-.03-.02-.13-.05-.15-.05,0,0,0,0,0,0-.03-.02-.24-.05-.25-.09-.03,0-.09,0-.12.02-.11.06-.18.17-.28.24-.18.14-.36.33-.49.51-.06.06-.12.11-.18.17-.02.01-.04.02-.05.03-.05.05-.11.11-.17.15-.04.03-.13,0-.21,0-.02,0-.15-.01-.19-.03,0,0-.13,0-.17,0-.01,0-.13-.02-.13-.02-.03.03-.17,0-.22,0,0,0-.11,0-.11,0-.02,0-.04,0-.07-.01-.09.01-.18,0-.26.03-.02,0-.15,0-.18.01-.02,0-.04.02-.06.03-.04,0-.08,0-.12,0-.12.03-.24.03-.31.03-.01,0-.02,0-.02-.02,0,0,0,0-.01,0,0,0-.13-.12-.16-.15,0,0-.04-.07-.05-.06,0,0,0,0,0,0-.04-.05-.09-.09-.13-.14,0,0-.04-.03-.04-.04,0-.04-.12-.11-.16-.16-.02-.02-.02-.04-.03-.06-.02-.01-.03-.02-.05-.03-.03-.02-.05-.06-.07-.08-.02-.02-.03-.05-.05-.07-.05-.04-.12-.1-.15-.15-.01,0-.02,0-.03-.01-.02-.02-.03-.04-.06-.05,0-.02,0-.04-.01-.06-.01,0-.03-.02-.04-.02-.05,0-.08.03-.11.04-.05.02-.09,0-.15.03-.04.01-.07.04-.11.05-.02,0-.2.05-.22.07-.01,0-.03.03-.05.02-.04,0-.11.03-.15.06,0,0,0,0,0,0-.04,0-.11.04-.14.07-.02.02-.13.04-.17.05-.05.02-.1.05-.14.09,0,0-.14.06-.15.07-.02,0-.04,0-.06.01-.08.07-.22.1-.3.18,0,0-.07.02-.08.04,0,0-.02,0-.02,0,0,.01,0,0,0,.02-.01,0-.02.02-.03.03,0,.03,0,.14,0,.17.01,0,0,.08,0,.1,0,.02,0,.04,0,.06,0,.02.03.17.02.21,0,.02,0,.05,0,.07,0,.05.02.11.03.16.01.06,0,.13,0,.19,0,.03,0,.05,0,.08.01.04.03.14.03.18,0,.11.04.38,0,.47-.01.02-.05.03-.07.05-.05.03-.08.08-.13.11-.08.05-.16.14-.22.21,0,.02-.01.03-.02.05-.04.03-.1.05-.12.07h0s-.04.03-.05.05c0,0,0,.02-.01.03-.03.03-.06.05-.08.09,0,0-.01,0-.02,0h0s-.02.05-.05.05c0,0,0,0,0,0-.02,0-.06.06-.08.08-.03.03-.05.07-.08.11-.04.05-.14.09-.15.17,0,0,0,0-.01,0-.03.03-.19.26-.2.3,0,0,0,0,0,0,0,0,0,0,0,.01-.09.08-.18.02-.31.05-.06.01-.17.03-.23.02-.05,0-.1,0-.15,0-.06.01-.11,0-.15,0-.11,0-.21,0-.27,0-.1-.02-.18,0-.25,0-.03,0-.12-.02-.13,0-.05.02-.12,0-.16.02-.09.06-.11.21-.17.31-.12.19-.2.39-.29.61-.03.08-.04.16-.07.25-.02.07-.06.14-.09.2,0,.01,0,.04,0,.05-.04.06-.07.2-.09.27v.07c-.02.06-.09.14-.09.21.05.04.08.1.12.15.13.12.25.23.39.34.02.01.03.04.05.06.01.02.04.02.05.03.04.04.06.08.11.11.04.03.07.07.11.09.01,0,.03,0,.04.02,0,0,0,0,0,.01.03.03.06.08.1.11.03.02.06.03.09.05.03.02.04.05.06.07.03.02.08.03.09.06.01.01,0,.1-.01.13-.02.08-.03.19-.05.29,0,.04,0,.1,0,.13,0,0,0,0,.02.01-.01.05,0,.11-.03.15,0,0,0,0,.01,0,0,.02,0,.05,0,.07,0,.03,0,.03.02.04,0,.01,0,.01-.02.02.01.03,0,.1.01.13,0,0,0,0-.01,0,0,.06.01.27.04.31-.02.02.02.23.03.27,0,0-.01,0-.02,0,0,0,0,.02.01.02,0,0,0,0,0,0,0,.05,0,.08.02.12-.02.04,0,.14,0,.18-.01,0-.15.16-.15.17-.01.01-.06.03-.05.06,0,0-.05.03-.05.03-.02.02-.04.05-.06.07-.03.02-.06.03-.08.06-.06.07-.1.15-.17.2-.07.05-.15.1-.2.17,0,0,0,0,0,0-.03,0-.14.14-.17.17-.06.05-.17.14-.2.21-.01.03.03.2.04.23h0s.03.13.05.16c0,.02.03.11.04.12,0,0,0,.01,0,.02,0,.02.03.13.03.15.02.06.08.13.06.18,0,0,.01,0,.02,0,.01.03.02.07.05.08,0,0,0,0-.01,0,0,0,0,.02,0,.02.01,0,0,0,.01,0,0,0,.07.16.07.17,0,0,0,0,0,0,0,.02.04.04.04.05.02.04.03.11.06.15.01.02.04.04.05.07.01,0,0,0,.01,0h0s.03.06.04.08c0,0,.03.09.03.09.05.09.1.18.15.27.01.02.06.13.08.13.04.02.1,0,.15.01.08.03.23,0,.31,0,.02,0,.08.02.11,0l.02-.02s.09,0,.11-.01c.04,0,.12,0,.15,0,.06.02.17-.01.23-.02.04,0,.04,0,.07-.01.03.02.06,0,.09.01,0,0,0,0,0-.01.03.03.07,0,.11,0,.08.02.19-.01.29,0,.05.08.11.15.17.22.03.05.06.09.09.14.04.04.08.08.11.12.05.07.11.15.17.21,0,0,0,0,0,0,.02.03.06.05.09.08.03.02.04.07.08.09.07.05.14.12.21.16.01.02.02.03.04.05.07.05.12.11.19.16.08.06.18.1.23.18-.02.07-.02.32,0,.38-.01.03-.02.08-.01.11,0,.04.03.12.02.15,0,.02,0,.1,0,.1,0,.03,0,.06.01.08-.02.07,0,.16-.02.23-.03.18,0,.33-.02.5.02.03.04.03.07.04.02.02.03.03.05.05.03.02.07.05.11.06.02.01.04,0,.06.02.06.05.17.08.24.11.01,0,.04,0,.04,0,.12.09.31.12.43.2h0s.02,0,.02.01c0,0,.02,0,.02,0,0,0,0,.02.01.02.06.04.12.02.17.07.01,0,0,0,.01,0,.03.03.08.05.12.04,0,.01,0,0-.01.01h0s.01,0,.02,0c0,0,0,0,0,.01.06.03.13.05.19.08,0,0,.05,0,.05,0,.08.04.31.1.42.06,0,0,0-.04,0-.04.01,0,.02,0,.04,0,.03-.02.03-.05.06-.07.06-.04.1-.11.15-.16.04-.04.08-.06.13-.09.07-.05.14-.15.2-.22.02-.02.04-.02.06-.03.01-.01.02-.03.03-.04.03-.03.07-.04.09-.07.07-.07.12-.15.18-.23.04-.06.16-.14.18-.2.04-.03.15,0,.21.02.02,0,.03,0,.04,0,.01,0,.04.02.06.02.17-.02.39.02.57.02.01,0,0,0,.01,0,0,0,.32,0,.38,0,.05-.01.11.03.15-.01.15.03.33-.05.53-.05.04.06.11.11.15.17.07.1.15.2.25.27.02.02.03.04.05.06.06.06.11.12.17.18.01.01.07.07.09.07,0,0,.02,0,.03,0,0,0,0,0,0,.01.02.03.08.09.11.12.04.03.1.06.13.11.03.04.08.1.12.12.04.02.07-.02.11-.02.02,0,.03-.02.04-.02.07-.02.14-.03.2-.05,0,0,0,0,0-.01,0,0,0,0,0,.01.03-.02.1-.05.14-.04,0,0,0,0,0-.01.03,0,.1,0,.12-.04.01,0,.02,0,.04,0,0-.01,0,0,0-.01,0,0,0,.01.02,0,.03,0,.07-.04.1-.06.03-.02.08-.01.12-.03.09-.05.19-.08.28-.13.04-.02.12-.04.15-.05.01,0,.03-.03.03-.03,0,0,.04,0,.05,0,.03-.01.07-.04.1-.06.04-.03.16-.04.17-.09.05-.04.15-.05.19-.11,0-.03.02-.06.03-.08,0-.04,0-.1-.01-.14,0-.03,0-.05,0-.08-.05-.21,0-.48-.03-.74,0-.02,0-.05.01-.07,0-.07-.02-.15-.03-.22.01-.03-.02-.31-.02-.32.07-.05.12-.08.17-.13,0,0,0-.02,0-.02.09-.08.19-.13.26-.23.03-.04.11-.09.12-.14,0,0,0,0,0,.01.02,0,.04-.03.03-.04.02,0,.17-.16.19-.19,0,0,0,0,0-.01,0-.01,0,0,.01,0,0-.01,0,0,0-.01.05-.05.1-.08.14-.13.02-.03.03-.06.07-.08,0-.01,0,0,0,0,.04-.02.12-.1.14-.15,0,0-.01-.02,0-.03.01,0,.02,0,.03-.01.01-.01.05-.07.06-.09.01-.02.01-.07.03-.09.02-.03.09-.1.1-.13.11,0,.23,0,.31.02.09.02.2-.02.29,0,0,0,0,0,0,0,.03,0,.06,0,.09.01,0,0,.02-.02.04-.01.07.02.26.03.28.04,0,0,0-.01.01-.02.09.03.18,0,.29,0,.02,0,.05-.01.07-.02.07-.01.14,0,.17.04.04,0,.05-.04.05-.07.03,0,.06,0,.08,0,0,0,.07-.15.09-.17.07-.12.12-.25.19-.35.02-.03.07-.16.09-.17,0,0,0,0-.01-.01.03-.03.04-.07.06-.13,0,0,0-.02,0-.02,0,0,.02-.02.03-.03.03-.06.04-.13.07-.19.01-.03.04-.06.05-.09.02-.04.04-.13.04-.16v-.02s.03-.05.04-.08v-.04c.02-.06.03-.12.05-.17.01-.03.1-.25.09-.27-.01-.03-.03-.04-.05-.05h0Z"/>
  <g>
    <path class="cls-5" d="m106.37,11.79h29.7v12.41h-4.98v40.79h12.12v-11.94h15.79v24.44h-52.63v-12.5h5.17V24.2h-5.17v-12.41Z"/>
    <path class="cls-5" d="m241.98,77.48h-37.69v-12.31h8.93l-1.97-6.39h-19.27l-1.97,6.39h7.33v12.31h-29.89v-12.31h6.39l12.69-41.26h-3.85v-12.12h36.09l16.63,53.38h6.58v12.31Zm-46.52-29.98h12.31l-6.2-20.3-6.11,20.3Z"/>
    <path class="cls-5" d="m250.44,77.48v-12.22h5.45V23.91h-5.45v-12.12h35.06c15.6,0,23.03,5.83,23.03,16.07,0,7.89-2.16,11.75-9.21,14.57,6.77,1.88,12.41,6.86,12.41,15.98,0,13.25-7.42,19.08-25.56,19.08h-35.71Zm24.91-53.29v14.1h5.73c4.98,0,6.39-2.73,6.39-7.24s-2.63-6.86-6.2-6.86h-5.92Zm7.52,41.07c3.95,0,7.61-3.01,7.61-8.08,0-4.79-2.73-8.27-7.89-8.27h-7.24v16.35h7.52Z"/>
    <path class="cls-5" d="m318.77,44.31c0-20.3,13.53-34.3,32.99-34.3,23.03,0,33.74,13.82,33.74,34.96s-11.84,34.21-33.08,34.21c-19.64,0-33.65-11.37-33.65-34.87Zm43.23.66c0-11.37-3.1-20.49-10.34-20.49-5.73-.09-9.68,8.18-9.68,19.83,0,12.31,4.42,20.11,10.43,20.11s9.59-7.8,9.59-19.45Z"/>
    <path class="cls-5" d="m393.95,11.79h30.54c21.8,0,26.03,8.65,26.03,19.36,0,7.33-5.83,12.5-13.63,13.63,6.49.94,12.31,6.58,12.31,13.35,0,4.04.56,6.39,2.26,6.39,1.41,0,2.16-1.13,2.16-3.01v-3.1h6.3v5.17c0,7.8-3.29,15.04-13.72,15.04-12.31,0-18.23-6.48-18.23-17.48,0-8.55-1.03-10.62-9.4-10.62v14.57h5.73v12.41h-30.36v-12.41h5.26V24.1h-5.26v-12.31Zm24.62,12.22v15.98h4.23c5.45,0,9.02-2.63,9.02-7.61,0-5.54-3.1-8.36-8.55-8.36h-4.7Z"/>
  </g>
  <g>
    <path class="cls-6" d="m112.73,114.78c-2.15-1.18-3.83-2.81-5.05-4.88-1.22-2.07-1.83-4.4-1.83-7s.61-4.92,1.83-7c1.22-2.07,2.91-3.7,5.07-4.88,2.16-1.18,4.58-1.77,7.24-1.77,2.08,0,3.99.35,5.72,1.05,1.73.7,3.2,1.73,4.42,3.11l-2.48,2.4c-2.01-2.11-4.51-3.17-7.51-3.17-1.98,0-3.78.45-5.38,1.33-1.6.89-2.85,2.12-3.76,3.68-.9,1.56-1.35,3.31-1.35,5.24s.45,3.68,1.35,5.24c.9,1.56,2.15,2.79,3.76,3.68,1.6.89,3.39,1.33,5.38,1.33,2.97,0,5.48-1.07,7.51-3.2l2.48,2.4c-1.22,1.37-2.7,2.42-4.44,3.13-1.74.71-3.65,1.07-5.74,1.07-2.67,0-5.08-.59-7.23-1.77Z"/>
    <path class="cls-6" d="m159.08,116.25l-5.76-8.2c-.71.05-1.27.08-1.68.08h-6.6v8.12h-3.81v-26.69h10.41c3.46,0,6.18.83,8.16,2.48,1.98,1.65,2.97,3.93,2.97,6.83,0,2.06-.51,3.81-1.53,5.26-1.02,1.45-2.47,2.5-4.35,3.17l6.33,8.96h-4.16Zm-2.02-12.93c1.27-1.04,1.91-2.53,1.91-4.46s-.64-3.41-1.91-4.44c-1.27-1.03-3.11-1.54-5.53-1.54h-6.48v12.01h6.48c2.41,0,4.26-.52,5.53-1.56Z"/>
    <path class="cls-6" d="m193.97,112.93v3.32h-19.37v-26.69h18.84v3.32h-15.02v8.2h13.38v3.24h-13.38v8.62h15.56Z"/>
    <path class="cls-6" d="m205.79,89.56h11.25c2.82,0,5.33.56,7.51,1.68,2.19,1.12,3.88,2.69,5.09,4.71,1.21,2.02,1.81,4.34,1.81,6.96s-.6,4.94-1.81,6.96c-1.21,2.02-2.9,3.59-5.09,4.71-2.19,1.12-4.69,1.68-7.51,1.68h-11.25v-26.69Zm11.02,23.37c2.16,0,4.06-.42,5.7-1.26,1.64-.84,2.9-2.01,3.79-3.53.89-1.51,1.33-3.26,1.33-5.24s-.45-3.73-1.33-5.24c-.89-1.51-2.15-2.69-3.79-3.53-1.64-.84-3.54-1.26-5.7-1.26h-7.21v20.06h7.21Z"/>
    <path class="cls-6" d="m242.93,89.56h3.81v26.69h-3.81v-26.69Z"/>
    <path class="cls-6" d="m265.69,92.87h-9.15v-3.32h22.08v3.32h-9.15v23.37h-3.77v-23.37Z"/>
    <path class="cls-6" d="m307.06,113.5c-1.98-2.03-2.97-4.96-2.97-8.77v-15.18h3.81v15.02c0,5.72,2.5,8.58,7.51,8.58,2.44,0,4.31-.71,5.61-2.12,1.3-1.41,1.94-3.57,1.94-6.46v-15.02h3.7v15.18c0,3.84-.99,6.77-2.97,8.79-1.98,2.02-4.75,3.03-8.31,3.03s-6.33-1.02-8.31-3.05Z"/>
    <path class="cls-6" d="m363.07,89.56v26.69h-3.13l-16.01-19.9v19.9h-3.81v-26.69h3.13l16.01,19.9v-19.9h3.81Z"/>
    <path class="cls-6" d="m376.72,89.56h3.81v26.69h-3.81v-26.69Z"/>
    <path class="cls-6" d="m398.95,114.78c-2.16-1.18-3.86-2.82-5.09-4.9-1.23-2.08-1.85-4.41-1.85-6.98s.62-4.89,1.85-6.98c1.23-2.08,2.93-3.72,5.09-4.9,2.16-1.18,4.59-1.77,7.28-1.77s5.08.59,7.24,1.77,3.85,2.81,5.07,4.88c1.22,2.07,1.83,4.4,1.83,7s-.61,4.93-1.83,7c-1.22,2.07-2.91,3.7-5.07,4.88-2.16,1.18-4.58,1.77-7.24,1.77s-5.12-.59-7.28-1.77Zm12.56-2.96c1.56-.89,2.8-2.12,3.7-3.68.9-1.56,1.35-3.31,1.35-5.24s-.45-3.68-1.35-5.24c-.9-1.56-2.13-2.79-3.7-3.68-1.56-.89-3.32-1.33-5.28-1.33s-3.73.45-5.32,1.33c-1.59.89-2.83,2.12-3.74,3.68-.9,1.56-1.35,3.31-1.35,5.24s.45,3.68,1.35,5.24c.9,1.56,2.15,2.79,3.74,3.68,1.59.89,3.36,1.33,5.32,1.33s3.72-.44,5.28-1.33Z"/>
    <path class="cls-6" d="m454.81,89.56v26.69h-3.13l-16.01-19.9v19.9h-3.81v-26.69h3.13l16.01,19.9v-19.9h3.81Z"/>
  </g>
</svg>