<?xml version="1.0" encoding="UTF-8"?>
<svg id="Layer_1" data-name="Layer 1" xmlns="http://www.w3.org/2000/svg" viewBox="0 0 1338.62 339.23">
  <defs>
    <style>
      .cls-1, .cls-2, .cls-3, .cls-4 {
        fill-rule: evenodd;
      }

      .cls-1, .cls-5 {
        fill: #007db5;
      }

      .cls-2 {
        fill: #318b43;
      }

      .cls-6 {
        fill: #6d6f70;
      }

      .cls-7, .cls-3 {
        fill: #1c4583;
      }

      .cls-4 {
        fill: #6b4499;
      }
    </style>
  </defs>
  <path class="cls-2" d="m62.45,144.42c-.03.12-.05.24-.08.37.03.58-.12,1.61-.31,2.03-.06.14-.06.52-.11.68-.11.38-.23.8-.39,1.24-.41,1.16-.74,2.17-1.31,3.23-.03.09-.05.17-.08.26-.04.04-.07.08-.11.12,0,.05,0,.11-.01.16-.31.53-.67,1.11-.95,1.56-.09.14-.02.2-.08.31-.06.1-.2.18-.24.22-.08.08-.16.27-.2.34-.05.09-.18.14-.23.22-.15.2-.27.45-.43.6-.02.02-.14.05-.14.05-.29.4-.54.68-.87,1.06-.19.22-.68.45-.73.73-.03.02-.03.02-.08.03v.07c-.1,0-1,.94-1.01.99-.01,0-.03.02-.04.03v-.05h-.03c-.11.3-.63.56-.69.78,0-.02,0-.05-.01-.07-.04.04-.05.05-.11.04-.01.05-.03.09-.04.14-.12.14-.81.64-.95.64,0,0,.02.02.03.03-1.14,1.04-2.39,1.56-3.92,2.29-.19.09-.91.26-.91.26-.08.1-.36.12-.46.18-.35.18-.7.33-1,.54-.17.12-.48.07-.69.16.05-.01-.42.14-.49.14-.03,0-.77.04-.85.07-.07.03-.45.17-.53.15-.03-.04-.01,0-.05-.01-.02,0-.73.09-.92.18-.27.11-.61.13-.91.2-.05-.03-.2-.08-.26-.07-.19.06-.44.09-.6.05-.26-.07-.53-.1-.81-.04,0-.01.02-.03.03-.04-.36.02-.99,0-1.22-.08-.2.01-.4.03-.6.04-.42-.12-1.44-.16-1.84-.27-.26-.07-.72-.05-.92-.2-.06,0-.03,0-.08.04-.08-.1-.43-.12-.53-.16-.05-.04-.11-.08-.16-.12-.04.02-.21,0-.3-.03-.5-.21-1.04-.37-1.56-.66,0,0-.26-.1-.32-.09-.02-.04,0,0-.01-.07-.03,0-.05,0-.08.01-.03-.01-.03,0-.03-.04-.55.01-1.16-.45-1.83-.66-.68-.22-1.26-.61-1.89-.97-.26-.15-.49-.44-.74-.6-.77-.47-1.43-.9-2.03-1.46-.42-.39-.76-.71-1.08-1.08-.08-.09-.37-.37-.38-.45-.13.01-.28-.31-.41-.41-.36-.27-.64-.68-.95-1.15-.09-.09-.18-.19-.27-.28-.04-.09-.08-.19-.12-.28-.16-.23-.37-.45-.53-.68-.09-.12-.12-.34-.22-.5-.11-.18-.3-.32-.41-.47-.24-.33-.42-.65-.65-1-.35-.55-.56-1.44-.88-2.08-.14-.29-.35-.58-.47-.89-.17-.44-.27-.99-.42-1.42-.15-.42-.11-.84-.24-1.2,0-.16-.02-.32-.03-.49-.13-.55-.07-1.13-.14-1.61-.02-.27-.05-.53-.07-.8,0-.14,0-.27.01-.41-.09-.32-.15-.72-.09-1.04.05-.32.09-.63.14-.95.04-.24-.01-.63.04-.88.02-.11.09-.26.05-.42-.1-.51.12-1,.24-1.51,0-.13.02-.25.03-.38.18-.44.16-.87.34-1.37.06-.16.17-.34.23-.51.24-.66.44-1.29.74-1.83-.03-.04.31-1,.35-1.1.12-.25.32-.45.46-.68.1-.24.2-.48.3-.72.25-.47.59-.95.87-1.35.06-.09.03-.2.09-.28.11-.16.25-.29.35-.46.04-.07.04-.16.09-.24.1-.15.31-.25.42-.41.53-.76,1.08-1.48,1.66-2.15.31-.35.7-.56,1.03-.89.23-.23.45-.45.68-.68-.04-.03,0-.04.01-.05.21-.25.28-.53.58-.69.32-.17.56-.42.85-.6.27-.16.54-.28.78-.46.12-.09.5-.17.47-.32.14-.02.65-.25.7-.38,0,.01.02.03.03.04.15-.12.57-.29.61-.46.02.02.04.04.05.05.24-.1.47-.16.64-.3.02-.05.84-.31.95-.45.03.06.41-.1.42-.16.07.03.53-.02.6-.14.1-.03.33.03.57-.05.56-.19,1.21-.33,1.79-.41,0-.02-.02-.05-.03-.07.06,0,.13.05.2.03.05-.03.03-.01.03-.07.04.02.02,0,.03.04.09-.01.46-.05.57-.11.06,0,.12.02.18.03.09-.03.13-.09.26-.09,0,.01-.02.03-.03.04.25-.08.6.01.84-.05.35-.1.85-.12,1.26-.2.33-.07.67.09.93-.05.15.11,1.22.13,1.34.05.08.02.04.04.08.08.04,0,.07,0,.11-.01.3.04.6.08.91.12.06-.03.78-.01.96.03,1.04.23,2.07.42,3.02.76.16.06.49.05.61.11.28.13.6.29.88.41.13.05.26.03.38.14.06-.01.05-.02.08-.04.15.19.64.26.91.37.2.08.58.26.76.41.04.04.07.1.12.14.06.03.15.09.19.11.02,0,.05-.02.07-.03.3.32.99.56,1.41.81.28.16.6.4.84.62.06.07.13.14.19.2.3.16.52.47.83.68.27.19.53.39.78.6.27.22.56.61.81.89.22.25.59.44.77.72.08.11.14.29.24.38.5.47,1.12,1.24,1.54,1.92.12.19.16.39.28.55.05.07.19.16.22.2.06.09.1.39.19.46.04.03.09-.02.11.03v.12c.03.08.13.15.18.22.03.09.06.19.09.28.47.47.59,1.31.99,1.87.02.09.05.19.07.28.02,0,.05.02.07.03-.02.01.05.24.07.27.02,0,.05,0,.07.01,0,.05,0,.09.01.14.03.05.11.1.14.16.06.16.02.26.12.39.04.18.07.35.11.53.13.17.24.44.31.65.16.45.21.96.34,1.33-.07.18.05.47.09.7,0,.09-.02.19-.03.28.1.46.18,1.05.27,1.47,0,.33.02.66.03.99.09.27.05.95.09,1.33.03.27.06.75,0,1.15-.02.15.05.42.01.55h0Zm15.64,7.25c-.37-.51-.7-.68-1.2-1.1-.2-.17-.32-.46-.49-.62-.14-.14-.3-.27-.45-.41-.11-.1-.3-.15-.38-.27-.15-.25-.29-.46-.5-.64-.16-.1-.32-.21-.49-.31-.37-.33-.75-.7-1.14-1-.24-.19-.44-.27-.64-.5-.02-.04,0,0,.01-.04-.13,0-.3-.22-.32-.31-.04-.13.08-.59.09-.78.02-.25-.04-.56.04-.84.08-.29.03-.76.09-1.1.02-.12.04-.23.05-.35-.02-.17-.07-.39-.03-.58.07-.3,0-.8.07-1.01.09-.3.09-1.1.04-1.42-.05-.28-.13-1.29-.16-1.35-.18-.34-.25-1.42-.23-1.74.23-.15.46-.45.61-.65.04,0,.07-.02.11-.03.15-.11.27-.33.35-.43h.08c.19-.18.38-.36.57-.54.29-.26.54-.58.83-.84.46-.42,1-.85,1.39-1.37.22-.29.64-.61.95-.81.06-.04.17-.07.23-.15.09-.12.04-.31.03-.41.01-.03,0,0,.04-.01-.02-.02-.04-.05-.05-.07,0-.08.01-.09.08-.11.12-.27-.36-1.42-.46-1.65-.1-.25-.07-.65-.18-.89-.02-.02-.04-.05-.05-.07-.03-.13-.06-.25-.09-.38.03-.23-.3-.84-.45-1.11-.14-.25-.18-.56-.31-.85-.14-.31-.39-.67-.54-.95-.13-.23-.12-.52-.26-.73-.14-.23-.37-.43-.51-.66-.25-.41-.45-.79-.72-1.15-.1-.13-.29-.16-.37-.28-.09-.03-.09-.09-.09-.2-.29-.22-.78-.12-1.03-.16,0,.01,0,.03.01.04-.28.05-.74.02-1.1.04-.17.01-.76.03-.76.03-.06.05-1.41.18-1.8.2-.36.02-.55-.07-.83-.03-.4.07-1.32.25-1.54.16-.1.06-.51.03-.58-.01-.06-.04-.13-.11-.18-.2,0-.01.02-.03.03-.04-.3-.27-.36-.54-.62-.85-.15-.18-.34-.28-.49-.46-.25-.3-.45-.56-.73-.85-.06-.09-.12-.19-.18-.28-.36-.31-.71-.72-1-1.1-.29-.37-.94-.75-1.33-1.1-.18-.16-.32-.37-.51-.51-.25-.18-.49-.31-.68-.55-.01.04-.24-.15-.27-.18-.27-.23-.54-.47-.81-.7-.11-.08.02-1.15-.01-1.28v-.57c0-.49,0-.98.01-1.47.07-.73-.04-1.64.03-2.39.05-.6.18-1.24.04-1.87-.2-.03-.39-.22-.55-.31-.22-.12-.39-.12-.62-.23-.31-.15-.62-.37-.95-.51-.44-.19-.71-.22-1.15-.45-.05.04-.71-.24-.81-.31-.08.09-1.03-.37-1.1-.42-.22-.16-1.24-.33-1.33-.53-.03.01-.05.03-.08.04-.14-.11-.61-.25-.7-.24-.02-.02-.02,0-.01-.03-.12-.11-1.14-.26-1.19-.42-.12.02-.44.04-.57.11-.52.27-.87.8-1.33,1.14-.87.64-1.68,1.57-2.31,2.42-.28.27-.56.54-.84.81-.09.07-.21.1-.26.15-.25.24-.54.52-.78.72-.18.14-.63-.04-.97,0-.11.01-.73-.05-.91-.16,0,0-.62-.01-.81-.03-.05,0-.64-.09-.64-.09-.16.13-.82.02-1.06-.03-.03.01-.54.04-.54.04-.1-.02-.21-.05-.31-.07-.41.05-.86,0-1.24.16-.08-.04-.72.01-.87.05-.12.03-.17.1-.28.14-.19,0-.39.02-.58.03-.56.15-1.12.15-1.45.15-.05-.03-.07-.04-.08-.11-.02.01-.04.03-.05.04.01-.04-.63-.55-.77-.72-.03-.03-.2-.32-.26-.28,0,.04-.02-.02-.03-.03-.18-.24-.41-.43-.6-.68-.02-.02-.21-.14-.19-.18-.03-.17-.59-.51-.74-.74-.07-.11-.09-.18-.15-.3-.08-.05-.15-.11-.23-.16-.12-.1-.23-.26-.34-.38-.08-.11-.16-.22-.24-.32-.24-.17-.55-.49-.7-.7-.05-.02-.11-.04-.16-.05-.1-.07-.15-.18-.28-.23-.02-.1-.04-.2-.05-.3-.06-.04-.13-.07-.19-.11-.22,0-.36.14-.54.2-.24.09-.41.02-.72.12-.18.06-.34.18-.54.24-.1-.04-.93.25-1.06.31-.06.03-.12.12-.22.11-.19-.02-.51.15-.73.28,0,0-.02,0-.03.01-.2.02-.52.19-.68.31-.1.07-.61.17-.8.24-.25.09-.49.25-.68.42-.04-.04-.66.28-.73.32-.09.02-.19.04-.28.05-.4.35-1.03.49-1.43.84-.03-.03-.31.1-.38.18-.04-.01-.07-.03-.11-.04-.03.06-.02.04.01.09-.05.05-.1.09-.15.14.03.13.05.66-.04.8.05.05.03.36.03.46,0,.09,0,.19-.01.28.03.08.12.81.11.99,0,.12-.02.23-.03.35.04.26.08.51.12.77.05.3-.03.6.01.88,0,.13,0,.25-.01.38.06.2.13.68.14.84,0,.52.21,1.79-.04,2.2-.06.1-.23.15-.35.23-.22.14-.39.36-.61.51-.37.26-.78.67-1.04,1.01-.03.07-.06.14-.09.22-.17.13-.45.23-.55.32v.07c-.06.09-.18.1-.23.16-.04.04-.03.11-.07.15-.12.13-.29.23-.37.42-.03,0-.05,0-.08.01v.07c-.07.05-.11.17-.23.19,0,.01.02.03.03.04-.1-.02-.28.28-.39.38-.14.12-.24.33-.39.51-.2.25-.67.42-.7.78-.02,0-.04,0-.05-.01-.14.16-.91,1.23-.93,1.42-.01,0-.03-.02-.04-.03,0,.03,0,.02.01.05-.43.39-.84.08-1.45.22-.3.07-.81.16-1.07.11-.24-.01-.48-.03-.72-.04-.28.06-.53-.02-.73,0-.51.04-.97.02-1.29-.03-.49-.08-.84.04-1.19-.01-.15-.02-.56-.07-.64-.04-.24.1-.58-.03-.77.11-.41.29-.52,1.01-.78,1.45-.55.92-.96,1.86-1.39,2.88-.16.39-.18.74-.34,1.18-.12.32-.3.65-.41.93-.02.06,0,.2-.03.23-.18.27-.34.96-.45,1.3v.31c-.1.27-.44.65-.43.97.21.21.37.49.58.69.62.59,1.18,1.09,1.85,1.61.09.07.16.21.23.3.06.07.19.08.26.15.19.19.3.39.53.53.21.13.35.32.54.45.07.05.13.03.19.08-.03.02.01.04.03.05.16.15.29.38.47.5.13.08.29.15.43.24.12.07.19.25.3.32.13.09.36.16.45.3.07.07-.03.47-.07.61-.09.36-.12.91-.22,1.38-.04.19.04.49-.03.62.03.04.03.05.08.07-.06.26-.03.51-.12.7.02.01.04.03.05.04-.02.1,0,.22-.04.34,0,.14.03.13.09.19-.03.05-.02.06-.08.09.07.16,0,.45.07.62-.02.01-.04.03-.05.04.01.28.06,1.25.2,1.47-.09.11.08,1.1.12,1.26-.03,0-.05.02-.08.03.02.04.04.07.05.11-.01,0-.03-.02-.04-.03-.03.23.04.37.11.57-.07.18.02.65.04.85-.05.03-.7.74-.7.83-.05.07-.27.16-.23.27-.03.03-.22.15-.26.15-.11.11-.18.26-.3.35-.13.1-.29.16-.39.28-.27.31-.47.69-.8.93-.32.24-.7.49-.93.81,0,0,.02.02.03.03-.12-.02-.65.66-.8.8-.28.25-.8.66-.93,1-.06.14.14.95.2,1.1h0c0,.08.16.6.22.76-.04.08.13.5.2.55,0,.03,0,.06-.01.09-.02.08.12.63.15.72.09.28.36.6.27.85.03,0,.05.02.08.03.06.14.08.34.23.39-.02,0-.04.02-.05.03,0,.04.02.07.03.11.05.02.02.02.05,0,0,0,.31.74.32.8-.01,0-.03,0-.04-.01.04.08.17.17.19.22.08.19.15.5.28.72.07.11.18.18.23.31.05,0,.01,0,.05-.03h.01c.03.17.12.27.19.38-.01.01.13.42.14.43.24.4.5.84.73,1.26.07.12.28.59.37.64.2.1.46-.03.7.05.39.13,1.11.02,1.47-.04.11-.02.38.08.51.04.03-.03.05-.05.08-.08.11-.05.43-.03.54-.05.19-.04.58,0,.69.03.29.07.78-.06,1.11-.09.17-.02.21.03.32-.05.13.09.27.04.43.05.01-.02.03-.05.04-.07.15.13.33-.02.54.03.39.08.89-.05,1.35-.03.22.39.51.7.78,1.03.14.22.28.44.42.66.18.19.36.38.54.57.26.33.51.7.81.99.04.02,0,0,.04-.01.11.16.28.25.43.38.14.12.21.34.37.45.35.24.68.55,1.01.76.06.08.12.15.18.23.31.22.57.5.88.74.36.29.84.49,1.11.84-.1.35-.09,1.53,0,1.8-.06.12-.1.38-.07.53.04.19.12.57.11.72,0,.08-.01.47-.01.47.02.13.04.26.05.39-.08.33-.02.77-.08,1.1-.15.83-.03,1.56-.08,2.37.1.13.2.12.35.2.08.07.15.14.23.22.15.11.35.21.5.3.09.05.21.03.27.08.29.24.79.35,1.15.51.05.02.18.02.2.04.58.43,1.45.57,2.06.93h.01s.07.05.09.05c.01,0,.11-.04.11-.04.04.01.03.08.05.09.28.21.59.09.78.31.06-.02.03,0,.05-.04.13.14.37.25.57.18-.02.06,0,.04-.05.07h0c.06.02.06,0,.11-.03.04.04.03.01.03.07.28.15.62.25.89.37.04.02.26,0,.26,0,.4.19,1.44.48,1.97.3,0-.03.01-.19.01-.19.06-.01.12-.03.18-.04.12-.09.15-.23.3-.34.27-.2.45-.52.7-.74.19-.17.39-.3.6-.45.34-.25.66-.72.96-1.06.08-.09.17-.08.27-.15.05-.06.1-.13.15-.19.13-.13.32-.2.45-.34.32-.35.57-.69.85-1.07.2-.28.74-.65.87-.96.17-.13.73,0,.99.08.08.02.16-.03.2-.01.07.02.2.11.27.09.81-.11,1.83.12,2.71.09.06,0,.04.02.07-.04.03.03,1.49.03,1.8-.03.25-.05.51.13.72-.05.72.16,1.58-.25,2.52-.24.18.28.52.5.72.8.32.47.72.94,1.19,1.26.07.09.14.18.22.27.26.29.54.55.78.87.05.06.34.31.41.35.04,0,.08.02.12.03,0,.02,0,.04-.01.05.1.16.38.43.53.57.17.17.46.3.6.5.13.2.37.46.57.58.19.11.35-.08.5-.08.1,0,.14-.07.2-.09.32-.11.67-.13.96-.26.03-.03.02-.01.03-.07.01.02.03.04.04.05.15-.11.47-.21.65-.2,0-.02,0-.05.01-.07.13-.03.49-.02.58-.2.05,0,.09-.01.19-.03,0-.06-.03-.02.01-.05.03.03.02.05.09.03.15-.05.31-.2.47-.28.16-.09.38-.06.55-.16.43-.25.9-.36,1.31-.64.17-.12.58-.17.73-.24.05-.03.12-.13.16-.15.04-.02.17-.01.22-.03.16-.05.33-.19.46-.28.2-.16.75-.17.8-.42.25-.18.73-.22.89-.5.04-.13.08-.26.12-.39-.02-.18-.02-.48-.05-.66,0-.12,0-.24.01-.37-.23-1.01-.01-2.28-.16-3.5.02-.11.04-.23.05-.34-.05-.35-.09-.69-.14-1.04.06-.15-.08-1.45-.09-1.5.33-.24.55-.39.83-.64.01-.04.03-.07.04-.11.42-.37.92-.6,1.24-1.07.12-.18.54-.43.55-.65,0,.02,0,.05.01.07.1-.03.17-.12.15-.19.11,0,.82-.77.91-.91.03-.04.04-.02,0-.05.03-.07,0-.04.07-.03.02-.05,0,0,0-.05.22-.22.45-.36.65-.6.11-.12.16-.29.31-.37-.02-.05,0-.02-.04-.04.18-.1.58-.49.66-.69.02-.04-.05-.09,0-.15.05-.02.11-.04.16-.05.06-.06.24-.34.3-.43.06-.11.06-.31.16-.42.12-.12.42-.45.47-.61.51.04,1.07.01,1.49.09.41.08.96-.11,1.35.03.03-.03,0,0,.01-.04.14.04.31.02.41.07.04-.04.09-.07.18-.05.34.08,1.24.12,1.31.19.02-.03.04-.05.05-.08.41.15.84-.02,1.35.04.11-.03.23-.05.34-.08.31-.07.66-.04.8.18.2-.01.22-.21.26-.32.13-.04.28.01.38-.04.03-.02.34-.71.41-.83.34-.57.58-1.18.91-1.65.11-.17.32-.78.42-.83-.02-.02-.04-.05-.05-.07.15-.16.21-.35.28-.62,0-.04-.02-.07-.03-.11.05-.05.09-.09.14-.14.15-.3.19-.62.32-.92.06-.13.19-.29.24-.43.08-.19.17-.63.19-.77l-.03-.08c.07-.11.15-.25.2-.39v-.2c.08-.28.16-.55.24-.83.05-.12.47-1.18.43-1.3-.05-.15-.15-.17-.22-.26h0Z"/>
  <g>
    <path class="cls-6" d="m201.36,197.13c-46.19-4.68-71.04,17.57-72.97,19.36-1.92-1.79-26.77-24.04-72.97-19.36-29.85,1.83-49.95-7.92-55.43-18.28,14.16,36.85,44.96,31.14,65.35,33.81,19.71,2.58,48.16.91,38.82,71.98-1.62,16.25-55.13,35.6-65.69,49,10.44-3.48,70.12-4.24,83.17-5.11.62-6.53,6.25-18.59,6.32-25.17.05-4-.93-3.08.16.74,1.96,6.9,6.28,17.78,8.7,24.54,12.62.87,67.79,1.31,77.79,4.64-10.56-13.4-60.36-32.41-61.98-48.65-9.34-71.07,19.11-69.4,38.82-71.98,20.39-2.67,51.19,3.05,65.35-33.81-5.48,10.36-25.58,20.1-55.43,18.28Z"/>
    <path class="cls-6" d="m152.61,180.06c0,13.38-10.84,24.22-24.22,24.22s-24.21-10.84-24.21-24.22,10.84-24.21,24.21-24.21,24.22,10.84,24.22,24.21h0Z"/>
  </g>
  <path class="cls-3" d="m228.38,141.93c-.03.12-.06.25-.08.37.03.59-.13,1.65-.32,2.08-.07.15-.06.54-.11.69-.11.39-.24.82-.4,1.28-.42,1.19-.76,2.23-1.35,3.32-.03.09-.06.18-.08.26-.04.04-.07.08-.11.12,0,.06,0,.11-.01.17-.32.54-.68,1.14-.97,1.6-.09.14-.02.2-.08.32-.06.1-.21.18-.25.22-.08.08-.17.28-.21.35-.05.09-.18.14-.24.22-.15.21-.28.47-.44.61-.02.02-.14.06-.14.06-.3.41-.55.7-.89,1.08-.19.22-.7.46-.75.75-.03.02-.03.02-.08.03v.07c-.1,0-1.03.96-1.04,1.01-.01,0-.03.02-.04.03v-.06h-.03c-.11.3-.65.58-.71.81,0-.02,0-.05-.01-.07-.04.04-.05.05-.11.04-.01.05-.03.09-.04.14-.13.15-.84.65-.97.65,0,0,.02.02.03.03-1.17,1.07-2.45,1.6-4.03,2.35-.19.09-.93.26-.93.26-.09.11-.37.12-.47.18-.36.19-.72.34-1.03.56-.18.13-.49.07-.71.17.06-.01-.43.15-.5.14-.03,0-.79.04-.87.07-.08.03-.46.17-.54.15-.03-.04-.01,0-.06-.01-.03,0-.75.1-.94.18-.27.12-.63.14-.93.21-.05-.03-.2-.09-.26-.07-.19.06-.45.1-.61.06-.27-.07-.54-.1-.83-.04,0-.01.02-.03.03-.04-.37.02-1.02,0-1.25-.08-.2.01-.41.03-.61.04-.44-.12-1.47-.16-1.89-.28-.27-.07-.74-.05-.94-.21-.06,0-.03,0-.08.04-.08-.1-.44-.12-.54-.17-.06-.04-.11-.08-.17-.12-.05.02-.22,0-.31-.03-.51-.22-1.07-.38-1.6-.68,0,0-.27-.11-.33-.1-.02-.04,0,0-.01-.07-.03,0-.06,0-.08.01-.03-.01-.03,0-.03-.04-.57.01-1.19-.46-1.87-.68-.7-.23-1.3-.63-1.94-1-.27-.16-.5-.45-.76-.61-.79-.49-1.47-.93-2.08-1.5-.43-.4-.78-.73-1.11-1.11-.08-.09-.38-.38-.39-.46-.13.01-.29-.32-.42-.42-.37-.28-.66-.7-.97-1.18-.09-.1-.19-.19-.28-.29-.04-.1-.08-.19-.12-.29-.16-.23-.38-.46-.54-.69-.09-.13-.12-.35-.22-.51-.12-.19-.31-.33-.42-.49-.24-.34-.44-.66-.67-1.03-.36-.56-.57-1.48-.9-2.14-.15-.29-.36-.6-.49-.92-.18-.46-.27-1.02-.43-1.46-.15-.43-.11-.86-.25-1.24,0-.17-.02-.33-.03-.5-.14-.57-.07-1.17-.14-1.65-.02-.27-.05-.55-.07-.82,0-.14,0-.28.01-.42-.09-.33-.15-.74-.1-1.07.05-.32.09-.65.14-.97.04-.25-.01-.65.04-.9.02-.11.09-.26.06-.43-.11-.53.12-1.03.25-1.56,0-.13.02-.26.03-.39.19-.46.17-.89.35-1.4.06-.17.17-.35.24-.53.24-.68.45-1.33.76-1.87-.03-.04.32-1.03.36-1.12.12-.26.33-.46.47-.69.1-.25.2-.49.31-.74.26-.48.61-.97.89-1.39.07-.1.03-.2.1-.29.12-.17.26-.3.36-.47.04-.07.04-.16.1-.25.1-.16.32-.26.43-.42.54-.78,1.11-1.52,1.71-2.21.32-.36.72-.58,1.06-.92.23-.23.46-.46.69-.69-.04-.03,0-.04.01-.06.22-.25.29-.54.6-.71.33-.18.57-.43.87-.61.27-.17.56-.29.81-.47.12-.09.52-.18.49-.33.15-.02.67-.26.72-.39,0,.01.02.03.03.04.15-.13.59-.3.62-.47.02.02.04.04.06.06.24-.1.48-.16.65-.31.02-.05.86-.32.97-.46.03.06.42-.11.43-.17.07.03.54-.02.61-.14.1-.03.34.03.58-.06.57-.19,1.24-.34,1.83-.42,0-.02-.02-.05-.03-.07.06,0,.13.05.21.03.05-.03.04-.01.03-.07.04.02.02,0,.03.04.1-.01.48-.05.58-.11.06,0,.12.02.18.03.09-.03.14-.09.26-.1,0,.01-.02.03-.03.04.26-.08.61.01.86-.06.36-.1.87-.12,1.29-.21.34-.07.69.09.96-.06.15.11,1.25.13,1.37.06.08.02.04.04.08.08.04,0,.07,0,.11-.01.31.04.62.08.93.12.06-.03.81-.01.99.03,1.07.23,2.12.43,3.1.78.17.06.51.06.62.11.29.13.62.3.9.42.13.05.26.03.39.14.06-.01.05-.02.08-.04.15.19.65.27.93.37.2.08.6.26.78.42.05.04.07.11.12.14.06.03.15.09.19.11.02,0,.05-.02.07-.03.31.32,1.02.58,1.44.83.28.17.62.42.86.64.06.07.13.14.19.21.3.17.54.48.85.69.28.19.54.4.81.61.27.22.58.63.83.92.23.26.6.45.79.74.08.12.15.29.25.39.52.48,1.15,1.27,1.58,1.97.12.2.17.4.29.57.05.07.19.16.22.21.07.09.1.4.19.47.04.03.09-.02.11.03v.12c.03.08.13.15.18.22.03.1.06.19.1.29.49.48.6,1.34,1.01,1.92.02.1.05.19.07.29.02,0,.05.02.07.03-.02.01.05.25.07.28.02,0,.05,0,.07.01,0,.05,0,.09.01.14.03.05.11.1.14.17.07.16.02.27.12.4.04.18.07.36.11.54.13.18.24.45.32.67.17.47.21.98.35,1.36-.07.19.06.48.1.72,0,.1-.02.19-.03.29.11.48.19,1.08.28,1.51,0,.34.02.68.03,1.01.1.27.05.97.1,1.36.03.28.06.77,0,1.18-.02.16.05.43.01.57h0Zm16.05,7.44c-.38-.53-.72-.7-1.24-1.12-.21-.17-.33-.47-.5-.64-.15-.14-.31-.28-.46-.42-.11-.1-.31-.15-.39-.28-.16-.25-.3-.47-.51-.65-.17-.11-.33-.21-.5-.32-.38-.34-.77-.72-1.17-1.03-.25-.19-.45-.28-.65-.51-.02-.04,0,0,.01-.04-.13,0-.3-.23-.33-.32-.04-.13.08-.6.1-.81.02-.26-.04-.58.04-.86.08-.3.03-.78.1-1.12.02-.12.04-.24.06-.36-.02-.18-.08-.4-.03-.6.08-.31,0-.82.07-1.04.1-.31.1-1.13.04-1.46-.05-.29-.13-1.32-.17-1.39-.19-.35-.26-1.45-.24-1.79.24-.16.47-.46.62-.67.04,0,.07-.02.11-.03.15-.11.28-.34.36-.44h.08c.2-.18.39-.37.58-.56.29-.27.55-.59.85-.86.47-.43,1.02-.87,1.43-1.4.23-.3.66-.63.97-.83.06-.04.18-.07.24-.15.1-.12.04-.32.03-.42.01-.03,0,0,.04-.01-.02-.02-.04-.05-.06-.07,0-.08.01-.09.08-.11.13-.27-.37-1.46-.47-1.69-.11-.26-.07-.67-.18-.92-.02-.02-.04-.05-.06-.07-.03-.13-.06-.26-.1-.39.03-.23-.31-.86-.46-1.14-.14-.26-.19-.58-.32-.87-.14-.32-.4-.69-.56-.97-.13-.24-.13-.53-.26-.75-.15-.23-.38-.44-.53-.68-.26-.42-.47-.81-.74-1.18-.1-.14-.3-.16-.37-.29-.09-.03-.09-.09-.1-.21-.3-.22-.8-.13-1.06-.17,0,.01,0,.03.01.04-.29.05-.76.02-1.12.04-.17.01-.78.03-.78.03-.07.05-1.44.18-1.85.21-.37.02-.56-.08-.85-.03-.41.07-1.35.26-1.58.17-.11.06-.53.03-.6-.01-.06-.04-.14-.12-.18-.21,0-.01.02-.03.03-.04-.31-.28-.37-.55-.64-.87-.16-.19-.34-.29-.5-.47-.26-.31-.47-.58-.75-.87-.06-.1-.12-.19-.18-.29-.37-.32-.73-.74-1.03-1.12-.3-.38-.96-.77-1.36-1.12-.18-.16-.33-.38-.53-.53-.26-.18-.51-.32-.69-.57-.02.04-.24-.16-.28-.18-.28-.24-.56-.48-.83-.72-.11-.08.02-1.18-.01-1.32v-.58c0-.5,0-1.01.01-1.51.07-.75-.04-1.68.03-2.46.05-.61.19-1.27.04-1.92-.21-.03-.4-.23-.57-.32-.23-.12-.4-.12-.64-.24-.32-.15-.64-.38-.97-.53-.45-.2-.73-.23-1.18-.46-.05.04-.73-.25-.83-.32-.08.09-1.06-.38-1.12-.43-.22-.17-1.28-.34-1.36-.54-.03.01-.06.03-.08.04-.14-.11-.62-.26-.72-.25-.02-.02-.02,0-.01-.03-.12-.11-1.17-.27-1.22-.43-.13.02-.45.04-.58.11-.53.28-.89.82-1.36,1.17-.89.66-1.73,1.61-2.37,2.49-.29.28-.57.56-.86.83-.09.07-.21.1-.26.15-.25.24-.55.54-.81.74-.19.15-.65-.04-1,0-.11.01-.74-.05-.93-.17,0,0-.63-.01-.83-.03-.05,0-.65-.1-.65-.1-.17.13-.85.03-1.08-.03-.03.01-.56.04-.56.04-.11-.02-.21-.05-.32-.07-.42.05-.88,0-1.28.17-.08-.04-.74.02-.89.06-.12.03-.17.1-.29.14-.2,0-.4.02-.6.03-.58.15-1.15.15-1.49.15-.05-.03-.07-.04-.08-.11-.02.01-.04.03-.06.04.01-.04-.65-.56-.79-.74-.03-.03-.21-.33-.26-.29,0,.04-.02-.02-.03-.03-.19-.25-.42-.45-.61-.69-.02-.02-.22-.14-.19-.18-.03-.17-.6-.53-.76-.76-.07-.11-.09-.18-.15-.31-.08-.06-.16-.11-.24-.17-.13-.1-.24-.27-.35-.39-.08-.11-.17-.22-.25-.33-.25-.18-.57-.5-.72-.72-.06-.02-.11-.04-.17-.06-.1-.07-.15-.19-.29-.24-.02-.1-.04-.2-.06-.31-.06-.04-.13-.07-.19-.11-.23.01-.37.14-.56.21-.24.09-.42.02-.74.12-.18.06-.35.18-.56.25-.1-.04-.95.26-1.08.32-.06.03-.12.12-.22.11-.2-.03-.52.16-.75.29,0,0-.02,0-.03.01-.21.02-.53.2-.69.32-.1.08-.62.18-.82.25-.25.09-.51.26-.69.43-.04-.04-.68.29-.75.33-.1.02-.19.04-.29.06-.41.36-1.06.5-1.47.86-.03-.03-.32.1-.39.18-.04-.01-.07-.03-.11-.04-.03.06-.02.04.01.1-.05.05-.1.09-.15.14.04.14.05.67-.04.82.06.05.03.37.03.47,0,.1,0,.19-.01.29.03.08.13.84.11,1.01,0,.12-.02.24-.03.36.04.26.08.53.12.79.06.3-.03.62.01.9,0,.13,0,.26-.01.39.06.2.14.7.14.86,0,.53.21,1.84-.04,2.26-.06.1-.24.16-.36.24-.22.14-.4.37-.62.53-.38.27-.8.69-1.07,1.04-.03.07-.06.15-.1.22-.18.13-.47.24-.57.33v.07c-.06.1-.18.1-.24.17-.04.04-.03.11-.07.15-.12.14-.3.24-.37.43-.03,0-.06,0-.08.01v.07c-.07.05-.11.17-.24.19,0,.01.02.03.03.04-.1-.02-.29.29-.4.39-.15.13-.25.34-.4.53-.21.26-.68.43-.72.81-.02,0-.04,0-.06-.01-.14.17-.94,1.27-.96,1.46-.01,0-.03-.02-.04-.03,0,.04,0,.02.01.06-.44.4-.86.08-1.49.22-.31.07-.83.16-1.1.11-.25-.01-.49-.03-.74-.04-.29.06-.54-.02-.75,0-.52.04-1,.03-1.32-.03-.5-.08-.86.04-1.22-.01-.16-.02-.57-.07-.65-.04-.25.1-.59-.03-.79.11-.42.3-.54,1.04-.81,1.49-.56.94-.98,1.91-1.43,2.96-.17.4-.18.76-.35,1.21-.12.32-.31.66-.42.96-.02.07,0,.2-.03.24-.19.28-.35.98-.46,1.33v.32c-.11.28-.45.67-.44,1,.22.21.37.5.6.71.64.6,1.21,1.12,1.9,1.65.09.07.16.21.24.31.06.08.2.08.26.15.19.19.3.4.54.54.21.13.36.33.56.46.07.05.14.03.19.08-.03.03.01.04.03.06.16.15.3.39.49.51.13.09.3.16.44.25.12.08.19.25.31.33.14.09.37.17.46.31.07.07-.03.48-.07.62-.1.37-.12.93-.22,1.42-.04.2.04.5-.03.64.03.04.03.05.08.07-.07.26-.03.52-.12.72.02.01.04.03.06.04-.03.1,0,.23-.04.35,0,.14.03.13.1.19-.03.05-.02.06-.08.1.07.16,0,.46.07.64-.02.01-.04.03-.06.04.01.29.06,1.29.21,1.51-.09.11.08,1.12.12,1.29-.03,0-.06.02-.08.03.02.04.04.07.06.11-.01,0-.03-.02-.04-.03-.03.23.04.38.11.58-.07.18.02.67.04.87-.06.03-.71.76-.72.85-.05.07-.28.16-.24.28-.03.03-.22.15-.26.15-.11.11-.18.26-.31.36-.13.1-.3.17-.4.29-.28.32-.49.71-.82.96-.33.25-.72.51-.96.83,0,0,.02.02.03.03-.12-.02-.67.68-.82.82-.28.26-.82.67-.96,1.03-.06.14.14.97.21,1.12h0c0,.08.16.61.22.78-.04.08.14.51.21.57,0,.03,0,.06-.01.1-.02.08.13.65.15.74.09.29.37.61.28.87.03,0,.06.02.08.03.06.14.09.35.24.4-.02,0-.04.02-.06.03,0,.04.02.07.03.11.05.02.02.02.06,0,0,0,.32.76.33.82-.01,0-.03,0-.04-.01.04.08.18.18.19.22.08.2.15.51.29.74.07.11.19.18.24.32.05,0,.01,0,.06-.03h.01c.03.18.13.28.19.39-.01.01.13.43.14.44.24.41.51.86.75,1.29.07.12.29.61.37.65.21.11.47-.03.72.06.41.13,1.14.02,1.51-.04.12-.02.39.09.53.04l.08-.08c.11-.05.44-.03.56-.06.19-.04.6,0,.71.03.3.07.8-.06,1.14-.1.17-.02.21.03.33-.06.13.09.27.04.44.06.01-.02.03-.05.04-.07.16.14.34-.02.56.03.4.08.92-.05,1.39-.03.23.4.52.72.81,1.06.14.23.29.45.43.68.19.19.37.39.56.58.26.34.52.72.83,1.01.04.02,0,0,.04-.01.12.17.29.26.44.39.15.12.22.35.37.46.36.24.7.56,1.04.78.06.08.12.16.18.24.32.23.59.51.9.76.37.3.86.5,1.14.86-.11.36-.09,1.57,0,1.85-.06.12-.1.39-.07.54.04.19.12.58.11.74,0,.08-.01.49-.01.49.02.13.04.27.06.4-.08.34-.02.79-.08,1.12-.16.85-.04,1.6-.08,2.43.1.14.2.13.36.21.08.07.16.15.24.22.16.11.36.22.51.31.09.05.21.03.28.08.3.24.81.36,1.18.53.05.02.18.02.21.04.59.44,1.49.59,2.11.96h.01s.08.05.1.06c.01,0,.11-.04.11-.04.04.01.03.08.06.1.29.21.61.09.81.32.06-.02.03.01.06-.04.14.15.38.26.58.18-.02.06,0,.04-.06.07h0c.06.02.06,0,.11-.03.04.04.03.01.03.07.28.15.63.26.92.37.04.02.26,0,.26,0,.41.2,1.48.5,2.03.31,0-.03.01-.19.01-.19.06-.01.12-.03.18-.04.12-.09.16-.24.31-.35.28-.21.47-.53.72-.76.19-.17.4-.31.61-.46.35-.25.68-.73.99-1.08.08-.09.18-.08.28-.15.05-.06.1-.13.15-.19.14-.13.33-.21.46-.35.33-.35.59-.7.87-1.1.21-.29.76-.67.89-.99.18-.13.75,0,1.01.08.09.02.17-.03.21-.01.07.03.2.11.28.1.83-.12,1.88.12,2.78.1.06,0,.04.02.07-.04.03.03,1.53.04,1.85-.03.26-.05.52.13.74-.06.73.16,1.62-.25,2.58-.25.18.29.53.52.74.82.33.48.74.96,1.22,1.29.07.09.15.19.22.28.27.3.56.56.81.89.05.07.34.32.42.36.04,0,.08.02.12.03,0,.02,0,.04-.01.06.11.16.39.44.54.58.18.17.47.31.61.51.14.2.38.47.58.6.19.11.36-.08.51-.08.1,0,.14-.07.21-.1.33-.11.69-.13.99-.26.03-.03.02-.01.03-.07.01.02.03.04.04.06.16-.11.49-.22.67-.21,0-.02,0-.05.01-.07.13-.03.51-.02.6-.21.05,0,.09-.01.19-.03,0-.06-.03-.02.01-.06.03.03.02.05.1.03.15-.05.32-.2.49-.29.16-.09.39-.06.57-.17.45-.26.92-.37,1.35-.65.18-.12.6-.17.75-.25.06-.03.13-.13.17-.15.04-.02.18-.01.22-.03.17-.05.34-.19.47-.29.21-.16.77-.17.82-.43.26-.19.75-.23.92-.51.04-.13.08-.27.12-.4-.02-.19-.02-.49-.06-.68,0-.12,0-.25.01-.37-.23-1.04-.01-2.34-.17-3.6.02-.12.04-.23.06-.35-.05-.36-.09-.71-.14-1.07.06-.16-.08-1.48-.1-1.54.34-.25.56-.4.85-.65.01-.04.03-.07.04-.11.43-.38.95-.62,1.28-1.1.13-.18.55-.44.57-.67,0,.02,0,.05.01.07.1-.03.17-.12.15-.19.12,0,.84-.79.93-.93.03-.05.04-.02,0-.06.03-.07,0-.04.07-.03.02-.05.01,0,0-.06.22-.23.46-.37.67-.61.11-.13.16-.3.32-.37-.02-.05,0-.02-.04-.04.18-.1.6-.51.68-.71.02-.04-.05-.09,0-.15.06-.02.11-.04.17-.06.07-.07.25-.35.31-.44.07-.12.06-.32.17-.43.12-.13.43-.47.49-.62.53.04,1.1.02,1.53.1.42.08.99-.11,1.39.03.03-.03,0,0,.01-.04.14.04.31.02.42.07.04-.04.1-.08.18-.06.35.09,1.27.13,1.35.19.02-.03.04-.06.06-.08.42.15.86-.02,1.39.04.12-.03.23-.06.35-.08.32-.07.68-.05.82.18.21-.01.22-.21.26-.33.14-.04.28.01.39-.04.03-.02.35-.73.42-.85.35-.59.59-1.21.93-1.69.12-.17.33-.8.43-.85-.02-.02-.04-.05-.06-.07.15-.17.22-.35.29-.64,0-.04-.02-.07-.03-.11.05-.05.09-.09.14-.14.15-.31.19-.64.33-.94.06-.13.19-.3.25-.44.08-.19.17-.64.19-.79l-.03-.08c.07-.12.15-.26.21-.4v-.21c.08-.28.17-.56.25-.85.05-.13.48-1.21.44-1.33-.05-.16-.16-.17-.22-.26h0Z"/>
  <path class="cls-2" d="m155.54,117.9c-.02.07-.03.15-.05.22.02.36-.08.99-.19,1.25-.04.09-.04.32-.07.42-.07.24-.14.49-.24.77-.25.71-.45,1.34-.81,1.99-.02.05-.03.11-.05.16-.02.02-.04.05-.07.07,0,.03,0,.07,0,.1-.19.32-.41.68-.58.96-.05.09,0,.12-.05.19-.03.06-.13.11-.15.13-.05.05-.1.17-.12.21-.03.05-.11.09-.14.13-.09.13-.17.28-.27.37-.01.01-.08.03-.08.03-.18.25-.33.42-.53.65-.12.13-.42.28-.45.45-.02.01-.02.01-.05.02v.04c-.06,0-.61.58-.62.61,0,0-.02.01-.02.02v-.03h-.02c-.07.18-.39.35-.42.48,0-.01,0-.03,0-.04-.03.02-.03.03-.07.02,0,.03-.02.06-.02.08-.08.09-.5.39-.58.39,0,0,.01.01.02.02-.7.64-1.47.96-2.41,1.41-.12.05-.56.16-.56.16-.05.06-.22.07-.28.11-.22.11-.43.2-.62.33-.11.08-.29.04-.42.1.03,0-.26.09-.3.08-.02,0-.48.02-.52.04-.05.02-.28.1-.32.09-.02-.02,0,0-.03,0-.02,0-.45.06-.57.11-.16.07-.37.08-.56.12-.03-.02-.12-.05-.16-.04-.11.03-.27.06-.37.03-.16-.04-.32-.06-.5-.02,0,0,.01-.02.02-.02-.22.01-.61,0-.75-.05-.12,0-.24.02-.37.02-.26-.07-.88-.1-1.13-.17-.16-.04-.44-.03-.57-.12-.04,0-.02,0-.05.02-.05-.06-.26-.07-.32-.1-.03-.02-.07-.05-.1-.07-.03.01-.13,0-.18-.02-.31-.13-.64-.23-.96-.41,0,0-.16-.06-.2-.06-.01-.03,0,0,0-.04-.02,0-.03,0-.05,0-.02,0-.02,0-.02-.02-.34,0-.71-.27-1.12-.41-.42-.14-.78-.38-1.17-.6-.16-.09-.3-.27-.46-.37-.48-.29-.88-.56-1.25-.9-.26-.24-.47-.44-.67-.67-.05-.05-.23-.23-.23-.27-.08,0-.17-.19-.25-.25-.22-.17-.39-.42-.58-.71-.06-.06-.11-.12-.17-.17-.02-.06-.05-.12-.07-.17-.1-.14-.23-.28-.32-.42-.05-.08-.07-.21-.13-.31-.07-.11-.18-.2-.25-.29-.15-.2-.26-.4-.4-.62-.21-.34-.34-.89-.54-1.28-.09-.18-.22-.36-.29-.55-.11-.27-.16-.61-.26-.87-.09-.26-.07-.52-.15-.74,0-.1-.01-.2-.02-.3-.08-.34-.04-.7-.08-.99-.01-.16-.03-.33-.04-.49,0-.08,0-.17,0-.25-.06-.2-.09-.44-.06-.64.03-.19.06-.39.08-.58.02-.15,0-.39.02-.54.01-.07.05-.16.03-.26-.06-.32.07-.62.15-.93,0-.08.01-.16.02-.23.11-.27.1-.54.21-.84.04-.1.1-.21.14-.32.15-.41.27-.8.46-1.12-.02-.02.19-.62.22-.67.07-.16.2-.28.28-.42.06-.15.12-.29.18-.44.15-.29.36-.58.53-.83.04-.06.02-.12.06-.17.07-.1.16-.18.22-.28.02-.04.02-.1.06-.15.06-.09.19-.15.26-.25.33-.47.66-.91,1.02-1.32.19-.22.43-.35.63-.55.14-.14.28-.28.42-.42-.02-.02,0-.03,0-.03.13-.15.17-.33.36-.42.2-.11.34-.26.52-.37.16-.1.33-.17.48-.28.07-.05.31-.11.29-.2.09-.01.4-.15.43-.23,0,0,.01.02.02.02.09-.08.35-.18.37-.28.01.01.02.02.03.03.15-.06.29-.1.39-.18.01-.03.52-.19.58-.27.02.04.25-.06.26-.1.04.02.32-.01.37-.08.06-.02.2.02.35-.03.34-.12.75-.2,1.1-.25,0-.01-.01-.03-.02-.04.04,0,.08.03.12.02.03-.02.02,0,.02-.04.03.01,0,0,.02.02.06,0,.29-.03.35-.07.04,0,.07.01.11.02.06-.02.08-.06.16-.06,0,0-.01.02-.02.02.16-.05.37,0,.52-.03.21-.06.52-.07.77-.12.2-.04.41.05.57-.03.09.07.75.08.82.03.05.01.02.03.05.05.02,0,.04,0,.07,0,.19.02.37.05.56.07.04-.02.48,0,.59.02.64.14,1.27.26,1.86.47.1.04.3.03.37.07.17.08.37.18.54.25.08.03.16.02.23.08.04,0,.03,0,.05-.02.09.11.39.16.56.22.12.05.36.16.47.25.03.02.04.06.07.08.03.02.09.06.12.07.01,0,.03-.01.04-.02.19.19.61.35.87.5.17.1.37.25.52.38.04.04.08.08.12.12.18.1.32.29.51.42.17.12.33.24.48.37.16.13.35.38.5.55.14.15.36.27.47.44.05.07.09.18.15.23.31.29.69.76.95,1.18.07.12.1.24.17.34.03.04.12.1.13.12.04.06.06.24.12.28.02.02.05-.01.07.02v.07s.08.09.11.13c.02.06.04.12.06.17.29.29.36.8.61,1.15.01.06.03.12.04.17.01,0,.03.01.04.02,0,0,.03.15.04.17.01,0,.03,0,.04,0,0,.03,0,.06,0,.08.02.03.07.06.08.1.04.1.01.16.07.24.02.11.04.22.07.32.08.11.15.27.19.4.1.28.13.59.21.82-.04.11.03.29.06.43,0,.06-.01.12-.02.17.06.29.11.65.17.91,0,.2.01.41.02.61.06.16.03.58.06.82.02.17.04.46,0,.71-.01.09.03.26,0,.34h0Zm9.63,4.46c-.23-.32-.43-.42-.74-.67-.13-.1-.2-.28-.3-.38-.09-.09-.18-.17-.27-.25-.07-.06-.19-.09-.23-.17-.09-.15-.18-.28-.31-.39-.1-.06-.2-.13-.3-.19-.23-.2-.46-.43-.7-.62-.15-.12-.27-.17-.39-.31-.01-.02,0,0,0-.02-.08,0-.18-.14-.2-.19-.02-.08.05-.36.06-.48.01-.15-.02-.35.02-.52.05-.18.02-.47.06-.67.01-.07.02-.14.03-.22-.01-.11-.05-.24-.02-.36.05-.19,0-.49.04-.62.06-.18.06-.68.02-.87-.03-.17-.08-.79-.1-.83-.11-.21-.16-.87-.14-1.07.14-.09.28-.28.37-.4.02,0,.04-.01.07-.02.09-.07.17-.2.22-.27h.05c.12-.11.23-.22.35-.33.18-.16.33-.36.51-.52.28-.26.61-.52.86-.84.14-.18.4-.37.58-.5.04-.02.11-.04.14-.09.06-.07.02-.19.02-.25,0-.02,0,0,.02,0-.01-.01-.02-.03-.03-.04,0-.05,0-.05.05-.07.08-.16-.22-.87-.28-1.02-.06-.16-.04-.4-.11-.55-.01-.01-.02-.03-.03-.04-.02-.08-.04-.16-.06-.23.02-.14-.18-.51-.27-.68-.08-.15-.11-.34-.19-.52-.08-.19-.24-.41-.33-.58-.08-.14-.08-.32-.16-.45-.09-.14-.23-.27-.32-.41-.16-.25-.28-.49-.44-.71-.06-.08-.18-.1-.22-.17-.06-.02-.06-.06-.06-.12-.18-.13-.48-.08-.63-.1,0,0,0,.02,0,.02-.17.03-.46.01-.67.02-.1,0-.47.02-.47.02-.04.03-.87.11-1.11.12-.22.01-.34-.05-.51-.02-.25.04-.81.15-.95.1-.06.04-.32.02-.36,0-.04-.03-.08-.07-.11-.12,0,0,.01-.02.02-.02-.19-.17-.22-.33-.38-.52-.09-.11-.21-.17-.3-.28-.16-.19-.28-.35-.45-.52-.04-.06-.07-.12-.11-.17-.22-.19-.44-.44-.62-.67-.18-.23-.58-.46-.82-.67-.11-.1-.2-.23-.32-.32-.15-.11-.3-.19-.42-.34,0,.02-.15-.09-.17-.11-.17-.14-.33-.29-.5-.43-.07-.05.01-.71,0-.79v-.35c0-.3,0-.61,0-.91.04-.45-.02-1.01.02-1.47.03-.37.11-.76.02-1.15-.12-.02-.24-.14-.34-.19-.14-.07-.24-.07-.38-.14-.19-.09-.38-.23-.58-.32-.27-.12-.44-.14-.71-.27-.03.02-.44-.15-.5-.19-.05.05-.64-.23-.67-.26-.13-.1-.76-.2-.82-.32-.02,0-.03.02-.05.02-.08-.07-.37-.15-.43-.15-.01-.01,0,0,0-.02-.07-.07-.7-.16-.73-.26-.08.01-.27.02-.35.07-.32.17-.54.49-.82.7-.53.4-1.04.96-1.42,1.49-.17.17-.34.33-.52.5-.05.04-.13.06-.16.09-.15.15-.33.32-.48.44-.11.09-.39-.03-.6,0-.07,0-.45-.03-.56-.1,0,0-.38,0-.5-.02-.03,0-.39-.06-.39-.06-.1.08-.51.02-.65-.02-.02,0-.33.02-.33.02-.06-.01-.13-.03-.19-.04-.25.03-.53,0-.77.1-.05-.03-.45,0-.53.03-.07.02-.1.06-.17.08-.12,0-.24.01-.36.02-.35.09-.69.09-.89.09-.03-.02-.04-.02-.05-.07-.01,0-.02.02-.03.02,0-.02-.39-.34-.47-.44-.02-.02-.12-.2-.16-.17,0,.02-.01-.01-.02-.02-.11-.15-.25-.27-.37-.42,0-.01-.13-.09-.12-.11-.02-.1-.36-.32-.46-.46-.04-.07-.05-.11-.09-.18-.05-.03-.09-.07-.14-.1-.08-.06-.14-.16-.21-.23-.05-.07-.1-.13-.15-.2-.15-.11-.34-.3-.43-.43-.03-.01-.07-.02-.1-.03-.06-.04-.09-.11-.17-.14-.01-.06-.02-.12-.03-.18-.04-.02-.08-.04-.12-.07-.14,0-.22.08-.33.12-.15.06-.25.01-.44.07-.11.04-.21.11-.33.15-.06-.02-.57.16-.65.19-.04.02-.07.07-.13.07-.12-.02-.31.09-.45.17,0,0-.01,0-.02,0-.12.01-.32.12-.42.19-.06.05-.37.11-.49.15-.15.06-.3.15-.42.26-.03-.02-.41.17-.45.2-.06.01-.12.02-.17.03-.25.21-.63.3-.88.52-.02-.02-.19.06-.23.11-.02,0-.04-.02-.07-.02-.02.04-.01.02,0,.06-.03.03-.06.06-.09.08.02.08.03.4-.02.49.03.03.02.22.02.28,0,.06,0,.12,0,.17.02.05.08.5.07.61,0,.07-.01.14-.02.22.02.16.05.32.07.47.03.18-.02.37,0,.54,0,.08,0,.16,0,.23.04.12.08.42.08.52,0,.32.13,1.1-.02,1.36-.04.06-.14.09-.22.14-.13.08-.24.22-.37.32-.23.16-.48.41-.64.62-.02.04-.04.09-.06.13-.11.08-.28.14-.34.2v.04c-.04.06-.11.06-.14.1-.02.03-.02.07-.04.09-.07.08-.18.14-.22.26-.02,0-.03,0-.05,0v.04s-.06.1-.14.12c0,0,.01.02.02.02-.06,0-.17.17-.24.23-.09.08-.15.2-.24.32-.12.15-.41.26-.43.48-.01,0-.02,0-.03,0-.09.1-.56.76-.57.87,0,0-.02-.01-.02-.02,0,.02,0,0,0,.03-.26.24-.52.05-.89.13-.18.04-.5.1-.66.07-.15,0-.29-.02-.44-.02-.17.03-.32-.01-.45,0-.31.03-.6.02-.79-.02-.3-.05-.51.02-.73,0-.09-.01-.34-.04-.39-.02-.15.06-.36-.02-.47.07-.25.18-.32.62-.48.89-.34.56-.59,1.14-.86,1.77-.1.24-.11.45-.21.72-.07.19-.19.4-.25.57-.01.04,0,.12-.02.14-.11.17-.21.59-.27.8v.19c-.06.17-.27.4-.27.6.13.13.22.3.36.42.38.36.73.67,1.14.99.06.04.1.13.14.18.04.05.12.05.16.09.12.12.18.24.32.32.13.08.22.2.33.27.04.03.08.02.12.05-.02.02,0,.02.02.03.1.09.18.24.29.31.08.05.18.09.27.15.07.05.11.15.18.2.08.06.22.1.27.18.04.04-.02.29-.04.37-.06.22-.07.56-.13.85-.02.12.02.3-.02.38.02.02.02.03.05.04-.04.16-.02.31-.07.43.01,0,.02.02.03.02-.02.06,0,.14-.02.21,0,.09.02.08.06.12-.02.03-.01.03-.05.06.04.1,0,.28.04.38-.01,0-.02.02-.03.02,0,.18.03.77.12.91-.05.07.05.67.07.77-.02,0-.03.01-.05.02.01.02.02.04.03.07,0,0-.02-.01-.02-.02-.02.14.02.23.07.35-.04.11.01.4.02.52-.03.02-.43.46-.43.51-.03.04-.17.1-.14.17-.02.02-.13.09-.16.09-.07.07-.11.16-.18.22-.08.06-.18.1-.24.17-.17.19-.29.43-.49.57-.2.15-.43.3-.57.5,0,0,.01.01.02.02-.07-.01-.4.41-.49.49-.17.16-.49.4-.57.62-.03.09.08.58.12.67h0s.1.37.13.47c-.02.05.08.31.12.34,0,.02,0,.04,0,.06-.01.05.08.39.09.44.05.17.22.37.17.52.02,0,.03.01.05.02.04.09.05.21.14.24-.01,0-.02.01-.03.02,0,.02.01.04.02.07.03.01,0,.01.03,0,0,0,.19.46.2.49,0,0-.02,0-.02,0,.02.05.11.11.12.13.05.12.09.31.17.44.04.07.11.11.14.19.03,0,0,0,.03-.02h0c.02.11.08.17.12.23,0,0,.08.26.08.27.15.25.31.52.45.77.04.07.17.36.22.39.13.06.28-.02.43.03.24.08.68.01.91-.02.07-.01.23.05.32.02l.05-.05c.07-.03.26-.02.33-.03.11-.03.36,0,.42.02.18.04.48-.04.68-.06.1-.01.13.02.2-.03.08.05.16.02.27.03,0-.01.02-.03.02-.04.1.08.21,0,.33.02.24.05.55-.03.83-.02.14.24.31.43.48.63.09.14.17.27.26.41.11.12.22.23.33.35.16.2.31.43.5.61.02.01,0,0,.02,0,.07.1.17.16.27.23.09.07.13.21.22.27.21.15.42.34.62.47.04.05.07.09.11.14.19.14.35.31.54.46.22.18.51.3.68.52-.06.22-.06.94,0,1.11-.04.07-.06.24-.04.32.02.12.07.35.07.44,0,.05,0,.29,0,.29.01.08.02.16.03.24-.05.21-.01.47-.05.67-.09.51-.02.96-.05,1.46.06.08.12.08.22.12.05.04.09.09.14.13.09.07.22.13.31.18.06.03.13.02.17.05.18.15.48.22.71.32.03.01.11.01.12.02.36.26.89.35,1.27.57h0s.05.03.06.03c0,0,.07-.02.07-.02.02,0,.02.05.03.06.17.13.36.06.48.19.04-.01.02,0,.03-.02.08.09.23.15.35.11-.01.04,0,.02-.03.04h0s.04,0,.07-.02c.03.02.02,0,.02.04.17.09.38.15.55.22.02.01.16,0,.16,0,.24.12.89.3,1.22.18,0-.02,0-.12,0-.12.04,0,.07-.02.11-.02.07-.06.09-.14.18-.21.17-.12.28-.32.43-.46.12-.1.24-.18.37-.27.21-.15.41-.44.59-.65.05-.05.11-.05.17-.09.03-.04.06-.08.09-.12.08-.08.2-.13.27-.21.2-.21.35-.42.52-.66.12-.17.45-.4.53-.59.11-.08.45,0,.61.05.05.01.1-.02.12,0,.04.02.12.06.17.06.5-.07,1.12.07,1.67.06.04,0,.03.01.04-.02.02.02.92.02,1.11-.02.15-.03.31.08.44-.03.44.1.97-.15,1.55-.15.11.17.32.31.44.49.2.29.44.58.73.77.04.06.09.11.13.17.16.18.33.34.48.53.03.04.21.19.25.22.02,0,.05.01.07.02,0,.01,0,.02,0,.03.06.1.24.27.32.35.11.1.28.19.37.31.08.12.23.28.35.36.12.07.22-.05.31-.05.06,0,.09-.04.12-.06.2-.07.41-.08.59-.16.02-.02.01,0,.02-.04,0,.01.02.02.02.03.09-.07.29-.13.4-.12,0-.01,0-.03,0-.04.08-.02.3-.01.36-.12.03,0,.06,0,.12-.02,0-.03-.02,0,0-.03.02.02.01.03.06.02.09-.03.19-.12.29-.17.1-.05.23-.04.34-.1.27-.16.55-.22.81-.39.11-.07.36-.1.45-.15.03-.02.08-.08.1-.09.03-.01.11,0,.13-.02.1-.03.21-.11.28-.17.12-.1.46-.1.49-.26.15-.11.45-.14.55-.31.02-.08.05-.16.07-.24-.01-.11-.01-.3-.03-.41,0-.07,0-.15,0-.22-.14-.62,0-1.4-.1-2.16.01-.07.02-.14.03-.21-.03-.21-.06-.43-.08-.64.04-.09-.05-.89-.06-.92.2-.15.34-.24.51-.39,0-.02.02-.04.02-.07.26-.23.57-.37.77-.66.08-.11.33-.26.34-.4,0,.01,0,.03,0,.04.06-.02.1-.07.09-.12.07,0,.5-.48.56-.56.02-.03.03-.01,0-.03.02-.04,0-.02.04-.02.01-.03,0,0,0-.03.13-.14.28-.22.4-.37.06-.08.1-.18.19-.22-.01-.03,0,0-.02-.02.11-.06.36-.3.41-.42,0-.02-.03-.06,0-.09.03-.01.07-.02.1-.03.04-.04.15-.21.18-.27.04-.07.04-.19.1-.26.07-.08.26-.28.29-.37.32.02.66,0,.92.06.25.05.59-.07.83.02.02-.02,0,0,0-.02.09.02.19.01.25.04.03-.02.06-.05.11-.03.21.05.76.08.81.12.01-.02.02-.03.03-.05.25.09.52-.01.83.02.07-.02.14-.03.21-.05.19-.04.41-.03.49.11.12,0,.13-.13.16-.2.08-.02.17,0,.23-.02.02-.01.21-.44.25-.51.21-.35.36-.72.56-1.02.07-.1.2-.48.26-.51-.01-.01-.02-.03-.03-.04.09-.1.13-.21.17-.38,0-.02-.01-.04-.02-.07.03-.03.06-.06.08-.08.09-.18.11-.38.2-.57.04-.08.11-.18.15-.27.05-.11.1-.39.12-.47l-.02-.05c.04-.07.09-.16.12-.24v-.12c.05-.17.1-.34.15-.51.03-.08.29-.73.27-.8-.03-.1-.09-.1-.13-.16h0Z"/>
  <path class="cls-1" d="m110.81,67.55c-.03.15-.07.29-.1.44.04.7-.15,1.94-.38,2.45-.08.18-.08.63-.13.82-.14.47-.28.97-.47,1.51-.5,1.4-.89,2.63-1.59,3.91-.03.1-.07.21-.1.31-.04.05-.09.1-.13.15,0,.07-.01.13-.02.2-.38.64-.8,1.34-1.15,1.88-.11.17-.02.24-.1.38-.07.12-.25.22-.29.26-.09.09-.2.33-.25.41-.06.11-.21.17-.28.26-.18.25-.33.55-.52.72-.03.02-.16.07-.16.07-.35.48-.65.82-1.05,1.28-.23.27-.82.54-.88.88-.04.02-.03.02-.1.03v.08c-.12,0-1.21,1.13-1.23,1.19-.02.01-.03.02-.05.03v-.07h-.03c-.14.36-.77.68-.83.95,0-.03-.01-.05-.02-.08-.05.05-.05.06-.13.05-.02.05-.03.11-.05.16-.15.17-.98.77-1.15.77.01.01.02.02.03.03-1.38,1.26-2.89,1.89-4.74,2.76-.23.11-1.1.31-1.1.31-.1.12-.43.15-.56.21-.43.22-.85.4-1.21.65-.21.15-.58.09-.83.2.07-.02-.51.17-.59.16-.04,0-.94.05-1.03.08-.09.03-.55.2-.64.18-.03-.04-.01,0-.07-.02-.03,0-.88.11-1.11.21-.32.14-.74.16-1.1.25-.06-.03-.24-.1-.31-.08-.22.07-.53.11-.72.07-.31-.08-.64-.12-.98-.05.01-.02.02-.03.03-.05-.44.03-1.2,0-1.47-.1-.24.02-.48.03-.72.05-.51-.14-1.74-.19-2.22-.33-.31-.09-.87-.06-1.11-.25-.07,0-.04,0-.1.05-.1-.12-.52-.14-.64-.2-.07-.05-.13-.1-.2-.15-.05.02-.26.01-.36-.03-.61-.26-1.26-.45-1.88-.8,0,0-.31-.13-.39-.11-.03-.05-.01,0-.02-.08-.03,0-.07.01-.1.02-.03-.02-.04,0-.03-.05-.67.01-1.4-.54-2.21-.8-.82-.27-1.53-.74-2.29-1.18-.32-.18-.59-.53-.9-.72-.94-.57-1.74-1.09-2.45-1.77-.51-.48-.92-.86-1.31-1.31-.09-.1-.45-.45-.46-.54-.16.02-.34-.38-.49-.49-.44-.32-.77-.82-1.15-1.39-.11-.11-.22-.23-.33-.34-.05-.11-.1-.23-.15-.34-.19-.27-.44-.54-.64-.82-.11-.15-.14-.41-.26-.61-.14-.22-.36-.39-.49-.57-.28-.4-.51-.78-.79-1.21-.42-.66-.67-1.75-1.06-2.52-.18-.35-.43-.7-.57-1.08-.21-.54-.32-1.2-.51-1.72-.18-.51-.13-1.02-.29-1.46-.01-.2-.02-.39-.03-.59-.16-.67-.08-1.37-.16-1.95-.03-.32-.05-.64-.08-.97,0-.16.01-.33.02-.49-.11-.39-.18-.87-.11-1.26.05-.38.11-.76.16-1.15.05-.29-.02-.77.05-1.06.03-.13.11-.31.07-.51-.13-.62.14-1.21.29-1.83.01-.15.02-.31.03-.46.22-.54.2-1.05.41-1.65.07-.2.2-.42.28-.62.29-.8.53-1.56.9-2.21-.03-.05.37-1.21.43-1.33.14-.31.39-.55.56-.82.12-.29.24-.58.36-.87.3-.56.71-1.15,1.05-1.64.08-.11.04-.24.11-.34.14-.19.31-.35.43-.56.05-.08.05-.19.11-.29.12-.18.38-.3.51-.49.64-.92,1.31-1.79,2.01-2.6.37-.42.85-.68,1.24-1.08.27-.28.54-.55.82-.82-.05-.03,0-.05.02-.07.26-.3.34-.64.7-.83.39-.21.67-.5,1.03-.72.32-.2.66-.34.95-.56.14-.11.61-.21.57-.39.17-.03.79-.3.85-.46.01.02.02.03.03.05.18-.15.69-.35.74-.56.02.02.04.04.07.07.29-.12.56-.19.77-.36.03-.06,1.01-.37,1.15-.54.03.07.5-.12.51-.2.09.03.64-.02.72-.16.12-.04.4.03.69-.07.67-.23,1.46-.4,2.16-.49-.01-.03-.02-.05-.03-.08.07,0,.16.06.25.03.05-.04.04-.02.03-.08.05.03.02,0,.03.05.11-.02.56-.06.69-.13.07.01.14.02.21.03.11-.03.16-.11.31-.11-.01.02-.02.03-.03.05.31-.1.72.01,1.01-.07.42-.12,1.02-.14,1.52-.25.4-.08.81.11,1.13-.07.18.13,1.47.15,1.62.07.09.03.04.05.1.1.04,0,.09-.01.13-.02.37.05.73.1,1.1.15.07-.03.95-.01,1.16.03,1.26.27,2.5.5,3.65.92.2.07.6.07.74.13.34.16.73.36,1.06.49.15.06.31.03.46.16.07-.02.05-.02.1-.05.18.22.77.32,1.1.44.24.09.71.31.92.49.05.05.08.13.15.16.07.04.18.11.23.13.03-.01.05-.02.08-.03.37.38,1.2.68,1.7.98.33.2.73.49,1.01.75.08.08.15.16.23.25.36.2.63.56,1,.82.33.23.64.47.95.72.32.26.68.74.98,1.08.27.3.71.53.93.87.09.14.18.35.29.46.61.57,1.36,1.5,1.86,2.32.14.23.2.47.34.67.06.08.23.19.26.25.08.11.12.47.23.56.04.03.1-.02.13.03v.15c.04.1.16.18.21.26.04.11.08.23.11.34.57.57.71,1.58,1.19,2.26.03.11.05.23.08.34.03.01.05.02.08.03-.02.01.06.29.08.33.03,0,.05.01.08.02,0,.05.01.11.02.16.04.06.13.12.16.2.08.19.03.32.15.47.04.21.09.43.13.64.15.21.29.53.38.79.2.55.25,1.15.41,1.6-.08.22.07.57.11.85l-.03.34c.12.56.22,1.27.33,1.78.01.4.02.8.03,1.19.11.32.06,1.15.11,1.6.04.33.07.9,0,1.39-.03.19.06.51.02.67h0Zm18.91,8.77c-.44-.62-.85-.82-1.46-1.33-.25-.2-.39-.55-.59-.75-.17-.17-.36-.33-.54-.49-.13-.12-.37-.18-.46-.33-.18-.3-.35-.55-.61-.77-.2-.13-.39-.25-.59-.38-.45-.4-.91-.84-1.37-1.21-.29-.23-.53-.33-.77-.61-.02-.04,0,0,.02-.05-.15,0-.36-.27-.39-.38-.05-.16.09-.71.11-.95.03-.3-.04-.68.05-1.01.1-.35.04-.92.11-1.33.02-.14.04-.28.07-.43-.03-.21-.09-.47-.03-.7.09-.37,0-.96.08-1.23.11-.36.11-1.33.05-1.72-.06-.34-.16-1.56-.2-1.64-.22-.41-.31-1.71-.28-2.11.28-.18.56-.55.74-.79.04-.01.09-.02.13-.03.18-.13.33-.4.43-.52h.1c.23-.21.45-.44.69-.65.35-.32.65-.7,1-1.01.56-.5,1.2-1.02,1.68-1.65.27-.35.78-.74,1.15-.98.07-.05.21-.09.28-.18.11-.15.05-.37.03-.49.02-.03,0-.01.05-.02-.02-.03-.04-.05-.07-.08.01-.1.02-.1.1-.13.15-.32-.44-1.71-.56-2-.13-.31-.08-.78-.21-1.08-.02-.03-.04-.05-.07-.08-.04-.15-.08-.31-.11-.46.03-.27-.36-1.01-.54-1.34-.16-.3-.22-.68-.38-1.03-.16-.38-.47-.81-.65-1.15-.15-.28-.15-.63-.31-.88-.17-.28-.45-.52-.62-.8-.31-.49-.55-.96-.87-1.39-.12-.16-.35-.19-.44-.34-.11-.03-.11-.11-.11-.25-.36-.26-.94-.15-1.24-.2,0,.02.01.03.02.05-.34.06-.9.02-1.33.05-.2.01-.92.03-.92.03-.08.06-1.7.21-2.18.25-.44.03-.66-.09-1-.03-.49.08-1.59.3-1.86.2-.12.07-.62.04-.7-.02-.08-.05-.16-.14-.21-.25.01-.02.02-.03.03-.05-.37-.33-.43-.65-.75-1.03-.19-.22-.41-.34-.59-.56-.31-.37-.55-.68-.88-1.03-.07-.11-.14-.23-.21-.34-.44-.37-.86-.87-1.21-1.33-.35-.45-1.14-.91-1.6-1.33-.21-.19-.38-.45-.62-.62-.3-.22-.6-.37-.82-.67-.02.04-.29-.19-.33-.21-.33-.28-.65-.57-.98-.85-.13-.1.02-1.39-.02-1.55v-.69c0-.59.01-1.19.02-1.78.08-.88-.04-1.98.03-2.9.06-.72.22-1.5.05-2.26-.24-.04-.47-.27-.67-.38-.27-.14-.48-.15-.75-.28-.37-.18-.75-.45-1.15-.62-.54-.23-.86-.27-1.39-.54-.06.04-.86-.29-.98-.38-.1.11-1.25-.45-1.33-.51-.26-.2-1.5-.4-1.6-.64-.03.02-.07.03-.1.05-.16-.13-.73-.3-.85-.29-.02-.03-.02,0-.02-.03-.15-.13-1.37-.31-1.44-.51-.15.03-.53.05-.69.13-.63.33-1.05.97-1.6,1.37-1.05.78-2.04,1.89-2.8,2.93-.34.33-.68.65-1.01.98-.11.08-.25.12-.31.18-.3.29-.65.63-.95.87-.22.17-.76-.05-1.18,0-.13.02-.88-.06-1.1-.2,0,0-.75-.01-.98-.03-.06,0-.77-.11-.77-.11-.2.16-1,.03-1.28-.03-.03.01-.65.05-.65.05-.13-.03-.25-.05-.38-.08-.5.06-1.04,0-1.51.2-.09-.05-.88.02-1.05.07-.14.04-.2.12-.34.16-.23.01-.47.02-.7.03-.68.18-1.35.18-1.75.18-.06-.03-.09-.04-.1-.13-.02.02-.04.03-.07.05.01-.04-.77-.66-.93-.87-.03-.04-.25-.39-.31-.34,0,.05-.02-.02-.03-.03-.22-.29-.49-.52-.72-.82-.02-.02-.26-.17-.23-.21-.03-.2-.71-.62-.9-.9-.09-.13-.11-.22-.18-.36-.09-.07-.19-.13-.28-.2-.15-.12-.28-.32-.41-.46-.1-.13-.2-.26-.29-.39-.29-.21-.67-.59-.85-.85-.07-.02-.13-.04-.2-.07-.12-.09-.18-.22-.34-.28-.02-.12-.04-.24-.07-.36-.08-.04-.15-.09-.23-.13-.27.01-.44.16-.65.25-.29.11-.5.02-.87.15-.21.07-.41.22-.65.29-.12-.04-1.12.3-1.28.38-.07.03-.15.15-.26.13-.24-.03-.61.19-.88.34-.01,0-.02.01-.03.02-.25.02-.63.23-.82.38-.12.09-.74.21-.97.29-.3.11-.6.3-.82.51-.05-.04-.8.34-.88.39-.11.02-.23.04-.34.07-.48.42-1.24.59-1.73,1.01-.03-.03-.37.12-.46.21-.04-.02-.09-.03-.13-.05-.03.07-.02.05.02.11-.06.05-.12.11-.18.16.04.16.06.79-.05.97.06.06.04.44.03.56,0,.11-.01.23-.02.34.04.1.15.98.13,1.19-.01.14-.02.28-.03.43.05.31.1.62.15.93.07.36-.04.73.02,1.06,0,.15-.01.31-.02.46.08.24.16.83.16,1.01.01.63.25,2.16-.05,2.67-.07.12-.28.19-.43.28-.26.17-.47.43-.74.62-.45.31-.94.81-1.26,1.23-.04.09-.08.17-.11.26-.21.16-.55.28-.67.39v.08c-.07.11-.21.12-.28.2-.04.05-.04.13-.08.18-.15.16-.36.28-.44.51-.03,0-.07.01-.1.02v.08c-.09.06-.13.2-.28.23.01.02.02.03.03.05-.12-.02-.34.34-.47.46-.17.15-.29.4-.47.62-.24.3-.81.51-.85.95-.02,0-.04-.01-.07-.02-.17.2-1.1,1.49-1.13,1.72-.02-.01-.03-.02-.05-.03,0,.04,0,.02.02.07-.51.48-1.02.1-1.75.26-.36.08-.98.19-1.29.13-.29-.02-.58-.03-.87-.05-.34.07-.64-.02-.88,0-.61.05-1.18.03-1.55-.03-.59-.1-1.01.04-1.44-.02-.19-.03-.68-.09-.77-.05-.29.12-.7-.03-.93.13-.5.35-.63,1.22-.95,1.75-.66,1.11-1.16,2.25-1.68,3.48-.2.47-.21.89-.41,1.42-.14.38-.37.78-.49,1.13-.03.08,0,.24-.03.28-.22.33-.41,1.16-.54,1.57v.38c-.13.33-.53.79-.52,1.18.26.25.44.59.7.83.75.71,1.43,1.32,2.24,1.95.11.08.19.25.28.36.07.09.23.1.31.18.23.23.36.47.64.64.25.15.43.39.65.54.08.06.16.04.23.1-.04.03.01.05.03.07.19.18.35.46.57.61.15.1.35.19.52.29.14.09.23.3.36.39.16.11.44.2.54.36.08.08-.04.57-.08.74-.11.44-.15,1.1-.26,1.67-.05.23.04.59-.03.75.04.05.03.06.1.08-.08.31-.04.62-.15.85.02.02.04.03.07.05-.03.12,0,.27-.05.41,0,.17.03.16.11.23-.04.06-.03.07-.1.11.08.19-.01.54.08.75-.02.02-.04.03-.07.05.01.34.07,1.52.25,1.78-.11.13.1,1.32.15,1.52-.03.01-.07.02-.1.03.02.04.04.09.07.13-.02-.01-.03-.02-.05-.03-.03.27.05.45.13.69-.09.21.02.79.05,1.03-.07.03-.84.89-.85,1-.06.08-.33.19-.28.33-.03.03-.26.18-.31.18-.13.13-.21.31-.36.43-.15.12-.35.2-.47.34-.33.37-.57.84-.97,1.13-.39.29-.84.6-1.13.98.01.01.02.02.03.03-.15-.03-.79.8-.97.97-.33.31-.96.79-1.13,1.21-.07.17.17,1.15.25,1.33v.02c0,.08.19.71.26.9-.04.09.16.6.25.67,0,.04-.01.08-.02.11-.03.1.15.77.18.87.11.34.44.72.33,1.03.03.01.07.02.1.03.07.17.1.41.28.47-.02.01-.04.02-.07.03.01.04.02.09.03.13.06.02.02.03.07,0,0,0,.37.89.39.97-.02,0-.03-.01-.05-.02.05.09.21.21.23.26.1.24.18.6.34.87.08.13.22.22.28.38.06,0,.02,0,.07-.03h.02c.04.21.15.33.23.46-.01.02.15.51.16.52.29.49.6,1.02.88,1.52.08.14.34.72.44.77.25.13.56-.03.85.07.48.16,1.34.03,1.78-.05.14-.02.46.1.62.05l.1-.1c.13-.06.52-.03.65-.07.23-.05.71,0,.83.03.35.09.95-.07,1.34-.11.21-.02.25.04.39-.07.16.11.32.05.52.07.02-.03.03-.05.05-.08.19.16.4-.02.65.03.48.1,1.08-.06,1.64-.03.27.47.62.85.95,1.24.17.27.34.53.51.8.22.23.44.46.65.69.31.4.62.84.98,1.19.04.02,0,0,.05-.02.14.2.34.31.52.46.17.14.26.41.44.54.42.29.82.66,1.23.92.07.09.14.19.21.28.37.27.69.6,1.06.9.44.36,1.01.59,1.34,1.01-.12.43-.11,1.84,0,2.18-.07.15-.12.46-.08.64.05.23.15.69.13.87,0,.09-.02.57-.02.57.02.16.04.32.07.47-.1.4-.03.93-.1,1.33-.18,1.01-.04,1.89-.1,2.86.12.16.24.15.43.25.09.09.19.17.28.26.18.13.42.26.61.36.11.06.25.04.33.1.36.29.95.43,1.39.62.06.03.21.03.25.05.7.52,1.75.69,2.49,1.13h.02s.09.06.11.07c.02,0,.13-.05.13-.05.05.02.03.09.07.11.34.25.71.11.95.38.07-.02.03.01.07-.05.16.17.45.3.69.21-.02.08,0,.05-.07.08v.02c.07.01.07,0,.13-.05.05.05.03.02.03.08.33.18.74.3,1.08.44.05.02.31,0,.31,0,.48.23,1.75.59,2.39.36,0-.04.02-.23.02-.23.07-.02.14-.03.21-.05.15-.11.18-.28.36-.41.33-.24.55-.63.85-.9.23-.2.47-.36.72-.54.42-.3.8-.87,1.16-1.28.09-.1.21-.1.33-.18.06-.08.12-.15.18-.23.16-.15.39-.25.54-.41.39-.42.69-.83,1.03-1.29.25-.34.89-.79,1.05-1.16.21-.15.88,0,1.19.1.1.03.2-.03.25-.02.08.03.24.13.33.11.98-.14,2.21.14,3.27.11.07,0,.05.03.08-.05.04.04,1.81.04,2.18-.03.3-.06.61.16.87-.07.87.19,1.91-.3,3.04-.29.21.34.63.61.87.97.39.57.87,1.14,1.44,1.52.09.11.17.22.26.33.32.35.65.66.95,1.05.06.08.41.37.49.43.05.01.1.02.15.03,0,.02-.01.04-.02.07.13.19.46.52.64.69.21.2.56.36.72.61.16.24.44.56.69.7.23.13.42-.09.61-.1.12,0,.17-.09.25-.11.39-.13.81-.16,1.16-.31.03-.03.02-.02.03-.08.02.02.03.04.05.07.18-.13.57-.26.79-.25,0-.03.01-.05.02-.08.16-.03.6-.02.7-.25.06,0,.11-.02.23-.03,0-.07-.03-.02.02-.07.03.03.03.06.11.03.18-.06.38-.24.57-.34.19-.1.46-.07.67-.2.53-.3,1.08-.43,1.59-.77.21-.14.71-.2.88-.29.07-.03.15-.16.2-.18.05-.03.21-.02.26-.03.2-.06.4-.22.56-.34.24-.19.91-.2.97-.51.3-.22.88-.27,1.08-.61.05-.16.1-.32.15-.47-.03-.22-.03-.58-.07-.8,0-.15.01-.29.02-.44-.27-1.22-.01-2.76-.2-4.24.02-.14.04-.27.07-.41-.05-.42-.11-.84-.16-1.26.07-.19-.09-1.75-.11-1.82.39-.3.66-.47,1-.77.02-.04.03-.09.05-.13.51-.44,1.11-.73,1.51-1.29.15-.21.65-.51.67-.79,0,.03.01.05.02.08.12-.03.2-.15.18-.23.14,0,.99-.94,1.1-1.1.04-.05.05-.03,0-.07.04-.08,0-.05.08-.03.02-.06.01,0,0-.07.26-.27.55-.44.79-.72.13-.15.19-.35.38-.44-.03-.06,0-.02-.05-.05.21-.12.71-.6.8-.83.02-.05-.06-.11,0-.18.07-.02.13-.04.2-.07.08-.08.3-.41.36-.52.08-.14.07-.37.2-.51.14-.15.51-.55.57-.74.62.05,1.3.02,1.8.11.5.1,1.16-.13,1.64.03.03-.04,0,0,.02-.05.17.05.37.03.49.08.05-.04.11-.09.21-.07.41.1,1.5.15,1.59.23.02-.03.04-.07.07-.1.5.18,1.02-.03,1.64.05.14-.03.27-.07.41-.1.37-.08.8-.05.97.21.24-.01.27-.25.31-.39.16-.05.33.02.46-.05.03-.02.41-.86.49-1,.41-.69.7-1.42,1.1-2,.14-.2.39-.94.51-1-.02-.03-.04-.05-.07-.08.18-.2.25-.42.34-.75-.01-.04-.02-.09-.03-.13.05-.05.11-.11.16-.16.18-.36.23-.75.39-1.11.07-.16.22-.35.29-.52.09-.23.2-.76.23-.93l-.03-.1c.08-.14.18-.31.25-.47v-.25c.1-.33.2-.67.29-1,.06-.15.57-1.43.52-1.57-.06-.19-.19-.21-.26-.31h0Z"/>
  <path class="cls-4" d="m110.97,131.47s-.02.08-.03.12c0,.19-.04.53-.1.67-.02.05-.02.17-.04.22-.04.13-.08.26-.13.41-.14.38-.24.72-.43,1.07,0,.03-.02.06-.03.08-.01.01-.02.03-.04.04,0,.02,0,.04,0,.05-.1.17-.22.37-.31.51-.03.05,0,.06-.03.1-.02.03-.07.06-.08.07-.03.02-.05.09-.07.11-.02.03-.06.05-.08.07-.05.07-.09.15-.14.2,0,0-.04.02-.04.02-.1.13-.18.22-.29.35-.06.07-.23.15-.24.24-.01,0,0,0-.03,0v.02s-.33.31-.34.33c0,0,0,0-.01,0v-.02h0c-.04.1-.21.19-.23.26,0,0,0-.01,0-.02-.01.01-.01.02-.04.01,0,.01,0,.03-.01.04-.04.05-.27.21-.31.21,0,0,0,0,0,0-.38.35-.79.52-1.3.76-.06.03-.3.08-.3.08-.03.03-.12.04-.15.06-.12.06-.23.11-.33.18-.06.04-.16.02-.23.05.02,0-.14.05-.16.04,0,0-.26.01-.28.02-.02,0-.15.05-.17.05,0-.01,0,0-.02,0,0,0-.24.03-.3.06-.09.04-.2.04-.3.07-.02,0-.07-.03-.08-.02-.06.02-.15.03-.2.02-.09-.02-.17-.03-.27-.01,0,0,0,0,0-.01-.12,0-.33,0-.4-.03-.07,0-.13,0-.2.01-.14-.04-.47-.05-.61-.09-.09-.02-.24-.02-.3-.07-.02,0-.01,0-.03.01-.03-.03-.14-.04-.17-.05-.02-.01-.04-.03-.05-.04-.01,0-.07,0-.1,0-.17-.07-.34-.12-.51-.22,0,0-.09-.03-.11-.03,0-.01,0,0,0-.02,0,0-.02,0-.03,0,0,0-.01,0,0-.01-.18,0-.38-.15-.6-.22-.23-.07-.42-.2-.63-.32-.09-.05-.16-.14-.25-.2-.26-.16-.47-.3-.67-.48-.14-.13-.25-.23-.36-.36-.02-.03-.12-.12-.13-.15-.04,0-.09-.1-.13-.13-.12-.09-.21-.22-.31-.38-.03-.03-.06-.06-.09-.09-.01-.03-.03-.06-.04-.09-.05-.07-.12-.15-.17-.22-.03-.04-.04-.11-.07-.17-.04-.06-.1-.11-.13-.16-.08-.11-.14-.21-.21-.33-.11-.18-.18-.48-.29-.69-.05-.09-.12-.19-.16-.3-.06-.15-.09-.33-.14-.47-.05-.14-.04-.28-.08-.4,0-.05,0-.11,0-.16-.04-.18-.02-.38-.04-.53,0-.09-.01-.18-.02-.26,0-.04,0-.09,0-.13-.03-.11-.05-.24-.03-.34.01-.1.03-.21.04-.31.01-.08,0-.21.01-.29,0-.04.03-.08.02-.14-.03-.17.04-.33.08-.5,0-.04,0-.08,0-.13.06-.15.05-.29.11-.45.02-.05.06-.11.08-.17.08-.22.14-.43.25-.6,0-.01.1-.33.12-.36.04-.08.11-.15.15-.22.03-.08.07-.16.1-.24.08-.15.2-.31.29-.45.02-.03.01-.07.03-.09.04-.05.08-.1.12-.15.01-.02.01-.05.03-.08.03-.05.1-.08.14-.13.18-.25.36-.49.55-.71.1-.12.23-.19.34-.3.07-.08.15-.15.22-.22-.01,0,0-.01,0-.02.07-.08.09-.17.19-.23.11-.06.18-.14.28-.2.09-.05.18-.09.26-.15.04-.03.17-.06.16-.11.05,0,.22-.08.23-.13,0,0,0,0,0,.01.05-.04.19-.1.2-.15,0,0,.01.01.02.02.08-.03.15-.05.21-.1,0-.02.28-.1.31-.15,0,.02.14-.03.14-.05.02,0,.17,0,.2-.04.03-.01.11,0,.19-.02.18-.06.4-.11.59-.13,0,0,0-.01,0-.02.02,0,.04.02.07,0,.01-.01.01,0,0-.02.01,0,0,0,0,.01.03,0,.15-.02.19-.04.02,0,.04,0,.06,0,.03,0,.04-.03.08-.03,0,0,0,0,0,.01.08-.03.2,0,.28-.02.12-.03.28-.04.42-.07.11-.02.22.03.31-.02.05.04.4.04.44.02.02,0,.01.01.03.03.01,0,.02,0,.04,0,.1.01.2.03.3.04.02,0,.26,0,.32,0,.34.07.68.14,1,.25.05.02.16.02.2.04.09.04.2.1.29.13.04.02.08,0,.13.04.02,0,.01,0,.03-.01.05.06.21.09.3.12.07.03.19.09.25.13.01.01.02.03.04.04.02.01.05.03.06.04,0,0,.01,0,.02,0,.1.1.33.19.47.27.09.05.2.13.28.21.02.02.04.04.06.07.1.05.17.15.27.22.09.06.17.13.26.2.09.07.19.2.27.3.07.08.19.14.25.24.03.04.05.09.08.13.17.16.37.41.51.64.04.06.05.13.09.18.02.02.06.05.07.07.02.03.03.13.06.15.01,0,.03,0,.04,0v.04s.04.05.06.07c.01.03.02.06.03.09.16.16.19.43.33.62,0,.03.01.06.02.09,0,0,.01,0,.02,0,0,0,.02.08.02.09,0,0,.01,0,.02,0,0,.01,0,.03,0,.04,0,.02.04.03.04.05.02.05,0,.09.04.13.01.06.02.12.04.17.04.06.08.15.1.21.05.15.07.32.11.44-.02.06.02.16.03.23v.09c.03.15.05.35.08.49,0,.11,0,.22,0,.33.03.09.02.31.03.44.01.09.02.25,0,.38,0,.05.02.14,0,.18h0Zm5.17,2.4c-.12-.17-.23-.22-.4-.36-.07-.06-.11-.15-.16-.21-.05-.05-.1-.09-.15-.13-.04-.03-.1-.05-.13-.09-.05-.08-.1-.15-.17-.21-.05-.03-.11-.07-.16-.1-.12-.11-.25-.23-.38-.33-.08-.06-.15-.09-.21-.17,0-.01,0,0,0-.01-.04,0-.1-.07-.11-.1-.01-.04.03-.19.03-.26,0-.08-.01-.19.01-.28.03-.1.01-.25.03-.36,0-.04.01-.08.02-.12,0-.06-.02-.13,0-.19.02-.1,0-.26.02-.34.03-.1.03-.36.01-.47-.02-.09-.04-.43-.05-.45-.06-.11-.08-.47-.08-.58.08-.05.15-.15.2-.21.01,0,.02,0,.04,0,.05-.04.09-.11.12-.14h.03c.06-.06.12-.12.19-.18.09-.09.18-.19.27-.28.15-.14.33-.28.46-.45.07-.1.21-.2.31-.27.02-.01.06-.02.08-.05.03-.04.01-.1,0-.13,0,0,0,0,.01,0,0,0-.01-.01-.02-.02,0-.03,0-.03.03-.04.04-.09-.12-.47-.15-.55-.03-.08-.02-.21-.06-.3,0,0-.01-.01-.02-.02-.01-.04-.02-.08-.03-.13,0-.07-.1-.28-.15-.37-.04-.08-.06-.19-.1-.28-.04-.1-.13-.22-.18-.31-.04-.08-.04-.17-.08-.24-.05-.08-.12-.14-.17-.22-.08-.13-.15-.26-.24-.38-.03-.04-.1-.05-.12-.09-.03,0-.03-.03-.03-.07-.1-.07-.26-.04-.34-.05,0,0,0,0,0,.01-.09.02-.24,0-.36.01-.05,0-.25,0-.25,0-.02.02-.46.06-.59.07-.12,0-.18-.02-.27,0-.13.02-.44.08-.51.05-.03.02-.17.01-.19,0-.02-.01-.04-.04-.06-.07,0,0,0,0,0-.01-.1-.09-.12-.18-.21-.28-.05-.06-.11-.09-.16-.15-.08-.1-.15-.19-.24-.28-.02-.03-.04-.06-.06-.09-.12-.1-.23-.24-.33-.36-.1-.12-.31-.25-.44-.36-.06-.05-.11-.12-.17-.17-.08-.06-.16-.1-.22-.18,0,.01-.08-.05-.09-.06-.09-.08-.18-.16-.27-.23-.04-.03,0-.38,0-.42v-.19c0-.16,0-.32,0-.49.02-.24-.01-.54,0-.79.02-.2.06-.41.01-.62-.07-.01-.13-.07-.18-.1-.07-.04-.13-.04-.21-.08-.1-.05-.21-.12-.31-.17-.15-.06-.24-.07-.38-.15-.02.01-.23-.08-.27-.1-.03.03-.34-.12-.36-.14-.07-.05-.41-.11-.44-.17,0,0-.02,0-.03.01-.04-.04-.2-.08-.23-.08,0,0,0,0,0,0-.04-.04-.38-.09-.39-.14-.04,0-.15.01-.19.04-.17.09-.29.26-.44.38-.29.21-.56.52-.76.8-.09.09-.18.18-.28.27-.03.02-.07.03-.08.05-.08.08-.18.17-.26.24-.06.05-.21-.01-.32,0-.04,0-.24-.02-.3-.05,0,0-.2,0-.27,0-.02,0-.21-.03-.21-.03-.05.04-.27,0-.35,0,0,0-.18.01-.18.01-.03,0-.07-.01-.1-.02-.14.02-.28,0-.41.05-.03-.01-.24,0-.29.02-.04.01-.06.03-.09.04-.06,0-.13,0-.19,0-.19.05-.37.05-.48.05-.02,0-.02-.01-.03-.04,0,0-.01,0-.02.01,0-.01-.21-.18-.25-.24,0-.01-.07-.11-.08-.09,0,.01,0,0,0,0-.06-.08-.13-.14-.2-.22,0,0-.07-.05-.06-.06,0-.05-.19-.17-.25-.25-.02-.04-.03-.06-.05-.1-.03-.02-.05-.04-.08-.05-.04-.03-.08-.09-.11-.13-.03-.04-.05-.07-.08-.11-.08-.06-.18-.16-.23-.23-.02,0-.04-.01-.05-.02-.03-.02-.05-.06-.09-.08,0-.03-.01-.07-.02-.1-.02-.01-.04-.02-.06-.04-.07,0-.12.04-.18.07-.08.03-.14,0-.24.04-.06.02-.11.06-.18.08-.03-.01-.31.08-.35.1-.02,0-.04.04-.07.04-.06,0-.17.05-.24.09,0,0,0,0,0,0-.07,0-.17.06-.22.1-.03.02-.2.06-.26.08-.08.03-.16.08-.22.14-.01-.01-.22.09-.24.11-.03,0-.06.01-.09.02-.13.12-.34.16-.47.28,0,0-.1.03-.13.06-.01,0-.02,0-.04-.01,0,.02,0,.01,0,.03-.02.01-.03.03-.05.04.01.04.02.22-.01.26.02.02.01.12,0,.15,0,.03,0,.06,0,.09,0,.03.04.27.04.33,0,.04,0,.08,0,.12.01.08.03.17.04.25.02.1-.01.2,0,.29,0,.04,0,.08,0,.13.02.06.04.23.04.28,0,.17.07.59-.01.73-.02.03-.08.05-.12.08-.07.05-.13.12-.2.17-.12.09-.26.22-.34.34-.01.02-.02.05-.03.07-.06.04-.15.08-.18.11v.02s-.06.03-.08.05c-.01.01,0,.04-.02.05-.04.04-.1.08-.12.14,0,0-.02,0-.03,0v.02s-.03.05-.08.06c0,0,0,0,0,.01-.03,0-.09.09-.13.13-.05.04-.08.11-.13.17-.07.08-.22.14-.23.26,0,0-.01,0-.02,0-.05.05-.3.41-.31.47,0,0,0,0-.01,0,0,.01,0,0,0,.02-.14.13-.28.03-.48.07-.1.02-.27.05-.35.04-.08,0-.16,0-.24-.01-.09.02-.17,0-.24,0-.17.01-.32,0-.42,0-.16-.03-.28.01-.39,0-.05,0-.18-.02-.21-.01-.08.03-.19,0-.25.04-.14.1-.17.33-.26.48-.18.3-.32.61-.46.95-.05.13-.06.24-.11.39-.04.1-.1.21-.13.31,0,.02,0,.06,0,.08-.06.09-.11.32-.15.43v.1c-.03.09-.15.21-.14.32.07.07.12.16.19.23.21.19.39.36.61.53.03.02.05.07.08.1.02.02.06.03.08.05.06.06.1.13.17.17.07.04.12.11.18.15.02.02.04.01.06.03,0,0,0,.01,0,.02.05.05.1.13.16.17.04.03.1.05.14.08.04.02.06.08.1.11.04.03.12.05.15.1.02.02-.01.15-.02.2-.03.12-.04.3-.07.46-.01.06.01.16,0,.21.01.01,0,.02.03.02-.02.08,0,.17-.04.23,0,0,.01,0,.02.01,0,.03,0,.07-.01.11,0,.05,0,.04.03.06-.01.02,0,.02-.03.03.02.05,0,.15.02.21,0,0-.01,0-.02.01,0,.09.02.41.07.49-.03.04.03.36.04.42,0,0-.02,0-.03,0,0,.01.01.02.02.04,0,0,0,0-.01,0,0,.07.01.12.04.19-.02.06,0,.21.01.28-.02,0-.23.24-.23.27-.02.02-.09.05-.08.09,0,0-.07.05-.08.05-.04.04-.06.08-.1.12-.04.03-.1.05-.13.09-.09.1-.16.23-.26.31-.11.08-.23.16-.31.27,0,0,0,0,0,0-.04,0-.22.22-.26.26-.09.08-.26.22-.31.33-.02.05.05.31.07.36h0s.05.2.07.25c-.01.03.04.17.07.18,0,.01,0,.02,0,.03,0,.03.04.21.05.24.03.09.12.2.09.28,0,0,.02,0,.03,0,.02.05.03.11.08.13,0,0-.01,0-.02,0,0,.01,0,.02,0,.04.02,0,0,0,.02,0,0,0,.1.24.11.26,0,0,0,0-.01,0,.01.03.06.06.06.07.03.06.05.16.09.24.02.04.06.06.08.1.02,0,0,0,.02,0h0c.01.06.04.09.06.13,0,0,.04.14.04.14.08.13.16.28.24.42.02.04.09.2.12.21.07.03.15,0,.23.02.13.04.37,0,.49-.01.04,0,.13.03.17.01l.03-.03s.14,0,.18-.02c.06-.01.19,0,.23,0,.1.02.26-.02.37-.03.06,0,.07.01.11-.02.04.03.09.01.14.02,0,0,0-.01.01-.02.05.04.11,0,.18,0,.13.03.3-.02.45,0,.07.13.17.23.26.34.05.07.09.15.14.22.06.06.12.13.18.19.09.11.17.23.27.33.01,0,0,0,.01,0,.04.05.09.08.14.13.05.04.07.11.12.15.11.08.23.18.34.25.02.03.04.05.06.08.1.07.19.16.29.25.12.1.28.16.37.28-.03.12-.03.5,0,.59-.02.04-.03.13-.02.17.01.06.04.19.04.24,0,.03,0,.16,0,.16,0,.04.01.09.02.13-.03.11,0,.25-.03.36-.05.27-.01.52-.03.78.03.04.06.04.12.07.03.02.05.05.08.07.05.04.12.07.17.1.03.02.07.01.09.03.1.08.26.12.38.17.02,0,.06,0,.07.01.19.14.48.19.68.31h0s.02.02.03.02c0,0,.04-.01.04-.01.01,0,0,.02.02.03.09.07.19.03.26.1.02,0,0,0,.02-.01.04.05.12.08.19.06,0,.02,0,.01-.02.02h0s.02,0,.04,0c.01.01,0,0,0,.02.09.05.2.08.3.12.01,0,.08,0,.08,0,.13.06.48.16.65.1,0-.01,0-.06,0-.06.02,0,.04,0,.06-.01.04-.03.05-.08.1-.11.09-.07.15-.17.23-.25.06-.06.13-.1.2-.15.11-.08.22-.24.32-.35.02-.03.06-.03.09-.05.02-.02.03-.04.05-.06.04-.04.11-.07.15-.11.11-.11.19-.23.28-.35.07-.09.24-.22.29-.32.06-.04.24,0,.33.03.03,0,.05,0,.07,0,.02,0,.07.03.09.03.27-.04.6.04.89.03.02,0,.01,0,.02-.01,0,.01.49.01.59,0,.08-.02.17.04.24-.02.24.05.52-.08.83-.08.06.09.17.17.24.26.11.16.24.31.39.42.02.03.05.06.07.09.09.1.18.18.26.29.02.02.11.1.13.12.01,0,.03,0,.04,0,0,0,0,.01,0,.02.03.05.13.14.17.19.06.05.15.1.2.17.04.06.12.15.19.19.06.04.12-.03.17-.03.03,0,.05-.02.07-.03.11-.04.22-.04.32-.08,0,0,0,0,0-.02,0,0,0,.01.01.02.05-.04.16-.07.21-.07,0,0,0-.01,0-.02.04,0,.16,0,.19-.07.02,0,.03,0,.06,0,0-.02,0,0,0-.02,0,0,0,.02.03,0,.05-.02.1-.07.16-.09.05-.03.13-.02.18-.05.14-.08.3-.12.43-.21.06-.04.19-.06.24-.08.02,0,.04-.04.05-.05.01,0,.06,0,.07,0,.05-.02.11-.06.15-.09.07-.05.25-.06.26-.14.08-.06.24-.07.3-.17.01-.04.03-.09.04-.13,0-.06,0-.16-.02-.22,0-.04,0-.08,0-.12-.07-.33,0-.75-.05-1.16,0-.04.01-.07.02-.11-.01-.11-.03-.23-.04-.34.02-.05-.03-.48-.03-.5.11-.08.18-.13.27-.21,0-.01,0-.02.01-.04.14-.12.3-.2.41-.35.04-.06.18-.14.18-.21,0,0,0,.01,0,.02.03,0,.06-.04.05-.06.04,0,.27-.26.3-.3.01-.01.01,0,0-.02.01-.02,0-.01.02,0,0-.02,0,0,0-.02.07-.07.15-.12.21-.2.03-.04.05-.1.1-.12,0-.02,0,0-.01-.01.06-.03.19-.16.22-.23,0-.01-.02-.03,0-.05.02,0,.04-.01.05-.02.02-.02.08-.11.1-.14.02-.04.02-.1.05-.14.04-.04.14-.15.16-.2.17.01.35,0,.49.03.14.03.32-.04.45,0,0-.01,0,0,0-.01.05.01.1,0,.13.02.01-.01.03-.02.06-.02.11.03.41.04.43.06,0,0,.01-.02.02-.03.14.05.28,0,.45.01.04,0,.07-.02.11-.03.1-.02.22-.01.26.06.07,0,.07-.07.08-.11.04-.01.09,0,.13-.01,0,0,.11-.24.13-.27.11-.19.19-.39.3-.55.04-.05.11-.26.14-.27,0,0-.01-.01-.02-.02.05-.05.07-.11.09-.21,0-.01,0-.02,0-.04.01-.01.03-.03.04-.04.05-.1.06-.2.11-.3.02-.04.06-.1.08-.14.03-.06.05-.21.06-.25v-.03s.04-.08.06-.13v-.07c.03-.09.05-.18.08-.27.02-.04.16-.39.14-.43-.02-.05-.05-.06-.07-.08h0Z"/>
  <path class="cls-4" d="m206.56,71.05c-.02.1-.04.2-.07.3.02.47-.1,1.32-.26,1.67-.05.12-.05.43-.09.56-.09.32-.19.66-.32,1.02-.34.95-.61,1.78-1.08,2.66-.02.07-.04.14-.07.21-.03.03-.06.07-.09.1,0,.04,0,.09-.01.13-.26.43-.55.91-.78,1.28-.07.11-.01.16-.07.26-.05.08-.17.15-.2.18-.06.06-.13.22-.17.28-.04.07-.14.12-.19.18-.12.17-.22.37-.36.49-.02.02-.11.04-.11.04-.24.33-.44.56-.71.87-.16.18-.56.37-.6.6-.03.02-.02.02-.07.02v.06c-.08,0-.82.77-.83.81-.01,0-.02.01-.03.02v-.04h-.02c-.09.24-.52.46-.57.64,0-.02,0-.04-.01-.06-.04.03-.04.04-.09.03-.01.04-.02.07-.03.11-.1.12-.67.52-.78.52,0,0,.01.01.02.02-.94.86-1.96,1.28-3.22,1.88-.15.07-.74.21-.74.21-.07.08-.29.1-.38.14-.29.15-.58.27-.82.44-.14.1-.39.06-.57.13.04-.01-.35.12-.4.11-.02,0-.64.03-.7.06-.06.02-.37.14-.43.12-.02-.03,0,0-.04-.01-.02,0-.6.08-.76.14-.22.09-.5.11-.74.17-.04-.02-.16-.07-.21-.06-.15.05-.36.08-.49.04-.21-.06-.43-.08-.67-.03,0-.01.01-.02.02-.03-.3.02-.81,0-1-.07-.16.01-.33.02-.49.03-.35-.1-1.18-.13-1.51-.22-.21-.06-.59-.04-.76-.17-.05,0-.03,0-.07.03-.07-.08-.35-.1-.43-.13-.04-.03-.09-.07-.13-.1-.04.02-.17,0-.24-.02-.41-.17-.85-.3-1.28-.54,0,0-.21-.09-.27-.08-.02-.03,0,0-.01-.06-.02,0-.04,0-.07.01-.02-.01-.03,0-.02-.03-.45,0-.95-.37-1.5-.54-.56-.18-1.04-.5-1.56-.8-.22-.12-.4-.36-.61-.49-.64-.39-1.18-.74-1.67-1.2-.34-.32-.62-.58-.89-.89-.06-.07-.31-.31-.31-.37-.11.01-.23-.26-.33-.33-.3-.22-.53-.56-.78-.94-.07-.08-.15-.16-.22-.23-.03-.08-.07-.16-.1-.23-.13-.19-.3-.37-.43-.56-.07-.1-.1-.28-.18-.41-.09-.15-.25-.27-.33-.39-.19-.27-.35-.53-.53-.82-.28-.45-.46-1.19-.72-1.71-.12-.24-.29-.48-.39-.73-.14-.37-.22-.81-.34-1.17-.12-.34-.09-.69-.2-.99,0-.13-.01-.27-.02-.4-.11-.45-.05-.93-.11-1.32-.02-.22-.04-.44-.06-.66,0-.11,0-.22.01-.33-.07-.26-.12-.59-.08-.86.04-.26.07-.52.11-.78.03-.2-.01-.52.03-.72.02-.09.07-.21.04-.34-.08-.42.1-.82.2-1.24,0-.1.01-.21.02-.31.15-.36.13-.71.28-1.12.05-.14.14-.28.19-.42.2-.54.36-1.06.61-1.5-.02-.03.25-.82.29-.9.1-.21.27-.37.38-.56.08-.2.16-.39.24-.59.21-.38.48-.78.71-1.11.05-.08.03-.16.08-.23.09-.13.21-.24.29-.38.03-.06.03-.13.08-.2.08-.12.25-.2.34-.33.44-.63.89-1.22,1.37-1.77.25-.29.58-.46.84-.73.19-.19.37-.37.56-.56-.03-.02,0-.03.01-.04.17-.2.23-.43.48-.57.27-.14.46-.34.7-.49.22-.13.45-.23.64-.38.1-.07.41-.14.39-.27.12-.02.54-.21.58-.31,0,.01.01.02.02.03.12-.1.47-.24.5-.38.01.01.03.03.04.04.19-.08.38-.13.52-.24.02-.04.69-.25.78-.37.02.05.34-.08.34-.13.06.02.43-.02.49-.11.08-.03.27.02.47-.04.46-.15,1-.27,1.47-.33,0-.02-.01-.04-.02-.06.05,0,.11.04.17.02.04-.03.03-.01.02-.06.04.02.01,0,.02.03.08-.01.38-.04.47-.09.05,0,.1.01.14.02.07-.02.11-.07.21-.08,0,.01-.01.02-.02.03.21-.07.49.01.69-.04.29-.08.7-.1,1.03-.17.27-.06.55.07.77-.04.12.09,1,.1,1.1.04.06.02.03.03.07.07.03,0,.06,0,.09-.01.25.03.5.07.74.1.05-.02.64,0,.79.02.85.19,1.7.34,2.48.62.13.05.41.04.5.09.23.11.49.24.72.33.1.04.21.02.31.11.05-.01.04-.01.07-.03.12.15.52.21.74.3.16.06.48.21.62.33.04.03.06.09.1.11.05.03.12.07.16.09.02,0,.04-.01.06-.02.25.26.81.46,1.16.67.23.13.49.33.69.51.05.06.1.11.16.17.24.13.43.38.68.56.22.15.43.32.64.49.22.18.46.5.67.73.18.21.48.36.63.59.06.09.12.23.2.31.41.39.92,1.02,1.27,1.58.1.16.13.32.23.46.04.05.15.13.18.17.05.08.08.32.16.38.03.02.07-.01.09.02v.1c.03.07.11.12.14.18.03.08.05.16.08.23.39.39.48,1.07.81,1.53.02.08.04.16.06.23.02,0,.04.01.06.02-.01,0,.04.2.06.22.02,0,.04,0,.06.01,0,.04,0,.07.01.11.02.04.09.08.11.13.05.13.02.22.1.32.03.14.06.29.09.43.1.14.19.36.26.53.13.37.17.78.28,1.09-.05.15.04.39.08.58,0,.08-.01.16-.02.23.08.38.15.86.22,1.21,0,.27.01.54.02.81.08.22.04.78.08,1.09.03.22.05.61,0,.94-.02.13.04.35.01.46h0Zm12.85,5.96c-.3-.42-.57-.56-.99-.9-.17-.14-.26-.38-.4-.51-.12-.11-.25-.22-.37-.33-.09-.08-.25-.12-.31-.22-.12-.2-.24-.37-.41-.52-.13-.09-.27-.17-.4-.26-.3-.27-.61-.57-.93-.82-.2-.15-.36-.22-.52-.41-.02-.03,0,0,.01-.03-.11,0-.24-.18-.27-.26-.03-.11.06-.48.08-.64.02-.21-.03-.46.03-.69.07-.24.03-.63.08-.9.01-.1.03-.19.04-.29-.02-.14-.06-.32-.02-.48.06-.25,0-.65.06-.83.08-.24.08-.91.03-1.17-.04-.23-.11-1.06-.13-1.11-.15-.28-.21-1.16-.19-1.43.19-.12.38-.37.5-.53.03,0,.06-.01.09-.02.12-.09.22-.27.29-.36h.07c.16-.15.31-.3.47-.44.24-.22.44-.48.68-.69.38-.34.82-.7,1.14-1.12.18-.24.53-.5.78-.67.05-.03.14-.06.19-.12.08-.1.03-.25.02-.33.01-.02,0,0,.03-.01-.01-.02-.03-.04-.04-.06,0-.07.01-.07.07-.09.1-.22-.3-1.16-.38-1.36-.09-.21-.05-.53-.14-.73-.01-.02-.03-.04-.04-.06-.03-.1-.05-.21-.08-.31.02-.19-.24-.69-.37-.91-.11-.2-.15-.46-.26-.7-.11-.26-.32-.55-.44-.78-.1-.19-.1-.43-.21-.6-.12-.19-.3-.35-.42-.54-.21-.33-.37-.65-.59-.94-.08-.11-.24-.13-.3-.23-.07-.02-.07-.07-.08-.17-.24-.18-.64-.1-.84-.13,0,.01,0,.02.01.03-.23.04-.61.02-.9.03-.14,0-.62.02-.62.02-.05.04-1.16.15-1.48.17-.3.02-.45-.06-.68-.02-.33.06-1.08.2-1.27.13-.08.05-.42.03-.48-.01-.05-.04-.11-.09-.14-.17,0-.01.01-.02.02-.03-.25-.22-.29-.44-.51-.7-.13-.15-.28-.23-.4-.38-.21-.25-.37-.46-.6-.7-.05-.08-.1-.16-.14-.23-.3-.25-.58-.59-.82-.9-.24-.31-.77-.62-1.09-.9-.15-.13-.26-.31-.42-.42-.21-.15-.4-.25-.56-.46-.01.03-.19-.13-.22-.14-.22-.19-.44-.39-.67-.58-.09-.06.01-.95-.01-1.06v-.47c0-.4,0-.81.01-1.21.06-.6-.03-1.35.02-1.97.04-.49.15-1.02.03-1.53-.17-.03-.32-.18-.46-.26-.18-.1-.32-.1-.51-.19-.25-.12-.51-.31-.78-.42-.36-.16-.58-.18-.94-.37-.04.03-.58-.2-.67-.26-.07.07-.85-.31-.9-.34-.18-.14-1.02-.27-1.09-.43-.02.01-.04.02-.07.03-.11-.09-.5-.21-.58-.2-.02-.02-.01,0-.01-.02-.1-.09-.93-.21-.98-.34-.1.02-.36.03-.47.09-.42.23-.71.66-1.09.93-.71.53-1.38,1.29-1.9,1.99-.23.22-.46.44-.69.67-.07.06-.17.08-.21.12-.2.19-.44.43-.64.59-.15.12-.52-.03-.8,0-.09.01-.6-.04-.74-.13,0,0-.51,0-.67-.02-.04,0-.52-.08-.52-.08-.13.11-.68.02-.87-.02-.02,0-.44.03-.44.03-.09-.02-.17-.04-.26-.06-.34.04-.7,0-1.02.13-.06-.04-.6.01-.71.04-.1.03-.14.08-.23.11-.16,0-.32.01-.48.02-.46.12-.92.12-1.19.12-.04-.02-.06-.03-.07-.09-.01.01-.03.02-.04.03,0-.03-.52-.45-.63-.59-.02-.03-.17-.26-.21-.23,0,.03-.02-.02-.02-.02-.15-.2-.33-.36-.49-.56-.01-.02-.17-.12-.16-.14-.02-.14-.48-.42-.61-.61-.06-.09-.07-.15-.12-.24-.06-.04-.13-.09-.19-.13-.1-.08-.19-.22-.28-.31-.07-.09-.13-.18-.2-.27-.2-.14-.45-.4-.58-.58-.04-.01-.09-.03-.13-.04-.08-.06-.12-.15-.23-.19-.01-.08-.03-.16-.04-.24-.05-.03-.1-.06-.16-.09-.18,0-.3.11-.44.17-.19.07-.34.01-.59.1-.14.05-.28.15-.44.2-.08-.03-.76.21-.87.26-.05.02-.1.1-.18.09-.16-.02-.42.13-.6.23,0,0-.01,0-.02.01-.17.01-.43.16-.56.26-.08.06-.5.14-.66.2-.2.07-.41.21-.56.34-.03-.03-.54.23-.6.27-.08.01-.16.03-.23.04-.33.29-.84.4-1.18.69-.02-.02-.25.08-.31.14-.03-.01-.06-.02-.09-.03-.02.05-.01.03.01.08-.04.04-.08.07-.12.11.03.11.04.54-.03.66.04.04.03.3.02.38,0,.08,0,.16-.01.23.02.07.1.67.09.81,0,.1-.01.19-.02.29.03.21.07.42.1.63.05.24-.03.49.01.72,0,.1,0,.21-.01.31.05.16.11.56.11.69,0,.43.17,1.47-.03,1.81-.05.08-.19.13-.29.19-.18.11-.32.3-.5.42-.31.21-.64.55-.86.83-.03.06-.05.12-.08.18-.14.11-.37.19-.46.27v.06c-.05.08-.15.08-.19.13-.03.04-.02.09-.06.12-.1.11-.24.19-.3.34-.02,0-.04,0-.07.01v.06c-.06.04-.09.14-.19.16,0,.01.01.02.02.03-.08-.01-.23.23-.32.31-.12.1-.2.27-.32.42-.16.21-.55.35-.58.64-.01,0-.03,0-.04-.01-.12.14-.75,1.01-.77,1.17-.01,0-.02-.01-.03-.02,0,.03,0,.01.01.04-.35.32-.69.07-1.19.18-.25.06-.67.13-.88.09-.2-.01-.39-.02-.59-.03-.23.05-.43-.01-.6,0-.42.03-.8.02-1.06-.02-.4-.07-.69.03-.98-.01-.13-.02-.46-.06-.52-.03-.2.08-.47-.02-.63.09-.34.24-.43.83-.64,1.19-.45.75-.79,1.53-1.14,2.37-.14.32-.14.61-.28.97-.1.26-.25.53-.33.77-.02.05,0,.16-.02.19-.15.22-.28.79-.37,1.07v.26c-.09.23-.36.53-.36.8.18.17.3.4.48.57.51.48.97.9,1.52,1.32.07.06.13.17.19.24.05.06.16.07.21.12.15.16.24.32.43.43.17.1.29.26.44.37.06.04.11.03.16.07-.02.02,0,.03.02.04.13.12.24.31.39.41.11.07.24.13.36.2.1.06.15.2.24.27.11.07.3.13.37.24.06.05-.03.38-.06.5-.08.3-.1.75-.18,1.13-.03.16.03.4-.02.51.03.03.02.04.07.06-.05.21-.02.42-.1.58.01.01.03.02.04.03-.02.08,0,.18-.03.28,0,.12.02.11.08.16-.03.04-.02.05-.07.08.06.13,0,.37.06.51-.01.01-.03.02-.04.03,0,.23.05,1.03.17,1.21-.07.09.07.9.1,1.03-.02,0-.04.01-.07.02.01.03.03.06.04.09-.01,0-.02-.01-.03-.02-.02.19.03.3.09.47-.06.15.02.53.03.7-.04.02-.57.61-.58.68-.04.05-.23.13-.19.22-.02.02-.18.12-.21.12-.09.09-.15.21-.24.29-.1.08-.24.14-.32.23-.22.25-.39.57-.66.77-.27.2-.57.41-.77.67,0,0,.01.01.02.02-.1-.02-.54.54-.66.66-.23.21-.65.54-.77.82-.05.12.11.78.17.9h0c0,.07.13.49.18.62-.03.06.11.41.17.46,0,.03,0,.05-.01.08-.02.07.1.52.12.59.07.23.3.49.22.7.02,0,.04.01.07.02.05.11.07.28.19.32-.01,0-.03.01-.04.02,0,.03.01.06.02.09.04.02.01.02.04,0,0,0,.25.61.27.66-.01,0-.02,0-.03-.01.03.06.14.14.16.18.07.16.12.41.23.59.06.09.15.15.19.26.04,0,.01,0,.04-.02h.01c.03.14.1.22.16.31,0,.01.1.34.11.36.19.33.41.69.6,1.03.05.1.23.49.3.52.17.09.38-.02.58.04.32.11.91.02,1.21-.03.09-.02.31.07.42.03l.07-.07c.09-.04.35-.02.44-.04.15-.03.48,0,.57.02.24.06.64-.05.91-.08.14-.01.17.03.27-.04.11.07.22.03.36.04.01-.02.02-.04.03-.06.13.11.27-.01.44.02.32.07.73-.04,1.11-.02.18.32.42.58.64.84.11.18.23.36.34.54.15.16.3.31.44.47.21.27.42.57.67.81.03.02,0,0,.03-.01.09.13.23.21.36.31.12.1.17.28.3.37.28.2.56.45.83.62.05.06.1.13.14.19.25.18.47.41.72.61.3.24.69.4.91.69-.08.29-.07,1.25,0,1.48-.05.1-.08.32-.06.43.03.15.1.47.09.59,0,.06-.01.39-.01.39.01.11.03.21.04.32-.07.27-.02.63-.07.9-.12.68-.03,1.28-.07,1.94.08.11.16.1.29.17.06.06.13.12.19.18.12.09.29.18.41.24.07.04.17.03.22.07.24.2.65.29.94.42.04.02.15.02.17.03.47.35,1.19.47,1.69.77h.01s.06.04.08.04c.01,0,.09-.03.09-.03.03.01.02.06.04.08.23.17.48.08.64.26.05-.02.02,0,.04-.03.11.12.31.2.47.14-.01.05,0,.03-.04.06h0c.05.02.05,0,.09-.02.04.03.02.01.02.06.23.12.51.21.73.3.03.01.21,0,.21,0,.33.16,1.19.4,1.62.24,0-.03.01-.16.01-.16.05-.01.1-.02.14-.03.1-.07.12-.19.24-.28.22-.17.37-.43.58-.61.15-.14.32-.25.49-.37.28-.2.54-.59.79-.87.06-.07.14-.07.22-.12.04-.05.08-.1.12-.16.11-.1.26-.17.37-.28.26-.28.47-.56.7-.88.17-.23.61-.54.71-.79.14-.1.6,0,.81.07.07.02.13-.02.17-.01.06.02.16.09.22.08.66-.09,1.5.1,2.22.08.05,0,.03.02.06-.03.02.03,1.23.03,1.48-.02.21-.04.42.11.59-.04.59.13,1.3-.2,2.07-.2.15.23.42.41.59.66.26.39.59.77.98,1.03.06.07.12.15.18.22.21.24.44.45.64.71.04.05.28.25.33.29.03,0,.07.01.1.02,0,.01,0,.03-.01.04.09.13.32.35.43.47.14.14.38.25.49.41.11.16.3.38.47.48.15.09.29-.06.41-.07.08,0,.11-.06.17-.08.27-.09.55-.11.79-.21.02-.02.02-.01.02-.06.01.01.02.03.03.04.13-.09.39-.18.53-.17,0-.02,0-.04.01-.06.11-.02.4-.01.48-.17.04,0,.07-.01.16-.02,0-.05-.02-.01.01-.04.02.02.02.04.08.02.12-.04.26-.16.39-.23.13-.07.31-.05.46-.13.36-.21.74-.29,1.08-.52.14-.1.48-.14.6-.2.04-.02.1-.11.13-.12.03-.02.14-.01.18-.02.13-.04.27-.15.38-.23.17-.13.62-.14.66-.34.21-.15.6-.18.73-.41.03-.11.07-.21.1-.32-.02-.15-.02-.39-.04-.54,0-.1,0-.2.01-.3-.19-.83,0-1.87-.13-2.88.01-.09.03-.19.04-.28-.04-.29-.07-.57-.11-.86.05-.13-.06-1.19-.08-1.23.27-.2.45-.32.68-.52.01-.03.02-.06.03-.09.35-.3.76-.5,1.02-.88.1-.14.44-.35.46-.53,0,.02,0,.04.01.06.08-.02.14-.1.12-.16.09,0,.67-.64.74-.74.03-.04.04-.02,0-.04.03-.05,0-.03.06-.02.02-.04,0,0,0-.04.18-.18.37-.3.53-.49.09-.1.13-.24.26-.3-.02-.04,0-.01-.03-.03.15-.08.48-.4.54-.57.01-.03-.04-.07,0-.12.04-.01.09-.03.13-.04.05-.05.2-.28.24-.36.05-.09.05-.25.13-.34.1-.1.35-.37.39-.5.42.03.88.01,1.22.08.34.06.79-.09,1.11.02.02-.03,0,0,.01-.03.11.03.25.02.33.06.03-.03.08-.06.14-.04.28.07,1.02.1,1.08.16.01-.02.03-.04.04-.07.34.12.69-.02,1.11.03.09-.02.19-.04.28-.07.25-.06.54-.04.66.14.17-.01.18-.17.21-.27.11-.03.23.01.31-.03.02-.01.28-.59.33-.68.28-.47.48-.97.74-1.36.09-.14.27-.64.34-.68-.01-.02-.03-.04-.04-.06.12-.13.17-.28.23-.51,0-.03-.01-.06-.02-.09.04-.04.07-.07.11-.11.12-.24.15-.51.27-.76.05-.11.15-.24.2-.36.06-.15.14-.52.16-.63l-.02-.07c.06-.09.12-.21.17-.32v-.17c.07-.23.13-.45.2-.68.04-.1.39-.97.36-1.07-.04-.13-.13-.14-.18-.21h0Z"/>
  <path class="cls-2" d="m155.83,24.02c-.02.07-.03.15-.05.22.02.36-.08.99-.19,1.25-.04.09-.04.32-.07.42-.07.24-.14.49-.24.77-.25.71-.45,1.34-.81,1.99-.02.05-.03.11-.05.16-.02.02-.04.05-.07.07,0,.03,0,.07,0,.1-.19.32-.41.68-.58.96-.05.09,0,.12-.05.19-.03.06-.13.11-.15.13-.05.05-.1.17-.12.21-.03.05-.11.09-.14.13-.09.13-.17.28-.27.37-.01.01-.08.03-.08.03-.18.25-.33.42-.53.65-.12.13-.42.28-.45.45-.02.01-.02.01-.05.02v.04c-.06,0-.61.58-.62.61,0,0-.02.01-.02.02v-.03h-.02c-.07.18-.39.35-.42.48,0-.01,0-.03,0-.04-.03.02-.03.03-.07.02,0,.03-.02.06-.02.08-.08.09-.5.39-.58.39,0,0,.01.01.02.02-.7.64-1.47.96-2.41,1.41-.12.05-.56.16-.56.16-.05.06-.22.07-.28.11-.22.11-.43.2-.62.33-.11.08-.29.04-.42.1.03,0-.26.09-.3.08-.02,0-.48.02-.52.04-.05.02-.28.1-.32.09-.02-.02,0,0-.03,0-.02,0-.45.06-.57.11-.16.07-.37.08-.56.12-.03-.02-.12-.05-.16-.04-.11.03-.27.06-.37.03-.16-.04-.32-.06-.5-.02,0,0,.01-.02.02-.02-.22.01-.61,0-.75-.05-.12,0-.24.02-.37.02-.26-.07-.88-.1-1.13-.17-.16-.04-.44-.03-.57-.12-.04,0-.02,0-.05.02-.05-.06-.26-.07-.32-.1-.03-.02-.07-.05-.1-.07-.03.01-.13,0-.18-.02-.31-.13-.64-.23-.96-.41,0,0-.16-.06-.2-.06-.01-.03,0,0,0-.04-.02,0-.03,0-.05,0-.02,0-.02,0-.02-.02-.34,0-.71-.27-1.12-.41-.42-.14-.78-.38-1.17-.6-.16-.09-.3-.27-.46-.37-.48-.29-.88-.56-1.25-.9-.26-.24-.47-.44-.67-.67-.05-.05-.23-.23-.23-.27-.08,0-.17-.19-.25-.25-.22-.17-.39-.42-.58-.71-.06-.06-.11-.12-.17-.17-.02-.06-.05-.12-.07-.17-.1-.14-.23-.28-.32-.42-.05-.08-.07-.21-.13-.31-.07-.11-.18-.2-.25-.29-.15-.2-.26-.4-.4-.62-.21-.34-.34-.89-.54-1.28-.09-.18-.22-.36-.29-.55-.11-.27-.16-.61-.26-.87-.09-.26-.07-.52-.15-.74,0-.1-.01-.2-.02-.3-.08-.34-.04-.7-.08-.99-.01-.16-.03-.33-.04-.49,0-.08,0-.17,0-.25-.06-.2-.09-.44-.06-.64.03-.19.06-.39.08-.58.02-.15,0-.39.02-.54.01-.07.05-.16.03-.26-.06-.32.07-.62.15-.93,0-.08.01-.16.02-.23.11-.27.1-.54.21-.84.04-.1.1-.21.14-.32.15-.41.27-.8.46-1.12-.02-.02.19-.62.22-.67.07-.16.2-.28.28-.42.06-.15.12-.29.18-.44.15-.29.36-.58.53-.83.04-.06.02-.12.06-.17.07-.1.16-.18.22-.28.02-.04.02-.1.06-.15.06-.09.19-.15.26-.25.33-.47.66-.91,1.02-1.32.19-.22.43-.35.63-.55.14-.14.28-.28.42-.42-.02-.02,0-.03,0-.03.13-.15.17-.33.36-.42.2-.11.34-.26.52-.37.16-.1.33-.17.48-.28.07-.05.31-.11.29-.2.09-.01.4-.15.43-.23,0,0,.01.02.02.02.09-.08.35-.18.37-.28.01.01.02.02.03.03.15-.06.29-.1.39-.18.01-.03.52-.19.58-.27.02.04.25-.06.26-.1.04.02.32-.01.37-.08.06-.02.2.02.35-.03.34-.12.75-.2,1.1-.25,0-.01-.01-.03-.02-.04.04,0,.08.03.12.02.03-.02.02,0,.02-.04.03.01,0,0,.02.02.06,0,.29-.03.35-.07.04,0,.07.01.11.02.06-.02.08-.06.16-.06,0,0-.01.02-.02.02.16-.05.37,0,.52-.03.21-.06.52-.07.77-.12.2-.04.41.05.57-.03.09.07.75.08.82.03.05.01.02.03.05.05.02,0,.04,0,.07,0,.19.02.37.05.56.07.04-.02.48,0,.59.02.64.14,1.27.26,1.86.47.1.04.3.03.37.07.17.08.37.18.54.25.08.03.16.02.23.08.04,0,.03,0,.05-.02.09.11.39.16.56.22.12.05.36.16.47.25.03.02.04.06.07.08.03.02.09.06.12.07.01,0,.03-.01.04-.02.19.19.61.35.87.5.17.1.37.25.52.38.04.04.08.08.12.12.18.1.32.29.51.42.17.12.33.24.48.37.16.13.35.38.5.55.14.15.36.27.47.44.05.07.09.18.15.23.31.29.69.76.95,1.18.07.12.1.24.17.34.03.04.12.1.13.12.04.06.06.24.12.28.02.02.05-.01.07.02v.07s.08.09.11.13c.02.06.04.12.06.17.29.29.36.8.61,1.15.01.06.03.12.04.17.01,0,.03.01.04.02,0,0,.03.15.04.17.01,0,.03,0,.04,0,0,.03,0,.06,0,.08.02.03.07.06.08.1.04.1.01.16.07.24.02.11.04.22.07.32.08.11.15.27.19.4.1.28.13.59.21.82-.04.11.03.29.06.43l-.02.17c.06.29.11.65.17.91,0,.2.01.41.02.61.06.16.03.58.06.82.02.17.04.46,0,.71-.01.09.03.26,0,.34h0Zm9.63,4.46c-.23-.32-.43-.42-.74-.67-.13-.1-.2-.28-.3-.38-.09-.09-.18-.17-.27-.25-.07-.06-.19-.09-.23-.17-.09-.15-.18-.28-.31-.39-.1-.06-.2-.13-.3-.19-.23-.2-.46-.43-.7-.62-.15-.12-.27-.17-.39-.31-.01-.02,0,0,0-.02-.08,0-.18-.14-.2-.19-.02-.08.05-.36.06-.48.01-.15-.02-.35.02-.52.05-.18.02-.47.06-.67.01-.07.02-.14.03-.22-.01-.11-.05-.24-.02-.36.05-.19,0-.49.04-.62.06-.18.06-.68.02-.87-.03-.17-.08-.79-.1-.83-.11-.21-.16-.87-.14-1.07.14-.09.28-.28.37-.4.02,0,.04-.01.07-.02.09-.07.17-.2.22-.27h.05c.12-.11.23-.22.35-.33.18-.16.33-.36.51-.52.28-.26.61-.52.86-.84.14-.18.4-.37.58-.5.04-.02.11-.04.14-.09.06-.07.02-.19.02-.25,0-.02,0,0,.02,0-.01-.01-.02-.03-.03-.04,0-.05,0-.05.05-.07.08-.16-.22-.87-.28-1.02-.06-.16-.04-.4-.11-.55-.01-.01-.02-.03-.03-.04-.02-.08-.04-.16-.06-.23.02-.14-.18-.51-.27-.68-.08-.15-.11-.34-.19-.52-.08-.19-.24-.41-.33-.58-.08-.14-.08-.32-.16-.45-.09-.14-.23-.27-.32-.41-.16-.25-.28-.49-.44-.71-.06-.08-.18-.1-.22-.17-.06-.02-.06-.06-.06-.12-.18-.13-.48-.08-.63-.1,0,0,0,.02,0,.02-.17.03-.46.01-.67.02-.1,0-.47.02-.47.02-.04.03-.87.11-1.11.12-.22.01-.34-.05-.51-.02-.25.04-.81.15-.95.1-.06.04-.32.02-.36,0-.04-.03-.08-.07-.11-.12,0,0,.01-.02.02-.02-.19-.17-.22-.33-.38-.52-.09-.11-.21-.17-.3-.28-.16-.19-.28-.35-.45-.52-.04-.06-.07-.12-.11-.17-.22-.19-.44-.44-.62-.67-.18-.23-.58-.46-.82-.67-.11-.1-.2-.23-.32-.32-.15-.11-.3-.19-.42-.34,0,.02-.15-.09-.17-.11-.17-.14-.33-.29-.5-.43-.07-.05.01-.71,0-.79v-.35c0-.3,0-.61,0-.91.04-.45-.02-1.01.02-1.47.03-.37.11-.76.02-1.15-.12-.02-.24-.14-.34-.19-.14-.07-.24-.07-.38-.14-.19-.09-.38-.23-.58-.32-.27-.12-.44-.14-.71-.27-.03.02-.44-.15-.5-.19-.05.05-.64-.23-.67-.26-.13-.1-.76-.2-.82-.32-.02,0-.03.02-.05.02-.08-.07-.37-.15-.43-.15-.01-.01,0,0,0-.02-.07-.07-.7-.16-.73-.26-.08.01-.27.02-.35.07-.32.17-.54.49-.82.7-.53.4-1.04.96-1.42,1.49-.17.17-.34.33-.52.5-.05.04-.13.06-.16.09-.15.15-.33.32-.48.44-.11.09-.39-.03-.6,0-.07,0-.45-.03-.56-.1,0,0-.38,0-.5-.02-.03,0-.39-.06-.39-.06-.1.08-.51.02-.65-.02-.02,0-.33.02-.33.02-.06-.01-.13-.03-.19-.04-.25.03-.53,0-.77.1-.05-.03-.45,0-.53.03-.07.02-.1.06-.17.08-.12,0-.24.01-.36.02-.35.09-.69.09-.89.09-.03-.02-.04-.02-.05-.07-.01,0-.02.02-.03.02,0-.02-.39-.34-.47-.44-.02-.02-.12-.2-.16-.17,0,.02-.01-.01-.02-.02-.11-.15-.25-.27-.37-.42,0-.01-.13-.09-.12-.11-.02-.1-.36-.32-.46-.46-.04-.07-.05-.11-.09-.18-.05-.03-.09-.07-.14-.1-.08-.06-.14-.16-.21-.23-.05-.07-.1-.13-.15-.2-.15-.11-.34-.3-.43-.43-.03-.01-.07-.02-.1-.03-.06-.04-.09-.11-.17-.14-.01-.06-.02-.12-.03-.18-.04-.02-.08-.04-.12-.07-.14,0-.22.08-.33.12-.15.06-.25.01-.44.07-.11.04-.21.11-.33.15-.06-.02-.57.16-.65.19-.04.02-.07.07-.13.07-.12-.02-.31.09-.45.17,0,0-.01,0-.02,0-.12.01-.32.12-.42.19-.06.05-.37.11-.49.15-.15.06-.3.15-.42.26-.03-.02-.41.17-.45.2-.06.01-.12.02-.17.03-.25.21-.63.3-.88.52-.02-.02-.19.06-.23.11-.02,0-.04-.02-.07-.02-.02.04-.01.02,0,.06-.03.03-.06.06-.09.08.02.08.03.4-.02.49.03.03.02.22.02.28,0,.06,0,.12,0,.17.02.05.08.5.07.61,0,.07-.01.14-.02.22.02.16.05.32.07.47.03.18-.02.37,0,.54,0,.08,0,.16,0,.23.04.12.08.42.08.52,0,.32.13,1.1-.02,1.36-.04.06-.14.09-.22.14-.13.08-.24.22-.37.32-.23.16-.48.41-.64.62-.02.04-.04.09-.06.13-.11.08-.28.14-.34.2v.04c-.04.06-.11.06-.14.1-.02.03-.02.07-.04.09-.07.08-.18.14-.22.26-.02,0-.03,0-.05,0v.04s-.06.1-.14.12c0,0,.01.02.02.02-.06,0-.17.17-.24.23-.09.08-.15.2-.24.32-.12.15-.41.26-.43.48-.01,0-.02,0-.03,0-.09.1-.56.76-.57.87,0,0-.02-.01-.02-.02,0,.02,0,0,0,.03-.26.24-.52.05-.89.13-.18.04-.5.1-.66.07-.15,0-.29-.02-.44-.02-.17.03-.32-.01-.45,0-.31.03-.6.02-.79-.02-.3-.05-.51.02-.73,0-.09-.01-.34-.04-.39-.02-.15.06-.36-.02-.47.07-.25.18-.32.62-.48.89-.34.56-.59,1.14-.86,1.77-.1.24-.11.45-.21.72-.07.19-.19.4-.25.57-.01.04,0,.12-.02.14-.11.17-.21.59-.27.8v.19c-.06.17-.27.4-.27.6.13.13.22.3.36.42.38.36.73.67,1.14.99.06.04.1.13.14.18.04.05.12.05.16.09.12.12.18.24.32.32.13.08.22.2.33.27.04.03.08.02.12.05-.02.02,0,.02.02.03.1.09.18.24.29.31.08.05.18.09.27.15.07.05.11.15.18.2.08.06.22.1.27.18.04.04-.02.29-.04.37-.06.22-.07.56-.13.85-.02.12.02.3-.02.38.02.02.02.03.05.04-.04.16-.02.31-.07.43.01,0,.02.02.03.02-.02.06,0,.14-.02.21,0,.09.02.08.06.12-.02.03-.01.03-.05.06.04.1,0,.28.04.38-.01,0-.02.02-.03.02,0,.18.03.77.12.91-.05.07.05.67.07.77-.02,0-.03.01-.05.02.01.02.02.04.03.07,0,0-.02-.01-.02-.02-.02.14.02.23.07.35-.04.11.01.4.02.52-.03.02-.43.46-.43.51-.03.04-.17.1-.14.17-.02.02-.13.09-.16.09-.07.07-.11.16-.18.22-.08.06-.18.1-.24.17-.17.19-.29.43-.49.57-.2.15-.43.3-.57.5,0,0,.01.01.02.02-.07-.01-.4.41-.49.49-.17.16-.49.4-.57.62-.03.09.08.58.12.67h0s.1.37.13.47c-.02.05.08.31.12.34,0,.02,0,.04,0,.06-.01.05.08.39.09.44.05.17.22.37.17.52.02,0,.03.01.05.02.04.09.05.21.14.24-.01,0-.02.01-.03.02,0,.02.01.04.02.07.03.01,0,.01.03,0,0,0,.19.46.2.49,0,0-.02,0-.02,0,.02.05.11.11.12.13.05.12.09.31.17.44.04.07.11.11.14.19.03,0,0,0,.03-.02h0c.02.11.08.17.12.23,0,0,.08.26.08.27.15.25.31.52.45.77.04.07.17.36.22.39.13.06.28-.02.43.03.24.08.68.01.91-.02.07-.01.23.05.32.02l.05-.05c.07-.03.26-.02.33-.03.11-.03.36,0,.42.02.18.04.48-.04.68-.06.1-.01.13.02.2-.03.08.05.16.02.27.03,0-.01.02-.03.02-.04.1.08.21,0,.33.02.24.05.55-.03.83-.02.14.24.31.43.48.63.09.14.17.27.26.41.11.12.22.23.33.35.16.2.31.43.5.61.02.01,0,0,.02,0,.07.1.17.16.27.23.09.07.13.21.22.27.21.15.42.34.62.47.04.05.07.09.11.14.19.14.35.31.54.46.22.18.51.3.68.52-.06.22-.06.94,0,1.11-.04.07-.06.24-.04.32.02.12.07.35.07.44,0,.05,0,.29,0,.29.01.08.02.16.03.24-.05.21-.01.47-.05.67-.09.51-.02.96-.05,1.46.06.08.12.08.22.12.05.04.09.09.14.13.09.07.22.13.31.18.06.03.13.02.17.05.18.15.48.22.71.32.03.01.11.01.12.02.36.26.89.35,1.27.57h0s.05.03.06.03c0,0,.07-.02.07-.02.02,0,.02.05.03.06.17.13.36.06.48.19.04-.01.02,0,.03-.02.08.09.23.15.35.11-.01.04,0,.02-.03.04h0s.04,0,.07-.02c.03.02.02,0,.02.04.17.09.38.15.55.22.02.01.16,0,.16,0,.24.12.89.3,1.22.18,0-.02,0-.12,0-.12.04,0,.07-.02.11-.02.07-.06.09-.14.18-.21.17-.12.28-.32.43-.46.12-.1.24-.18.37-.27.21-.15.41-.44.59-.65.05-.05.11-.05.17-.09.03-.04.06-.08.09-.12.08-.08.2-.13.27-.21.2-.21.35-.42.52-.66.12-.17.45-.4.53-.59.11-.08.45,0,.61.05.05.01.1-.02.12,0,.04.02.12.06.17.06.5-.07,1.12.07,1.67.06.04,0,.03.01.04-.02.02.02.92.02,1.11-.02.15-.03.31.08.44-.03.44.1.97-.15,1.55-.15.11.17.32.31.44.49.2.29.44.58.73.77.04.06.09.11.13.17.16.18.33.34.48.53.03.04.21.19.25.22.02,0,.05.01.07.02,0,.01,0,.02,0,.03.06.1.24.27.32.35.11.1.28.19.37.31.08.12.23.28.35.36.12.07.22-.05.31-.05.06,0,.09-.04.12-.06.2-.07.41-.08.59-.16.02-.02.01,0,.02-.04,0,.01.02.02.02.03.09-.07.29-.13.4-.12,0-.01,0-.03,0-.04.08-.02.3-.01.36-.12.03,0,.06,0,.12-.02,0-.03-.02,0,0-.03.02.02.01.03.06.02.09-.03.19-.12.29-.17.1-.05.23-.04.34-.1.27-.16.55-.22.81-.39.11-.07.36-.1.45-.15.03-.02.08-.08.1-.09.03-.01.11,0,.13-.02.1-.03.21-.11.28-.17.12-.1.46-.1.49-.26.15-.11.45-.14.55-.31.02-.08.05-.16.07-.24-.01-.11-.01-.3-.03-.41,0-.07,0-.15,0-.22-.14-.62,0-1.4-.1-2.16.01-.07.02-.14.03-.21-.03-.21-.06-.43-.08-.64.04-.09-.05-.89-.06-.92.2-.15.34-.24.51-.39,0-.02.02-.04.02-.07.26-.23.57-.37.77-.66.08-.11.33-.26.34-.4,0,.01,0,.03,0,.04.06-.02.1-.07.09-.12.07,0,.5-.48.56-.56.02-.03.03-.01,0-.03.02-.04,0-.02.04-.02.01-.03,0,0,0-.03.13-.14.28-.22.4-.37.06-.08.1-.18.19-.22-.01-.03,0,0-.02-.02.11-.06.36-.3.41-.42,0-.02-.03-.06,0-.09.03-.01.07-.02.1-.03.04-.04.15-.21.18-.27.04-.07.04-.19.1-.26.07-.08.26-.28.29-.37.32.02.66,0,.92.06.25.05.59-.07.83.02.02-.02,0,0,0-.02.09.02.19.01.25.04.03-.02.06-.05.11-.03.21.05.76.08.81.12.01-.02.02-.03.03-.05.25.09.52-.01.83.02.07-.02.14-.03.21-.05.19-.04.41-.03.49.11.12,0,.13-.13.16-.2.08-.02.17,0,.23-.02.02-.01.21-.44.25-.51.21-.35.36-.72.56-1.02.07-.1.2-.48.26-.51-.01-.01-.02-.03-.03-.04.09-.1.13-.21.17-.38,0-.02-.01-.04-.02-.07.03-.03.06-.06.08-.08.09-.18.11-.38.2-.57.04-.08.11-.18.15-.27.05-.11.1-.39.12-.47l-.02-.05c.04-.07.09-.16.12-.24v-.12c.05-.17.1-.34.15-.51.03-.08.29-.73.27-.8-.03-.1-.09-.1-.13-.16h0Z"/>
  <g>
    <path class="cls-7" d="m309.58,34.32h86.44v36.11h-14.5v118.71h35.29v-34.74h45.95v71.12h-153.18v-36.38h15.04v-118.71h-15.04v-36.11Z"/>
    <path class="cls-7" d="m704.29,225.52h-109.69v-35.83h25.99l-5.74-18.6h-56.08l-5.75,18.6h21.34v35.83h-86.98v-35.83h18.6l36.93-120.08h-11.22v-35.29h105.04l48.42,155.37h19.15v35.83Zm-135.4-87.26h35.83l-18.05-59.08-17.78,59.08Z"/>
    <path class="cls-7" d="m728.91,225.52v-35.56h15.87v-120.36h-15.87v-35.29h102.03c45.41,0,67.02,16.96,67.02,46.78,0,22.98-6.29,34.19-26.81,42.4,19.69,5.47,36.11,19.97,36.11,46.5,0,38.57-21.61,55.53-74.4,55.53h-103.94Zm72.49-155.1v41.03h16.68c14.5,0,18.6-7.93,18.6-21.06s-7.66-19.97-18.05-19.97h-17.23Zm21.88,119.54c11.49,0,22.16-8.75,22.16-23.52,0-13.95-7.93-24.07-22.98-24.07h-21.06v47.6h21.88Z"/>
    <path class="cls-7" d="m927.77,128.96c0-59.08,39.39-99.84,96.01-99.84,67.02,0,98.2,40.21,98.2,101.75s-34.47,99.57-96.29,99.57c-57.17,0-97.93-33.1-97.93-101.48Zm125.83,1.92c0-33.1-9.03-59.63-30.09-59.63-16.69-.27-28.17,23.8-28.17,57.72,0,35.83,12.86,58.54,30.36,58.54s27.9-22.7,27.9-56.62Z"/>
    <path class="cls-7" d="m1146.59,34.32h88.9c63.46,0,75.77,25.17,75.77,56.35,0,21.34-16.96,36.38-39.66,39.66,18.87,2.73,35.83,19.15,35.83,38.84,0,11.76,1.64,18.6,6.56,18.6,4.1,0,6.29-3.28,6.29-8.75v-9.03h18.33v15.04c0,22.7-9.57,43.77-39.94,43.77-35.83,0-53.07-18.87-53.07-50.88,0-24.89-3.01-30.91-27.36-30.91v42.4h16.69v36.11h-88.35v-36.11h15.32v-119.26h-15.32v-35.83Zm71.67,35.56v46.5h12.31c15.87,0,26.26-7.66,26.26-22.16,0-16.14-9.03-24.34-24.89-24.34h-13.68Z"/>
  </g>
  <g>
    <path class="cls-5" d="m328.1,334.06c-6.25-3.44-11.15-8.17-14.71-14.21-3.55-6.03-5.33-12.82-5.33-20.37s1.77-14.33,5.33-20.36c3.55-6.03,8.47-10.77,14.76-14.21,6.29-3.44,13.32-5.16,21.09-5.16,6.07,0,11.61,1.02,16.65,3.05,5.03,2.04,9.32,5.05,12.87,9.04l-7.21,6.99c-5.85-6.14-13.14-9.21-21.86-9.21-5.77,0-10.99,1.3-15.65,3.88-4.66,2.59-8.3,6.16-10.93,10.71-2.63,4.55-3.94,9.64-3.94,15.26s1.31,10.71,3.94,15.26c2.63,4.55,6.27,8.12,10.93,10.71,4.66,2.59,9.88,3.88,15.65,3.88,8.66,0,15.94-3.11,21.86-9.32l7.21,6.99c-3.55,4-7.86,7.03-12.93,9.1-5.07,2.07-10.64,3.11-16.7,3.11-7.77,0-14.78-1.72-21.03-5.16Z"/>
    <path class="cls-5" d="m463,338.34l-16.76-23.86c-2.07.15-3.7.22-4.88.22h-19.2v23.64h-11.1v-77.68h30.3c10.06,0,17.98,2.4,23.75,7.21,5.77,4.81,8.66,11.43,8.66,19.87,0,5.99-1.48,11.1-4.44,15.31-2.96,4.22-7.18,7.29-12.65,9.21l18.42,26.08h-12.1Zm-5.88-37.62c3.7-3.03,5.55-7.36,5.55-12.99s-1.85-9.93-5.55-12.93c-3.7-3-9.06-4.5-16.09-4.5h-18.87v34.96h18.87c7.03,0,12.39-1.52,16.09-4.55Z"/>
    <path class="cls-5" d="m564.54,328.68v9.66h-56.38v-77.68h54.82v9.65h-43.73v23.86h38.95v9.43h-38.95v25.08h45.28Z"/>
    <path class="cls-5" d="m598.94,260.65h32.74c8.21,0,15.5,1.63,21.86,4.88,6.36,3.26,11.3,7.82,14.81,13.71,3.51,5.88,5.27,12.63,5.27,20.25s-1.76,14.37-5.27,20.25c-3.52,5.88-8.45,10.45-14.81,13.71-6.36,3.26-13.65,4.88-21.86,4.88h-32.74v-77.68Zm32.07,68.03c6.29,0,11.82-1.22,16.59-3.66,4.77-2.44,8.45-5.86,11.04-10.27,2.59-4.4,3.88-9.49,3.88-15.26s-1.3-10.86-3.88-15.26c-2.59-4.4-6.27-7.82-11.04-10.27-4.77-2.44-10.3-3.66-16.59-3.66h-20.97v58.37h20.97Z"/>
    <path class="cls-5" d="m707.04,260.65h11.1v77.68h-11.1v-77.68Z"/>
    <path class="cls-5" d="m773.29,270.31h-26.63v-9.65h64.26v9.65h-26.63v68.03h-10.99v-68.03Z"/>
    <path class="cls-5" d="m893.7,330.35c-5.77-5.92-8.66-14.43-8.66-25.53v-44.17h11.1v43.73c0,16.65,7.29,24.97,21.86,24.97,7.1,0,12.54-2.05,16.31-6.16,3.77-4.11,5.66-10.38,5.66-18.81v-43.73h10.77v44.17c0,11.17-2.88,19.7-8.65,25.58-5.77,5.88-13.84,8.82-24.19,8.82s-18.42-2.96-24.19-8.88Z"/>
    <path class="cls-5" d="m1056.73,260.65v77.68h-9.1l-46.61-57.93v57.93h-11.1v-77.68h9.1l46.61,57.93v-57.93h11.1Z"/>
    <path class="cls-5" d="m1096.46,260.65h11.1v77.68h-11.1v-77.68Z"/>
    <path class="cls-5" d="m1161.16,334.06c-6.29-3.44-11.23-8.19-14.82-14.26-3.59-6.07-5.38-12.83-5.38-20.31s1.79-14.24,5.38-20.31c3.59-6.07,8.53-10.82,14.82-14.26,6.29-3.44,13.35-5.16,21.2-5.16s14.8,1.72,21.09,5.16c6.29,3.44,11.21,8.18,14.76,14.21,3.55,6.03,5.33,12.82,5.33,20.36s-1.78,14.34-5.33,20.37c-3.55,6.03-8.47,10.77-14.76,14.21-6.29,3.44-13.32,5.16-21.09,5.16s-14.91-1.72-21.2-5.16Zm36.57-8.6c4.55-2.59,8.14-6.16,10.77-10.71,2.63-4.55,3.94-9.64,3.94-15.26s-1.31-10.71-3.94-15.26c-2.63-4.55-6.21-8.12-10.77-10.71-4.55-2.59-9.67-3.88-15.37-3.88s-10.86,1.3-15.48,3.88c-4.62,2.59-8.25,6.16-10.87,10.71-2.63,4.55-3.94,9.64-3.94,15.26s1.31,10.71,3.94,15.26c2.63,4.55,6.25,8.12,10.87,10.71,4.62,2.59,9.78,3.88,15.48,3.88s10.82-1.29,15.37-3.88Z"/>
    <path class="cls-5" d="m1323.74,260.65v77.68h-9.1l-46.61-57.93v57.93h-11.1v-77.68h9.1l46.61,57.93v-57.93h11.1Z"/>
  </g>
</svg>